<svg width="412" height="844" viewBox="0 0 412 844" fill="none" xmlns="http://www.w3.org/2000/svg">
<rect width="412" height="844" rx="16" fill="#F8FAFA"/>
<rect width="412" height="52" fill="white"/>
<mask id="path-2-inside-1_331_19417" fill="white">
<path d="M0 0H412V52H0V0Z"/>
</mask>
<path d="M412 51H0V53H412V51Z" fill="#DBE4E6" mask="url(#path-2-inside-1_331_19417)"/>
<path d="M27.5 37.126C27.08 37.126 26.6413 37.0467 26.184 36.888C25.736 36.7293 25.3347 36.5007 24.98 36.202C24.8773 36.1273 24.8073 36.034 24.77 35.922C24.742 35.8007 24.742 35.6887 24.77 35.586C24.798 35.474 24.8493 35.3807 24.924 35.306C25.008 35.222 25.106 35.1753 25.218 35.166C25.33 35.1567 25.4513 35.1987 25.582 35.292C25.8993 35.544 26.2213 35.726 26.548 35.838C26.8747 35.95 27.2013 36.006 27.528 36.006C28.116 36.006 28.6153 35.8613 29.026 35.572C29.4367 35.2733 29.7493 34.8347 29.964 34.256C30.1787 33.668 30.286 32.9447 30.286 32.086V30.84H30.426C30.37 31.3533 30.216 31.8013 29.964 32.184C29.712 32.5573 29.3853 32.8467 28.984 33.052C28.592 33.2573 28.1487 33.36 27.654 33.36C27.0753 33.36 26.562 33.2247 26.114 32.954C25.6753 32.6833 25.3253 32.3147 25.064 31.848C24.812 31.372 24.686 30.8307 24.686 30.224C24.686 29.5987 24.8213 29.0433 25.092 28.558C25.3627 28.0727 25.736 27.6947 26.212 27.424C26.688 27.144 27.234 27.004 27.85 27.004C28.6433 27.004 29.3107 27.1953 29.852 27.578C30.4027 27.9513 30.8227 28.502 31.112 29.23C31.4013 29.9487 31.546 30.8167 31.546 31.834C31.546 32.6927 31.4527 33.4487 31.266 34.102C31.0887 34.7553 30.8227 35.306 30.468 35.754C30.1227 36.202 29.698 36.5427 29.194 36.776C28.6993 37.0093 28.1347 37.126 27.5 37.126ZM27.948 32.282C28.34 32.282 28.6853 32.1933 28.984 32.016C29.292 31.8293 29.53 31.5773 29.698 31.26C29.866 30.9427 29.95 30.5787 29.95 30.168C29.95 29.748 29.866 29.384 29.698 29.076C29.53 28.7587 29.292 28.5113 28.984 28.334C28.6853 28.1567 28.34 28.068 27.948 28.068C27.5467 28.068 27.1967 28.1567 26.898 28.334C26.5993 28.5113 26.3613 28.7587 26.184 29.076C26.016 29.384 25.932 29.748 25.932 30.168C25.932 30.5787 26.016 30.9427 26.184 31.26C26.3613 31.5773 26.5993 31.8293 26.898 32.016C27.1967 32.1933 27.5467 32.282 27.948 32.282ZM34.0325 37.056C33.7899 37.056 33.5892 36.9767 33.4305 36.818C33.2719 36.6593 33.1925 36.4587 33.1925 36.216C33.1925 35.9733 33.2719 35.7773 33.4305 35.628C33.5892 35.4787 33.7899 35.404 34.0325 35.404C34.2939 35.404 34.4945 35.4787 34.6345 35.628C34.7839 35.7773 34.8585 35.9733 34.8585 36.216C34.8585 36.4587 34.7839 36.6593 34.6345 36.818C34.4945 36.9767 34.2939 37.056 34.0325 37.056ZM34.0325 31.778C33.7899 31.778 33.5892 31.7033 33.4305 31.554C33.2719 31.3953 33.1925 31.1947 33.1925 30.952C33.1925 30.7093 33.2719 30.5133 33.4305 30.364C33.5892 30.2053 33.7899 30.126 34.0325 30.126C34.2939 30.126 34.4945 30.2053 34.6345 30.364C34.7839 30.5133 34.8585 30.7093 34.8585 30.952C34.8585 31.1947 34.7839 31.3953 34.6345 31.554C34.4945 31.7033 34.2939 31.778 34.0325 31.778ZM39.7361 37.126C39.1948 37.126 38.6534 37.0513 38.1121 36.902C37.5708 36.7527 37.0994 36.5287 36.6981 36.23C36.5674 36.1367 36.4788 36.0293 36.4321 35.908C36.3854 35.7867 36.3714 35.6747 36.3901 35.572C36.4181 35.46 36.4741 35.3667 36.5581 35.292C36.6421 35.2173 36.7448 35.1753 36.8661 35.166C36.9874 35.1473 37.1181 35.18 37.2581 35.264C37.6594 35.5253 38.0561 35.7167 38.4481 35.838C38.8494 35.95 39.2648 36.006 39.6941 36.006C40.1514 36.006 40.5388 35.9407 40.8561 35.81C41.1734 35.67 41.4114 35.4693 41.5701 35.208C41.7381 34.9373 41.8221 34.6153 41.8221 34.242C41.8221 33.682 41.6401 33.262 41.2761 32.982C40.9121 32.6927 40.3801 32.548 39.6801 32.548H38.7001C38.5041 32.548 38.3548 32.5013 38.2521 32.408C38.1494 32.3053 38.0981 32.17 38.0981 32.002C38.0981 31.8247 38.1494 31.6893 38.2521 31.596C38.3548 31.5027 38.5041 31.456 38.7001 31.456H39.5681C39.9788 31.456 40.3288 31.386 40.6181 31.246C40.9074 31.0967 41.1314 30.8913 41.2901 30.63C41.4581 30.3687 41.5421 30.0513 41.5421 29.678C41.5421 29.174 41.3788 28.7913 41.0521 28.53C40.7254 28.2593 40.2541 28.124 39.6381 28.124C39.2368 28.124 38.8588 28.1847 38.5041 28.306C38.1494 28.418 37.7901 28.6093 37.4261 28.88C37.3048 28.964 37.1834 29.006 37.0621 29.006C36.9408 28.9967 36.8381 28.9547 36.7541 28.88C36.6794 28.8053 36.6281 28.7167 36.6001 28.614C36.5721 28.502 36.5768 28.3853 36.6141 28.264C36.6514 28.1427 36.7354 28.0353 36.8661 27.942C37.2488 27.6433 37.6874 27.4147 38.1821 27.256C38.6861 27.088 39.2041 27.004 39.7361 27.004C40.3801 27.004 40.9308 27.1067 41.3881 27.312C41.8548 27.5173 42.2094 27.8113 42.4521 28.194C42.6948 28.5673 42.8161 29.02 42.8161 29.552C42.8161 29.9533 42.7414 30.322 42.5921 30.658C42.4428 30.9847 42.2281 31.2647 41.9481 31.498C41.6774 31.722 41.3461 31.8807 40.9541 31.974V31.82C41.6354 31.9413 42.1628 32.226 42.5361 32.674C42.9188 33.1127 43.1101 33.6633 43.1101 34.326C43.1101 34.8953 42.9701 35.3947 42.6901 35.824C42.4194 36.244 42.0321 36.566 41.5281 36.79C41.0241 37.014 40.4268 37.126 39.7361 37.126ZM48.2566 37.126C47.118 37.126 46.25 36.692 45.6526 35.824C45.0646 34.9467 44.7706 33.6913 44.7706 32.058C44.7706 30.9473 44.9013 30.0187 45.1626 29.272C45.4333 28.5253 45.8253 27.9607 46.3386 27.578C46.8613 27.1953 47.5006 27.004 48.2566 27.004C49.4046 27.004 50.2726 27.4333 50.8606 28.292C51.4486 29.1413 51.7426 30.392 51.7426 32.044C51.7426 33.136 51.6073 34.06 51.3366 34.816C51.0753 35.572 50.688 36.146 50.1746 36.538C49.6613 36.93 49.022 37.126 48.2566 37.126ZM48.2566 36.02C49.0033 36.02 49.5586 35.698 49.9226 35.054C50.2866 34.41 50.4686 33.4067 50.4686 32.044C50.4686 30.6813 50.2866 29.6873 49.9226 29.062C49.568 28.4273 49.0126 28.11 48.2566 28.11C47.51 28.11 46.9546 28.4273 46.5906 29.062C46.2266 29.6873 46.0446 30.6813 46.0446 32.044C46.0446 33.4067 46.2266 34.41 46.5906 35.054C46.9546 35.698 47.51 36.02 48.2566 36.02Z" fill="#1D1B20"/>
<path opacity="0.1" d="M350.5 26.4167C347.1 26.4167 344.125 27.9042 342 30.2417L350.5 40.5833L359 30.2417C356.875 27.9042 353.9 26.4167 350.5 26.4167Z" fill="#1D1B20"/>
<path d="M373.584 26.4167L359.417 40.5833H373.584V26.4167Z" fill="#1D1B20"/>
<path d="M385.5 26H382.5V27.5H381C380.448 27.5 380 28.0037 380 28.625V39.875C380 40.4963 380.448 41 381 41H387C387.552 41 388 40.4963 388 39.875V28.625C388 28.0037 387.552 27.5 387 27.5H385.5V26Z" fill="#1F1F1F" fill-opacity="0.3"/>
<path d="M380 34C380 34.5833 380 39.3667 380 39.95C380 40.5299 380.448 41 381 41H387C387.552 41 388 40.5299 388 39.95C388 39.3667 388 34.5833 388 34H380Z" fill="#1D1B20"/>
<rect x="31" y="293" width="350" height="230" rx="6" fill="white"/>
<circle cx="206" cy="366" r="28.25" stroke="#D9B93C" stroke-width="4" stroke-linecap="round"/>
<circle cx="197.25" cy="357.25" r="3.41667" fill="#D9B93C" stroke="#D9B93C" stroke-linecap="round"/>
<path d="M214.75 360.667C216.637 360.667 218.166 359.137 218.166 357.25C218.166 355.363 216.637 353.833 214.75 353.833C212.863 353.833 211.333 355.363 211.333 357.25C211.333 359.137 212.863 360.667 214.75 360.667Z" fill="#D9B93C" stroke="#D9B93C" stroke-linecap="round"/>
<path d="M214.75 376.208C214.75 380.235 210.832 383.5 206 383.5C201.168 383.5 197.25 380.235 197.25 376.208C197.25 372.181 201.168 368.917 206 368.917C210.832 368.917 214.75 372.181 214.75 376.208Z" fill="#D9B93C"/>
<path d="M90.52 433.16C89.8373 433.16 89.2453 433.027 88.744 432.76C88.2533 432.483 87.9173 432.099 87.736 431.608H87.672L87.592 433H86.424V424.232H87.848V429.304C87.848 429.837 87.9387 430.307 88.12 430.712C88.312 431.107 88.584 431.416 88.936 431.64C89.2987 431.853 89.7307 431.96 90.232 431.96C90.8613 431.96 91.3307 431.795 91.64 431.464C91.9493 431.133 92.104 430.648 92.104 430.008V424.232H93.528V430.104C93.528 430.808 93.4053 431.384 93.16 431.832C92.9253 432.28 92.584 432.616 92.136 432.84C91.688 433.053 91.1493 433.16 90.52 433.16ZM86.7291 422.84V422.216L87.8971 421.704H93.5291V422.84H86.7291ZM92.2011 422.216V420.408H93.5451V422.216H92.2011ZM99.2121 433.16C98.2095 433.16 97.4308 432.92 96.8761 432.44C96.3321 431.949 96.0601 431.219 96.0601 430.248V429.272C96.0601 428.739 96.1348 428.317 96.2841 428.008C96.4335 427.699 96.5935 427.432 96.7641 427.208C96.9455 426.963 97.1001 426.749 97.2281 426.568C97.3668 426.387 97.4361 426.168 97.4361 425.912C97.4361 425.688 97.3775 425.528 97.2601 425.432C97.1535 425.336 97.0148 425.288 96.8441 425.288C96.7161 425.288 96.5775 425.309 96.4281 425.352C96.2895 425.395 96.1508 425.448 96.0121 425.512L95.6921 424.488C95.8841 424.36 96.1188 424.269 96.3961 424.216C96.6841 424.163 96.9348 424.136 97.1481 424.136C97.5428 424.136 97.8575 424.205 98.0921 424.344C98.3375 424.483 98.5135 424.675 98.6201 424.92C98.7268 425.155 98.7801 425.432 98.7801 425.752C98.7801 426.147 98.7108 426.472 98.5721 426.728C98.4441 426.984 98.2895 427.235 98.1081 427.48C97.9268 427.747 97.7775 428.003 97.6601 428.248C97.5428 428.493 97.4841 428.813 97.4841 429.208V430.152C97.4841 430.643 97.5641 431.021 97.7241 431.288C97.8841 431.555 98.0975 431.741 98.3641 431.848C98.6308 431.944 98.9135 431.992 99.2121 431.992C99.7455 431.992 100.151 431.869 100.428 431.624C100.716 431.368 100.86 430.979 100.86 430.456V424.232H102.284V430.536C102.284 431.357 102.023 432.003 101.5 432.472C100.988 432.931 100.225 433.16 99.2121 433.16ZM97.7995 422.84V422.136C98.0128 422.093 98.2315 422.035 98.4555 421.96C98.6795 421.875 98.8662 421.768 99.0155 421.64C99.1648 421.501 99.2395 421.336 99.2395 421.144C99.2395 421.016 99.2022 420.909 99.1275 420.824C99.0422 420.728 98.9142 420.68 98.7435 420.68C98.6368 420.68 98.5302 420.701 98.4235 420.744C98.3062 420.787 98.2048 420.824 98.1195 420.856L97.7995 419.976C98.0128 419.805 98.2528 419.693 98.5195 419.64C98.7755 419.587 98.9835 419.56 99.1435 419.56C99.5702 419.56 99.9062 419.677 100.151 419.912C100.386 420.147 100.503 420.445 100.503 420.808C100.503 421.107 100.429 421.368 100.279 421.592C100.119 421.805 99.9382 421.976 99.7355 422.104L99.5755 421.72H102.759V422.84H97.7995ZM107.978 433.16C106.826 433.16 105.962 432.861 105.386 432.264C104.821 431.656 104.538 430.707 104.538 429.416C104.538 429.203 104.543 428.973 104.554 428.728C104.575 428.472 104.597 428.221 104.618 427.976H107.978V429.096H105.962V429.416C105.962 430.088 106.037 430.616 106.186 431C106.335 431.373 106.554 431.635 106.842 431.784C107.141 431.933 107.509 432.008 107.946 432.008C108.426 432.008 108.842 431.917 109.194 431.736C109.546 431.555 109.818 431.224 110.01 430.744C110.202 430.264 110.298 429.576 110.298 428.68C110.298 427.891 110.213 427.245 110.042 426.744C109.871 426.243 109.589 425.869 109.194 425.624C108.81 425.379 108.287 425.256 107.626 425.256C107.285 425.256 106.954 425.288 106.634 425.352C106.314 425.405 106.005 425.491 105.706 425.608C105.407 425.715 105.114 425.853 104.826 426.024V424.696C105.039 424.579 105.301 424.477 105.61 424.392C105.919 424.296 106.261 424.221 106.634 424.168C107.007 424.104 107.397 424.072 107.802 424.072C108.741 424.072 109.498 424.264 110.074 424.648C110.661 425.021 111.087 425.555 111.354 426.248C111.621 426.931 111.754 427.741 111.754 428.68C111.754 429.619 111.631 430.424 111.386 431.096C111.141 431.768 110.741 432.28 110.186 432.632C109.642 432.984 108.906 433.16 107.978 433.16ZM114.142 433V425.784C114.142 425.325 114.232 424.973 114.414 424.728C114.595 424.483 114.83 424.312 115.118 424.216C115.406 424.12 115.715 424.072 116.046 424.072C116.163 424.072 116.312 424.088 116.494 424.12C116.686 424.152 116.851 424.2 116.99 424.264L116.814 425.336C116.707 425.304 116.6 425.283 116.494 425.272C116.387 425.251 116.302 425.24 116.238 425.24C115.971 425.24 115.784 425.304 115.678 425.432C115.582 425.56 115.534 425.741 115.534 425.976V428.456C115.534 428.787 115.528 429.133 115.518 429.496C115.518 429.848 115.502 430.275 115.47 430.776H115.534C115.747 430.307 115.944 429.917 116.126 429.608C116.307 429.288 116.478 428.989 116.638 428.712L117.486 427.272H118.382L119.23 428.712C119.4 429 119.55 429.256 119.678 429.48C119.806 429.704 119.923 429.923 120.03 430.136C120.136 430.339 120.238 430.552 120.334 430.776H120.398C120.366 430.275 120.344 429.848 120.334 429.496C120.334 429.133 120.334 428.787 120.334 428.456V424.232H121.726V433H120.462L117.982 428.808H117.918L115.406 433H114.142ZM114.932 422.84V422.216L116.1 421.704H121.732V422.84H114.932ZM127.429 433.16C126.575 433.16 125.903 432.963 125.413 432.568C124.933 432.163 124.591 431.619 124.389 430.936C124.197 430.253 124.101 429.501 124.101 428.68C124.101 427.773 124.191 427.027 124.373 426.44C124.565 425.843 124.831 425.373 125.173 425.032C125.525 424.68 125.941 424.435 126.421 424.296C126.911 424.147 127.45 424.072 128.037 424.072C128.89 424.072 129.583 424.2 130.117 424.456C130.661 424.701 131.061 425.053 131.317 425.512C131.573 425.971 131.701 426.52 131.701 427.16V433H130.293V427.288C130.293 426.627 130.127 426.125 129.797 425.784C129.466 425.432 128.895 425.256 128.085 425.256C127.594 425.256 127.151 425.347 126.757 425.528C126.373 425.709 126.069 426.045 125.845 426.536C125.631 427.027 125.525 427.747 125.525 428.696C125.525 429.315 125.583 429.875 125.701 430.376C125.829 430.867 126.047 431.256 126.357 431.544C126.666 431.832 127.098 431.976 127.653 431.976C127.813 431.976 127.962 431.965 128.101 431.944C128.239 431.923 128.373 431.891 128.501 431.848L128.645 432.952C128.474 433.027 128.277 433.08 128.053 433.112C127.839 433.144 127.631 433.16 127.429 433.16ZM135.24 433L133.656 424.232H135.112L135.736 428.04C135.789 428.349 135.843 428.749 135.896 429.24C135.949 429.731 136.013 430.312 136.088 430.984H136.136C136.232 430.525 136.323 430.115 136.408 429.752C136.504 429.389 136.589 429.064 136.664 428.776C136.749 428.477 136.824 428.216 136.888 427.992L137.96 424.232H139.128L140.216 427.992C140.28 428.216 140.349 428.477 140.424 428.776C140.509 429.064 140.595 429.389 140.68 429.752C140.776 430.115 140.872 430.525 140.968 430.984H141.032C141.096 430.312 141.155 429.731 141.208 429.24C141.261 428.749 141.315 428.349 141.368 428.04L142.008 424.232H143.464L141.88 433H140.488L139.016 428.232C138.941 427.965 138.867 427.688 138.792 427.4C138.728 427.112 138.664 426.733 138.6 426.264H138.536C138.493 426.573 138.445 426.845 138.392 427.08C138.339 427.315 138.285 427.523 138.232 427.704C138.179 427.885 138.125 428.061 138.072 428.232L136.632 433H135.24ZM150.557 433V427.16C150.557 426.467 150.397 425.976 150.077 425.688C149.768 425.389 149.245 425.24 148.509 425.24C147.976 425.24 147.464 425.315 146.973 425.464C146.493 425.603 146.034 425.8 145.597 426.056V424.728C145.906 424.568 146.322 424.419 146.845 424.28C147.378 424.141 147.976 424.072 148.637 424.072C149.202 424.072 149.693 424.136 150.109 424.264C150.525 424.381 150.866 424.563 151.133 424.808C151.41 425.053 151.618 425.368 151.757 425.752C151.896 426.125 151.965 426.568 151.965 427.08V433H150.557ZM147.805 433.16C146.866 433.16 146.146 432.947 145.645 432.52C145.154 432.083 144.909 431.459 144.909 430.648C144.909 429.763 145.229 429.08 145.869 428.6C146.52 428.12 147.57 427.837 149.021 427.752L150.845 427.64V428.824L149.213 428.936C148.125 429.011 147.373 429.181 146.957 429.448C146.552 429.715 146.349 430.104 146.349 430.616C146.349 431.096 146.498 431.448 146.797 431.672C147.106 431.896 147.533 432.008 148.077 432.008C148.258 432.008 148.424 431.997 148.573 431.976C148.722 431.944 148.866 431.907 149.005 431.864L149.229 432.936C149.026 433.011 148.802 433.064 148.557 433.096C148.322 433.139 148.072 433.16 147.805 433.16ZM157.042 433V426.776C157.042 426.253 156.919 425.869 156.674 425.624C156.439 425.379 156.039 425.256 155.474 425.256C155.09 425.256 154.727 425.309 154.386 425.416C154.055 425.512 153.735 425.651 153.426 425.832V424.552C153.639 424.445 153.943 424.339 154.338 424.232C154.732 424.125 155.202 424.072 155.746 424.072C156.3 424.072 156.78 424.152 157.186 424.312C157.591 424.472 157.906 424.739 158.13 425.112C158.354 425.475 158.466 425.96 158.466 426.568V433H157.042ZM164.054 433.16C163.2 433.16 162.528 432.963 162.038 432.568C161.558 432.163 161.216 431.619 161.014 430.936C160.822 430.253 160.726 429.501 160.726 428.68C160.726 427.773 160.816 427.027 160.998 426.44C161.19 425.843 161.456 425.373 161.798 425.032C162.15 424.68 162.566 424.435 163.046 424.296C163.536 424.147 164.075 424.072 164.662 424.072C165.515 424.072 166.208 424.2 166.742 424.456C167.286 424.701 167.686 425.053 167.942 425.512C168.198 425.971 168.326 426.52 168.326 427.16V433H166.918V427.288C166.918 426.627 166.752 426.125 166.422 425.784C166.091 425.432 165.52 425.256 164.71 425.256C164.219 425.256 163.776 425.347 163.382 425.528C162.998 425.709 162.694 426.045 162.47 426.536C162.256 427.027 162.15 427.747 162.15 428.696C162.15 429.315 162.208 429.875 162.326 430.376C162.454 430.867 162.672 431.256 162.982 431.544C163.291 431.832 163.723 431.976 164.278 431.976C164.438 431.976 164.587 431.965 164.726 431.944C164.864 431.923 164.998 431.891 165.126 431.848L165.27 432.952C165.099 433.027 164.902 433.08 164.678 433.112C164.464 433.144 164.256 433.16 164.054 433.16ZM172.905 433.16C172.617 433.16 172.34 433.112 172.073 433.016C171.806 432.92 171.588 432.749 171.417 432.504C171.246 432.259 171.161 431.917 171.161 431.48V424.232H172.585V431.304C172.585 431.549 172.638 431.725 172.745 431.832C172.852 431.939 173.022 431.992 173.257 431.992C173.353 431.992 173.454 431.981 173.561 431.96C173.668 431.939 173.769 431.912 173.865 431.88L174.057 432.92C173.854 433.016 173.657 433.08 173.465 433.112C173.273 433.144 173.086 433.16 172.905 433.16ZM180.62 433V427.16C180.62 426.467 180.46 425.976 180.14 425.688C179.83 425.389 179.308 425.24 178.572 425.24C178.038 425.24 177.526 425.315 177.036 425.464C176.556 425.603 176.097 425.8 175.66 426.056V424.728C175.969 424.568 176.385 424.419 176.908 424.28C177.441 424.141 178.038 424.072 178.7 424.072C179.265 424.072 179.756 424.136 180.172 424.264C180.588 424.381 180.929 424.563 181.196 424.808C181.473 425.053 181.681 425.368 181.82 425.752C181.958 426.125 182.028 426.568 182.028 427.08V433H180.62ZM177.868 433.16C176.929 433.16 176.209 432.947 175.708 432.52C175.217 432.083 174.972 431.459 174.972 430.648C174.972 429.763 175.292 429.08 175.932 428.6C176.582 428.12 177.633 427.837 179.084 427.752L180.908 427.64V428.824L179.276 428.936C178.188 429.011 177.436 429.181 177.02 429.448C176.614 429.715 176.412 430.104 176.412 430.616C176.412 431.096 176.561 431.448 176.86 431.672C177.169 431.896 177.596 432.008 178.14 432.008C178.321 432.008 178.486 431.997 178.636 431.976C178.785 431.944 178.929 431.907 179.068 431.864L179.292 432.936C179.089 433.011 178.865 433.064 178.62 433.096C178.385 433.139 178.134 433.16 177.868 433.16ZM180.131 423.08C179.832 423.08 179.576 423.021 179.363 422.904C179.149 422.776 178.984 422.589 178.867 422.344L178.067 423.032C177.469 423.032 176.989 422.883 176.627 422.584C176.253 422.275 176.067 421.832 176.067 421.256C176.067 420.851 176.152 420.515 176.323 420.248C176.493 419.981 176.717 419.784 176.995 419.656C177.272 419.528 177.571 419.464 177.891 419.464H181.619V420.424H178.099C177.853 420.424 177.645 420.499 177.475 420.648C177.293 420.787 177.203 421.011 177.203 421.32C177.203 421.544 177.261 421.731 177.379 421.88C177.496 422.019 177.693 422.088 177.971 422.088L178.867 421.288H179.171C179.213 421.523 179.304 421.725 179.443 421.896C179.571 422.056 179.752 422.136 179.987 422.136C180.189 422.136 180.344 422.077 180.451 421.96C180.547 421.843 180.595 421.688 180.595 421.496V421.288H181.635V421.512C181.635 422.035 181.501 422.429 181.235 422.696C180.957 422.952 180.589 423.08 180.131 423.08ZM184.544 433V429.96C184.544 429.288 184.693 428.803 184.992 428.504C185.291 428.195 185.669 427.981 186.128 427.864L186.144 427.816L184.384 427.144V426.616C184.384 426.179 184.528 425.768 184.816 425.384C185.104 424.989 185.515 424.675 186.048 424.44C186.592 424.195 187.237 424.072 187.984 424.072C188.635 424.072 189.237 424.179 189.792 424.392C190.347 424.595 190.789 424.92 191.12 425.368C191.461 425.805 191.632 426.381 191.632 427.096V433H190.208V427.24C190.208 426.525 189.989 426.019 189.552 425.72C189.125 425.411 188.597 425.256 187.968 425.256C187.317 425.256 186.8 425.395 186.416 425.672C186.032 425.939 185.84 426.28 185.84 426.696L187.568 427.56L187.44 428.328C187.045 428.328 186.699 428.461 186.4 428.728C186.112 428.984 185.968 429.395 185.968 429.96V433H184.544ZM197.242 433.16C196.613 433.16 196.069 433.053 195.61 432.84C195.162 432.616 194.815 432.28 194.57 431.832C194.335 431.384 194.218 430.803 194.218 430.088V424.232H195.642V430.008C195.642 430.648 195.802 431.133 196.122 431.464C196.453 431.795 196.927 431.96 197.546 431.96C198.293 431.96 198.869 431.72 199.274 431.24C199.69 430.76 199.898 430.115 199.898 429.304V424.232H201.322V433H200.138L200.074 431.704H199.994C199.802 432.131 199.466 432.483 198.986 432.76C198.517 433.027 197.935 433.16 197.242 433.16ZM196.846 422.84V422.136C197.06 422.093 197.278 422.035 197.502 421.96C197.726 421.875 197.913 421.768 198.062 421.64C198.212 421.501 198.286 421.336 198.286 421.144C198.286 421.016 198.249 420.909 198.174 420.824C198.089 420.728 197.961 420.68 197.79 420.68C197.684 420.68 197.577 420.701 197.47 420.744C197.353 420.787 197.252 420.824 197.166 420.856L196.846 419.976C197.06 419.805 197.3 419.693 197.566 419.64C197.822 419.587 198.03 419.56 198.19 419.56C198.617 419.56 198.953 419.677 199.198 419.912C199.433 420.147 199.55 420.445 199.55 420.808C199.55 421.107 199.476 421.368 199.326 421.592C199.166 421.805 198.985 421.976 198.782 422.104L198.622 421.72H201.806V422.84H196.846ZM207.134 433.16C205.982 433.16 205.118 432.861 204.542 432.264C203.977 431.656 203.694 430.707 203.694 429.416C203.694 429.203 203.7 428.973 203.71 428.728C203.732 428.472 203.753 428.221 203.774 427.976H207.134V429.096H205.118V429.416C205.118 430.088 205.193 430.616 205.342 431C205.492 431.373 205.71 431.635 205.998 431.784C206.297 431.933 206.665 432.008 207.102 432.008C207.582 432.008 207.998 431.917 208.35 431.736C208.702 431.555 208.974 431.224 209.166 430.744C209.358 430.264 209.454 429.576 209.454 428.68C209.454 427.891 209.369 427.245 209.198 426.744C209.028 426.243 208.745 425.869 208.35 425.624C207.966 425.379 207.444 425.256 206.782 425.256C206.441 425.256 206.11 425.288 205.79 425.352C205.47 425.405 205.161 425.491 204.862 425.608C204.564 425.715 204.27 425.853 203.982 426.024V424.696C204.196 424.579 204.457 424.477 204.766 424.392C205.076 424.296 205.417 424.221 205.79 424.168C206.164 424.104 206.553 424.072 206.958 424.072C207.897 424.072 208.654 424.264 209.23 424.648C209.817 425.021 210.244 425.555 210.51 426.248C210.777 426.931 210.91 427.741 210.91 428.68C210.91 429.619 210.788 430.424 210.542 431.096C210.297 431.768 209.897 432.28 209.342 432.632C208.798 432.984 208.062 433.16 207.134 433.16ZM216.594 433.144C215.73 433.144 215.037 433.032 214.514 432.808C214.002 432.584 213.629 432.269 213.394 431.864C213.17 431.459 213.058 430.979 213.058 430.424C213.058 429.933 213.127 429.544 213.266 429.256C213.415 428.957 213.597 428.739 213.81 428.6C214.034 428.461 214.263 428.371 214.498 428.328V428.264C214.285 428.2 214.061 428.093 213.826 427.944C213.591 427.795 213.394 427.587 213.234 427.32C213.085 427.053 213.01 426.717 213.01 426.312C213.01 425.939 213.095 425.587 213.266 425.256C213.437 424.925 213.714 424.653 214.098 424.44C214.482 424.227 214.989 424.12 215.618 424.12C215.874 424.12 216.141 424.141 216.418 424.184C216.695 424.216 216.909 424.275 217.058 424.36L216.802 425.464C216.685 425.421 216.53 425.384 216.338 425.352C216.157 425.309 215.965 425.288 215.762 425.288C215.314 425.288 214.983 425.395 214.77 425.608C214.557 425.811 214.45 426.083 214.45 426.424C214.45 426.797 214.541 427.08 214.722 427.272C214.914 427.464 215.154 427.597 215.442 427.672C215.741 427.736 216.05 427.768 216.37 427.768H216.674V428.808H216.37C215.73 428.808 215.255 428.925 214.946 429.16C214.647 429.384 214.498 429.763 214.498 430.296C214.498 430.605 214.557 430.888 214.674 431.144C214.802 431.4 215.015 431.603 215.314 431.752C215.623 431.901 216.05 431.976 216.594 431.976C217.138 431.976 217.559 431.901 217.858 431.752C218.167 431.603 218.386 431.389 218.514 431.112C218.642 430.824 218.706 430.483 218.706 430.088V424.232H220.13V429.992C220.13 431.112 219.842 431.917 219.266 432.408C218.701 432.899 217.81 433.144 216.594 433.144ZM227.354 425.832V422.696C227.354 422.056 227.199 421.597 226.89 421.32C226.591 421.043 226.207 420.904 225.738 420.904V420.296L226.922 419.784H231.194V420.904H227.946L227.93 420.968C228.164 421.128 228.362 421.373 228.522 421.704C228.692 422.024 228.778 422.445 228.778 422.968V425.832H227.354ZM229.098 433.16C228.81 433.16 228.532 433.112 228.266 433.016C227.999 432.92 227.78 432.749 227.61 432.504C227.439 432.259 227.354 431.917 227.354 431.48V424.232H228.778V431.304C228.778 431.549 228.831 431.725 228.938 431.832C229.044 431.939 229.215 431.992 229.45 431.992C229.546 431.992 229.647 431.981 229.754 431.96C229.86 431.939 229.962 431.912 230.058 431.88L230.25 432.92C230.047 433.016 229.85 433.08 229.658 433.112C229.466 433.144 229.279 433.16 229.098 433.16ZM235.16 433.16C233.901 433.16 233 432.872 232.456 432.296C231.912 431.72 231.64 430.899 231.64 429.832V424.232H233.064V429.848C233.064 430.563 233.234 431.096 233.576 431.448C233.917 431.8 234.445 431.976 235.16 431.976C235.885 431.976 236.418 431.8 236.76 431.448C237.112 431.096 237.288 430.563 237.288 429.848V421.08H238.712V429.832C238.712 430.899 238.434 431.72 237.88 432.296C237.336 432.872 236.429 433.16 235.16 433.16ZM243.791 433.16C243.162 433.16 242.575 433.101 242.031 432.984C241.498 432.856 241.045 432.707 240.671 432.536L241.087 431.384C241.311 431.469 241.567 431.56 241.855 431.656C242.143 431.752 242.453 431.832 242.783 431.896C243.125 431.949 243.471 431.976 243.823 431.976C244.389 431.976 244.858 431.869 245.231 431.656C245.605 431.443 245.791 431.133 245.791 430.728C245.791 430.483 245.722 430.275 245.583 430.104C245.455 429.923 245.253 429.757 244.975 429.608C244.698 429.459 244.341 429.315 243.903 429.176C243.231 428.963 242.661 428.739 242.191 428.504C241.733 428.259 241.381 427.971 241.135 427.64C240.901 427.299 240.783 426.877 240.783 426.376C240.783 425.928 240.901 425.533 241.135 425.192C241.381 424.84 241.754 424.568 242.255 424.376C242.767 424.173 243.418 424.072 244.207 424.072C244.719 424.072 245.199 424.12 245.647 424.216C246.106 424.301 246.463 424.424 246.719 424.584V425.784C246.538 425.699 246.309 425.613 246.031 425.528C245.765 425.443 245.471 425.373 245.151 425.32C244.831 425.267 244.501 425.24 244.159 425.24C243.445 425.24 242.938 425.352 242.639 425.576C242.351 425.789 242.207 426.035 242.207 426.312C242.207 426.547 242.271 426.744 242.399 426.904C242.538 427.064 242.767 427.219 243.087 427.368C243.418 427.517 243.861 427.688 244.415 427.88C244.927 428.051 245.397 428.248 245.823 428.472C246.25 428.696 246.586 428.979 246.831 429.32C247.087 429.651 247.215 430.077 247.215 430.6C247.215 431.048 247.103 431.469 246.879 431.864C246.666 432.248 246.309 432.563 245.807 432.808C245.306 433.043 244.634 433.16 243.791 433.16ZM252.132 433.16C251.278 433.16 250.606 432.963 250.116 432.568C249.636 432.163 249.294 431.619 249.092 430.936C248.9 430.253 248.804 429.501 248.804 428.68C248.804 427.773 248.894 427.027 249.076 426.44C249.268 425.843 249.534 425.373 249.876 425.032C250.228 424.68 250.644 424.435 251.124 424.296C251.614 424.147 252.153 424.072 252.74 424.072C253.593 424.072 254.286 424.2 254.82 424.456C255.364 424.701 255.764 425.053 256.02 425.512C256.276 425.971 256.404 426.52 256.404 427.16V433H254.996V427.288C254.996 426.627 254.83 426.125 254.5 425.784C254.169 425.432 253.598 425.256 252.788 425.256C252.297 425.256 251.854 425.347 251.46 425.528C251.076 425.709 250.772 426.045 250.548 426.536C250.334 427.027 250.228 427.747 250.228 428.696C250.228 429.315 250.286 429.875 250.404 430.376C250.532 430.867 250.75 431.256 251.06 431.544C251.369 431.832 251.801 431.976 252.356 431.976C252.516 431.976 252.665 431.965 252.804 431.944C252.942 431.923 253.076 431.891 253.204 431.848L253.348 432.952C253.177 433.027 252.98 433.08 252.756 433.112C252.542 433.144 252.334 433.16 252.132 433.16ZM260.983 433.16C260.695 433.16 260.418 433.112 260.151 433.016C259.884 432.92 259.666 432.749 259.495 432.504C259.324 432.259 259.239 431.917 259.239 431.48V424.232H260.663V431.304C260.663 431.549 260.716 431.725 260.823 431.832C260.93 431.939 261.1 431.992 261.335 431.992C261.431 431.992 261.532 431.981 261.639 431.96C261.746 431.939 261.847 431.912 261.943 431.88L262.135 432.92C261.932 433.016 261.735 433.08 261.543 433.112C261.351 433.144 261.164 433.16 260.983 433.16ZM265.351 433.16C265.063 433.16 264.786 433.112 264.519 433.016C264.252 432.92 264.034 432.749 263.863 432.504C263.692 432.259 263.607 431.917 263.607 431.48V424.232H265.031V431.304C265.031 431.549 265.084 431.725 265.191 431.832C265.298 431.939 265.468 431.992 265.703 431.992C265.799 431.992 265.9 431.981 266.007 431.96C266.114 431.939 266.215 431.912 266.311 431.88L266.503 432.92C266.3 433.016 266.103 433.08 265.911 433.112C265.719 433.144 265.532 433.16 265.351 433.16ZM268.013 433V429.96C268.013 429.288 268.162 428.803 268.461 428.504C268.76 428.195 269.138 427.981 269.597 427.864L269.613 427.816L267.853 427.144V426.616C267.853 426.179 267.997 425.768 268.285 425.384C268.573 424.989 268.984 424.675 269.517 424.44C270.061 424.195 270.706 424.072 271.453 424.072C272.104 424.072 272.706 424.179 273.261 424.392C273.816 424.595 274.258 424.92 274.589 425.368C274.93 425.805 275.101 426.381 275.101 427.096V433H273.677V427.24C273.677 426.525 273.458 426.019 273.021 425.72C272.594 425.411 272.066 425.256 271.437 425.256C270.786 425.256 270.269 425.395 269.885 425.672C269.501 425.939 269.309 426.28 269.309 426.696L271.037 427.56L270.909 428.328C270.514 428.328 270.168 428.461 269.869 428.728C269.581 428.984 269.437 429.395 269.437 429.96V433H268.013ZM270.471 422.84V422.136C270.685 422.093 270.903 422.035 271.127 421.96C271.351 421.875 271.538 421.768 271.687 421.64C271.837 421.501 271.911 421.336 271.911 421.144C271.911 421.016 271.874 420.909 271.799 420.824C271.714 420.728 271.586 420.68 271.415 420.68C271.309 420.68 271.202 420.701 271.095 420.744C270.978 420.787 270.877 420.824 270.791 420.856L270.471 419.976C270.685 419.805 270.925 419.693 271.191 419.64C271.447 419.587 271.655 419.56 271.815 419.56C272.242 419.56 272.578 419.677 272.823 419.912C273.058 420.147 273.175 420.445 273.175 420.808C273.175 421.107 273.101 421.368 272.951 421.592C272.791 421.805 272.61 421.976 272.407 422.104L272.247 421.72H275.431V422.84H270.471ZM278.151 425.832V422.968C278.151 422.563 278.188 422.237 278.263 421.992C278.337 421.736 278.439 421.528 278.567 421.368C278.695 421.208 278.833 421.075 278.983 420.968L278.967 420.904H276.183L276.551 419.784H281.063V420.904C280.668 420.904 280.321 421.032 280.023 421.288C279.724 421.544 279.575 422.013 279.575 422.696V425.832H278.151ZM279.895 433.16C279.607 433.16 279.329 433.112 279.063 433.016C278.796 432.92 278.577 432.749 278.407 432.504C278.236 432.259 278.151 431.917 278.151 431.48V424.232H279.575V431.304C279.575 431.549 279.628 431.725 279.735 431.832C279.841 431.939 280.012 431.992 280.247 431.992C280.343 431.992 280.444 431.981 280.551 431.96C280.657 431.939 280.759 431.912 280.855 431.88L281.047 432.92C280.844 433.016 280.647 433.08 280.455 433.112C280.263 433.144 280.076 433.16 279.895 433.16ZM285.447 433.16C284.444 433.16 283.665 432.92 283.111 432.44C282.567 431.949 282.295 431.219 282.295 430.248V429.272C282.295 428.739 282.369 428.317 282.519 428.008C282.668 427.699 282.828 427.432 282.999 427.208C283.18 426.963 283.335 426.749 283.463 426.568C283.601 426.387 283.671 426.168 283.671 425.912C283.671 425.688 283.612 425.528 283.495 425.432C283.388 425.336 283.249 425.288 283.079 425.288C282.951 425.288 282.812 425.309 282.663 425.352C282.524 425.395 282.385 425.448 282.247 425.512L281.927 424.488C282.119 424.36 282.353 424.269 282.631 424.216C282.919 424.163 283.169 424.136 283.383 424.136C283.777 424.136 284.092 424.205 284.327 424.344C284.572 424.483 284.748 424.675 284.855 424.92C284.961 425.155 285.015 425.432 285.015 425.752C285.015 426.147 284.945 426.472 284.807 426.728C284.679 426.984 284.524 427.235 284.343 427.48C284.161 427.747 284.012 428.003 283.895 428.248C283.777 428.493 283.719 428.813 283.719 429.208V430.152C283.719 430.643 283.799 431.021 283.959 431.288C284.119 431.555 284.332 431.741 284.599 431.848C284.865 431.944 285.148 431.992 285.447 431.992C285.98 431.992 286.385 431.869 286.663 431.624C286.951 431.368 287.095 430.979 287.095 430.456V424.232H288.519V430.536C288.519 431.357 288.257 432.003 287.735 432.472C287.223 432.931 286.46 433.16 285.447 433.16ZM294.197 433.16C293.194 433.16 292.415 432.92 291.861 432.44C291.317 431.949 291.045 431.219 291.045 430.248V429.272C291.045 428.739 291.119 428.317 291.269 428.008C291.418 427.699 291.578 427.432 291.749 427.208C291.93 426.963 292.085 426.749 292.213 426.568C292.351 426.387 292.421 426.168 292.421 425.912C292.421 425.688 292.362 425.528 292.245 425.432C292.138 425.336 291.999 425.288 291.829 425.288C291.701 425.288 291.562 425.309 291.413 425.352C291.274 425.395 291.135 425.448 290.997 425.512L290.677 424.488C290.869 424.36 291.103 424.269 291.381 424.216C291.669 424.163 291.919 424.136 292.133 424.136C292.527 424.136 292.842 424.205 293.077 424.344C293.322 424.483 293.498 424.675 293.605 424.92C293.711 425.155 293.765 425.432 293.765 425.752C293.765 426.147 293.695 426.472 293.557 426.728C293.429 426.984 293.274 427.235 293.093 427.48C292.911 427.747 292.762 428.003 292.645 428.248C292.527 428.493 292.469 428.813 292.469 429.208V430.152C292.469 430.643 292.549 431.021 292.709 431.288C292.869 431.555 293.082 431.741 293.349 431.848C293.615 431.944 293.898 431.992 294.197 431.992C294.73 431.992 295.135 431.869 295.413 431.624C295.701 431.368 295.845 430.979 295.845 430.456V424.232H297.269V430.536C297.269 431.357 297.007 432.003 296.485 432.472C295.973 432.931 295.21 433.16 294.197 433.16ZM292.784 422.84V422.136C292.997 422.093 293.216 422.035 293.44 421.96C293.664 421.875 293.851 421.768 294 421.64C294.149 421.501 294.224 421.336 294.224 421.144C294.224 421.016 294.187 420.909 294.112 420.824C294.027 420.728 293.899 420.68 293.728 420.68C293.621 420.68 293.515 420.701 293.408 420.744C293.291 420.787 293.189 420.824 293.104 420.856L292.784 419.976C292.997 419.805 293.237 419.693 293.504 419.64C293.76 419.587 293.968 419.56 294.128 419.56C294.555 419.56 294.891 419.677 295.136 419.912C295.371 420.147 295.488 420.445 295.488 420.808C295.488 421.107 295.413 421.368 295.264 421.592C295.104 421.805 294.923 421.976 294.72 422.104L294.56 421.72H297.744V422.84H292.784ZM302.963 433.16C301.811 433.16 300.947 432.861 300.371 432.264C299.805 431.656 299.523 430.707 299.523 429.416C299.523 429.203 299.528 428.973 299.539 428.728C299.56 428.472 299.581 428.221 299.603 427.976H302.963V429.096H300.947V429.416C300.947 430.088 301.021 430.616 301.171 431C301.32 431.373 301.539 431.635 301.827 431.784C302.125 431.933 302.493 432.008 302.931 432.008C303.411 432.008 303.827 431.917 304.179 431.736C304.531 431.555 304.803 431.224 304.995 430.744C305.187 430.264 305.283 429.576 305.283 428.68C305.283 427.891 305.197 427.245 305.027 426.744C304.856 426.243 304.573 425.869 304.179 425.624C303.795 425.379 303.272 425.256 302.611 425.256C302.269 425.256 301.939 425.288 301.619 425.352C301.299 425.405 300.989 425.491 300.691 425.608C300.392 425.715 300.099 425.853 299.811 426.024V424.696C300.024 424.579 300.285 424.477 300.595 424.392C300.904 424.296 301.245 424.221 301.619 424.168C301.992 424.104 302.381 424.072 302.786 424.072C303.725 424.072 304.483 424.264 305.059 424.648C305.645 425.021 306.072 425.555 306.339 426.248C306.605 426.931 306.739 427.741 306.739 428.68C306.739 429.619 306.616 430.424 306.371 431.096C306.125 431.768 305.725 432.28 305.171 432.632C304.627 432.984 303.891 433.16 302.963 433.16ZM313.27 433.16C312.587 433.16 311.995 433.027 311.494 432.76C311.003 432.483 310.667 432.099 310.486 431.608H310.422L310.342 433H309.174V424.232H310.598V429.304C310.598 429.837 310.689 430.307 310.87 430.712C311.062 431.107 311.334 431.416 311.686 431.64C312.049 431.853 312.481 431.96 312.982 431.96C313.611 431.96 314.081 431.795 314.39 431.464C314.699 431.133 314.854 430.648 314.854 430.008V424.232H316.278V430.104C316.278 430.808 316.155 431.384 315.91 431.832C315.675 432.28 315.334 432.616 314.886 432.84C314.438 433.053 313.899 433.16 313.27 433.16ZM313.84 437.24C313.157 437.24 312.64 437.101 312.288 436.824C311.925 436.557 311.744 436.173 311.744 435.672V435.4C311.744 435.219 311.701 435.107 311.616 435.064C311.52 435.032 311.392 435.037 311.232 435.08L311.136 434.12C311.285 434.077 311.434 434.051 311.584 434.04C311.722 434.029 311.829 434.024 311.904 434.024C312.288 434.024 312.565 434.109 312.736 434.28C312.896 434.451 312.976 434.691 312.976 435V435.544C312.976 435.747 313.04 435.917 313.168 436.056C313.296 436.195 313.514 436.264 313.824 436.264C314.144 436.264 314.368 436.195 314.496 436.056C314.613 435.917 314.672 435.747 314.672 435.544V434.072H315.92V435.624C315.92 436.147 315.744 436.547 315.392 436.824C315.04 437.101 314.522 437.24 313.84 437.24ZM324.01 433V427.16C324.01 426.467 323.85 425.976 323.53 425.688C323.221 425.389 322.698 425.24 321.962 425.24C321.429 425.24 320.917 425.315 320.426 425.464C319.946 425.603 319.487 425.8 319.05 426.056V424.728C319.359 424.568 319.775 424.419 320.298 424.28C320.831 424.141 321.429 424.072 322.09 424.072C322.655 424.072 323.146 424.136 323.562 424.264C323.978 424.381 324.319 424.563 324.586 424.808C324.863 425.053 325.071 425.368 325.21 425.752C325.349 426.125 325.418 426.568 325.418 427.08V433H324.01ZM321.258 433.16C320.319 433.16 319.599 432.947 319.098 432.52C318.607 432.083 318.362 431.459 318.362 430.648C318.362 429.763 318.682 429.08 319.322 428.6C319.973 428.12 321.023 427.837 322.474 427.752L324.298 427.64V428.824L322.666 428.936C321.578 429.011 320.826 429.181 320.41 429.448C320.005 429.715 319.802 430.104 319.802 430.616C319.802 431.096 319.951 431.448 320.25 431.672C320.559 431.896 320.986 432.008 321.53 432.008C321.711 432.008 321.877 431.997 322.026 431.976C322.175 431.944 322.319 431.907 322.458 431.864L322.682 432.936C322.479 433.011 322.255 433.064 322.01 433.096C321.775 433.139 321.525 433.16 321.258 433.16Z" fill="black"/>
<rect x="73" y="455" width="125" height="30" rx="4" fill="#E1E3E3"/>
<path d="M85.412 474V471.72C85.412 471.216 85.524 470.852 85.748 470.628C85.972 470.396 86.256 470.236 86.6 470.148L86.612 470.112L85.292 469.608V469.212C85.292 468.884 85.4 468.576 85.616 468.288C85.832 467.992 86.14 467.756 86.54 467.58C86.948 467.396 87.432 467.304 87.992 467.304C88.48 467.304 88.932 467.384 89.348 467.544C89.764 467.696 90.096 467.94 90.344 468.276C90.6 468.604 90.728 469.036 90.728 469.572V474H89.66V469.68C89.66 469.144 89.496 468.764 89.168 468.54C88.848 468.308 88.452 468.192 87.98 468.192C87.492 468.192 87.104 468.296 86.816 468.504C86.528 468.704 86.384 468.96 86.384 469.272L87.68 469.92L87.584 470.496C87.288 470.496 87.028 470.596 86.804 470.796C86.588 470.988 86.48 471.296 86.48 471.72V474H85.412ZM96.5193 474V469.62C96.5193 469.1 96.3993 468.732 96.1593 468.516C95.9273 468.292 95.5353 468.18 94.9833 468.18C94.5833 468.18 94.1993 468.236 93.8313 468.348C93.4713 468.452 93.1273 468.6 92.7993 468.792V467.796C93.0313 467.676 93.3433 467.564 93.7353 467.46C94.1353 467.356 94.5833 467.304 95.0793 467.304C95.5033 467.304 95.8713 467.352 96.1833 467.448C96.4953 467.536 96.7513 467.672 96.9513 467.856C97.1593 468.04 97.3153 468.276 97.4193 468.564C97.5233 468.844 97.5753 469.176 97.5753 469.56V474H96.5193ZM94.4553 474.12C93.7513 474.12 93.2113 473.96 92.8353 473.64C92.4673 473.312 92.2833 472.844 92.2833 472.236C92.2833 471.572 92.5233 471.06 93.0033 470.7C93.4913 470.34 94.2793 470.128 95.3673 470.064L96.7353 469.98V470.868L95.5113 470.952C94.6953 471.008 94.1313 471.136 93.8193 471.336C93.5153 471.536 93.3633 471.828 93.3633 472.212C93.3633 472.572 93.4753 472.836 93.6993 473.004C93.9313 473.172 94.2513 473.256 94.6593 473.256C94.7953 473.256 94.9193 473.248 95.0313 473.232C95.1433 473.208 95.2513 473.18 95.3553 473.148L95.5233 473.952C95.3713 474.008 95.2033 474.048 95.0193 474.072C94.8433 474.104 94.6553 474.12 94.4553 474.12ZM95.8767 466.38C95.5407 466.38 95.2727 466.332 95.0727 466.236C94.8727 466.14 94.7287 466.016 94.6407 465.864C94.5447 465.712 94.4967 465.552 94.4967 465.384C94.4967 465.264 94.5167 465.136 94.5567 465C94.5887 464.856 94.6327 464.74 94.6887 464.652L95.5887 464.808C95.5727 464.84 95.5567 464.896 95.5407 464.976C95.5247 465.048 95.5167 465.116 95.5167 465.18C95.5167 465.284 95.5487 465.376 95.6127 465.456C95.6767 465.528 95.7847 465.564 95.9367 465.564H98.9728V466.38H95.8767ZM102.163 474.12C101.219 474.12 100.543 473.904 100.135 473.472C99.7268 473.04 99.5228 472.424 99.5228 471.624V467.424H100.591V471.636C100.591 472.172 100.719 472.572 100.975 472.836C101.231 473.1 101.627 473.232 102.163 473.232C102.707 473.232 103.107 473.1 103.363 472.836C103.627 472.572 103.759 472.172 103.759 471.636V467.424H104.827V471.624C104.827 472.424 104.619 473.04 104.203 473.472C103.795 473.904 103.115 474.12 102.163 474.12ZM107.113 468.624V466.476C107.113 466.172 107.141 465.928 107.197 465.744C107.253 465.552 107.329 465.396 107.425 465.276C107.521 465.156 107.625 465.056 107.737 464.976L107.725 464.928H105.637L105.913 464.088H109.297V464.928C109.001 464.928 108.741 465.024 108.517 465.216C108.293 465.408 108.181 465.76 108.181 466.272V468.624H107.113ZM108.421 474.12C108.205 474.12 107.997 474.084 107.797 474.012C107.597 473.94 107.433 473.812 107.305 473.628C107.177 473.444 107.113 473.188 107.113 472.86V467.424H108.181V472.728C108.181 472.912 108.221 473.044 108.301 473.124C108.381 473.204 108.509 473.244 108.685 473.244C108.757 473.244 108.833 473.236 108.913 473.22C108.993 473.204 109.069 473.184 109.141 473.16L109.285 473.94C109.133 474.012 108.985 474.06 108.841 474.084C108.697 474.108 108.557 474.12 108.421 474.12ZM112.921 474.12C111.977 474.12 111.301 473.904 110.893 473.472C110.485 473.04 110.281 472.424 110.281 471.624V467.424H111.349V471.636C111.349 472.172 111.477 472.572 111.733 472.836C111.989 473.1 112.385 473.232 112.921 473.232C113.465 473.232 113.865 473.1 114.121 472.836C114.385 472.572 114.517 472.172 114.517 471.636V465.06H115.585V471.624C115.585 472.424 115.377 473.04 114.961 473.472C114.553 473.904 113.873 474.12 112.921 474.12ZM117.894 468.624V466.272C117.894 465.792 117.778 465.448 117.546 465.24C117.322 465.032 117.034 464.928 116.682 464.928V464.472L117.57 464.088H120.774V464.928H118.338L118.326 464.976C118.502 465.096 118.65 465.28 118.77 465.528C118.898 465.768 118.962 466.084 118.962 466.476V468.624H117.894ZM119.202 474.12C118.986 474.12 118.778 474.084 118.578 474.012C118.378 473.94 118.214 473.812 118.086 473.628C117.958 473.444 117.894 473.188 117.894 472.86V467.424H118.962V472.728C118.962 472.912 119.002 473.044 119.082 473.124C119.162 473.204 119.29 473.244 119.466 473.244C119.538 473.244 119.614 473.236 119.694 473.22C119.774 473.204 119.85 473.184 119.922 473.16L120.066 473.94C119.914 474.012 119.766 474.06 119.622 474.084C119.478 474.108 119.338 474.12 119.202 474.12ZM123.749 474.12C122.805 474.12 122.129 473.904 121.721 473.472C121.313 473.04 121.109 472.424 121.109 471.624V467.424H122.177V471.636C122.177 472.172 122.305 472.572 122.561 472.836C122.817 473.1 123.213 473.232 123.749 473.232C124.293 473.232 124.693 473.1 124.949 472.836C125.213 472.572 125.345 472.172 125.345 471.636V465.06H126.413V471.624C126.413 472.424 126.205 473.04 125.789 473.472C125.381 473.904 124.701 474.12 123.749 474.12ZM130.222 474.12C129.75 474.12 129.31 474.076 128.902 473.988C128.502 473.892 128.162 473.78 127.882 473.652L128.194 472.788C128.362 472.852 128.554 472.92 128.77 472.992C128.986 473.064 129.218 473.124 129.466 473.172C129.722 473.212 129.982 473.232 130.246 473.232C130.67 473.232 131.022 473.152 131.302 472.992C131.582 472.832 131.722 472.6 131.722 472.296C131.722 472.112 131.67 471.956 131.566 471.828C131.47 471.692 131.318 471.568 131.11 471.456C130.902 471.344 130.634 471.236 130.306 471.132C129.802 470.972 129.374 470.804 129.022 470.628C128.678 470.444 128.414 470.228 128.23 469.98C128.054 469.724 127.966 469.408 127.966 469.032C127.966 468.696 128.054 468.4 128.23 468.144C128.414 467.88 128.694 467.676 129.07 467.532C129.454 467.38 129.942 467.304 130.534 467.304C130.918 467.304 131.278 467.34 131.614 467.412C131.958 467.476 132.226 467.568 132.418 467.688V468.588C132.282 468.524 132.11 468.46 131.902 468.396C131.702 468.332 131.482 468.28 131.242 468.24C131.002 468.2 130.754 468.18 130.498 468.18C129.962 468.18 129.582 468.264 129.358 468.432C129.142 468.592 129.034 468.776 129.034 468.984C129.034 469.16 129.082 469.308 129.178 469.428C129.282 469.548 129.454 469.664 129.694 469.776C129.942 469.888 130.274 470.016 130.69 470.16C131.074 470.288 131.426 470.436 131.746 470.604C132.066 470.772 132.318 470.984 132.502 471.24C132.694 471.488 132.79 471.808 132.79 472.2C132.79 472.536 132.706 472.852 132.538 473.148C132.378 473.436 132.11 473.672 131.734 473.856C131.358 474.032 130.854 474.12 130.222 474.12ZM134.582 468.624V466.476C134.582 466.172 134.61 465.928 134.666 465.744C134.722 465.552 134.798 465.396 134.894 465.276C134.99 465.156 135.094 465.056 135.206 464.976L135.194 464.928H133.106L133.382 464.088H136.766V464.928C136.47 464.928 136.21 465.024 135.986 465.216C135.762 465.408 135.65 465.76 135.65 466.272V468.624H134.582ZM135.89 474.12C135.674 474.12 135.466 474.084 135.266 474.012C135.066 473.94 134.902 473.812 134.774 473.628C134.646 473.444 134.582 473.188 134.582 472.86V467.424H135.65V472.728C135.65 472.912 135.69 473.044 135.77 473.124C135.85 473.204 135.978 473.244 136.154 473.244C136.226 473.244 136.302 473.236 136.382 473.22C136.462 473.204 136.538 473.184 136.61 473.16L136.754 473.94C136.602 474.012 136.454 474.06 136.31 474.084C136.166 474.108 136.026 474.12 135.89 474.12ZM138.316 474L137.176 467.424H138.268L138.688 470.28C138.704 470.352 138.724 470.508 138.748 470.748C138.772 470.988 138.8 471.264 138.832 471.576C138.872 471.888 138.908 472.192 138.94 472.488H139C139.04 472.264 139.088 472.036 139.144 471.804C139.2 471.564 139.26 471.316 139.324 471.06C139.396 470.796 139.472 470.524 139.552 470.244L140.368 467.424H141.232L142.048 470.244C142.128 470.524 142.2 470.796 142.264 471.06C142.336 471.316 142.4 471.564 142.456 471.804C142.512 472.036 142.56 472.264 142.6 472.488H142.648C142.68 472.16 142.708 471.86 142.732 471.588C142.764 471.316 142.792 471.068 142.816 470.844C142.84 470.62 142.86 470.432 142.876 470.28L143.56 465.06H144.616L143.296 474H142.24L141.148 470.424C141.092 470.256 141.04 470.056 140.992 469.824C140.944 469.592 140.892 469.3 140.836 468.948H140.788C140.748 469.18 140.708 469.384 140.668 469.56C140.636 469.736 140.6 469.892 140.56 470.028C140.528 470.164 140.492 470.296 140.452 470.424L139.36 474H138.316ZM149.687 474V469.62C149.687 469.1 149.567 468.732 149.327 468.516C149.095 468.292 148.703 468.18 148.151 468.18C147.751 468.18 147.367 468.236 146.999 468.348C146.639 468.452 146.295 468.6 145.967 468.792V467.796C146.199 467.676 146.511 467.564 146.903 467.46C147.303 467.356 147.751 467.304 148.247 467.304C148.671 467.304 149.039 467.352 149.351 467.448C149.663 467.536 149.919 467.672 150.119 467.856C150.327 468.04 150.483 468.276 150.587 468.564C150.691 468.844 150.743 469.176 150.743 469.56V474H149.687ZM147.623 474.12C146.919 474.12 146.379 473.96 146.003 473.64C145.635 473.312 145.451 472.844 145.451 472.236C145.451 471.572 145.691 471.06 146.171 470.7C146.659 470.34 147.447 470.128 148.535 470.064L149.903 469.98V470.868L148.679 470.952C147.863 471.008 147.299 471.136 146.987 471.336C146.683 471.536 146.531 471.828 146.531 472.212C146.531 472.572 146.643 472.836 146.867 473.004C147.099 473.172 147.419 473.256 147.827 473.256C147.963 473.256 148.087 473.248 148.199 473.232C148.311 473.208 148.419 473.18 148.523 473.148L148.691 473.952C148.539 474.008 148.371 474.048 148.187 474.072C148.011 474.104 147.823 474.12 147.623 474.12ZM148.601 466.728C148.545 466.64 148.501 466.528 148.469 466.392C148.429 466.248 148.409 466.108 148.409 465.972C148.409 465.804 148.445 465.648 148.517 465.504C148.589 465.352 148.717 465.228 148.901 465.132C149.085 465.036 149.341 464.988 149.669 464.988H151.313V465.816H149.945C149.785 465.816 149.657 465.848 149.561 465.912C149.465 465.968 149.417 466.068 149.417 466.212C149.417 466.268 149.429 466.328 149.453 466.392C149.469 466.456 149.493 466.52 149.525 466.584L148.601 466.728ZM155.007 474.12C154.255 474.12 153.671 473.94 153.255 473.58C152.847 473.212 152.643 472.664 152.643 471.936V471.204C152.643 470.804 152.699 470.488 152.811 470.256C152.923 470.024 153.043 469.824 153.171 469.656C153.307 469.472 153.423 469.312 153.519 469.176C153.623 469.04 153.675 468.876 153.675 468.684C153.675 468.516 153.631 468.396 153.543 468.324C153.463 468.252 153.359 468.216 153.231 468.216C153.135 468.216 153.031 468.232 152.919 468.264C152.815 468.296 152.711 468.336 152.607 468.384L152.367 467.616C152.511 467.52 152.687 467.452 152.895 467.412C153.111 467.372 153.299 467.352 153.459 467.352C153.755 467.352 153.991 467.404 154.167 467.508C154.351 467.612 154.483 467.756 154.563 467.94C154.643 468.116 154.683 468.324 154.683 468.564C154.683 468.86 154.631 469.104 154.527 469.296C154.431 469.488 154.315 469.676 154.179 469.86C154.043 470.06 153.931 470.252 153.843 470.436C153.755 470.62 153.711 470.86 153.711 471.156V471.864C153.711 472.232 153.771 472.516 153.891 472.716C154.011 472.916 154.171 473.056 154.371 473.136C154.571 473.208 154.783 473.244 155.007 473.244C155.407 473.244 155.711 473.152 155.919 472.968C156.135 472.776 156.243 472.484 156.243 472.092V467.424H157.311V472.152C157.311 472.768 157.115 473.252 156.723 473.604C156.339 473.948 155.767 474.12 155.007 474.12ZM161.581 474.12C160.717 474.12 160.069 473.896 159.637 473.448C159.213 472.992 159.001 472.28 159.001 471.312C159.001 471.152 159.005 470.98 159.013 470.796C159.029 470.604 159.045 470.416 159.061 470.232H161.581V471.072H160.069V471.312C160.069 471.816 160.125 472.212 160.237 472.5C160.349 472.78 160.513 472.976 160.729 473.088C160.953 473.2 161.229 473.256 161.557 473.256C161.917 473.256 162.229 473.188 162.493 473.052C162.757 472.916 162.961 472.668 163.105 472.308C163.249 471.948 163.321 471.432 163.321 470.76C163.321 470.168 163.257 469.684 163.129 469.308C163.001 468.932 162.789 468.652 162.493 468.468C162.205 468.284 161.813 468.192 161.317 468.192C161.061 468.192 160.813 468.216 160.573 468.264C160.333 468.304 160.101 468.368 159.877 468.456C159.653 468.536 159.433 468.64 159.217 468.768V467.772C159.377 467.684 159.573 467.608 159.805 467.544C160.037 467.472 160.293 467.416 160.573 467.376C160.853 467.328 161.145 467.304 161.449 467.304C162.153 467.304 162.721 467.448 163.153 467.736C163.593 468.016 163.913 468.416 164.113 468.936C164.313 469.448 164.413 470.056 164.413 470.76C164.413 471.464 164.321 472.068 164.137 472.572C163.953 473.076 163.653 473.46 163.237 473.724C162.829 473.988 162.277 474.12 161.581 474.12ZM167.224 474L165.172 467.424H166.252L168.028 473.076H168.172C168.364 473.076 168.552 473.032 168.736 472.944C168.92 472.848 169.076 472.728 169.204 472.584C169.444 472.32 169.62 471.988 169.732 471.588C169.844 471.18 169.9 470.78 169.9 470.388C169.9 469.724 169.748 469.204 169.444 468.828C169.148 468.444 168.736 468.252 168.208 468.252C168.104 468.252 168 468.26 167.896 468.276C167.8 468.292 167.72 468.312 167.656 468.336L167.392 467.484C167.56 467.436 167.716 467.404 167.86 467.388C168.012 467.372 168.148 467.364 168.268 467.364C168.668 467.364 169.024 467.424 169.336 467.544C169.656 467.656 169.928 467.824 170.152 468.048C170.432 468.32 170.636 468.66 170.764 469.068C170.9 469.476 170.968 469.928 170.968 470.424C170.968 471.048 170.872 471.604 170.68 472.092C170.488 472.572 170.248 472.956 169.96 473.244C169.728 473.476 169.444 473.66 169.108 473.796C168.772 473.932 168.344 474 167.824 474H167.224ZM174.797 474.12C174.349 474.12 173.957 474.044 173.621 473.892C173.293 473.732 173.037 473.492 172.853 473.172C172.677 472.844 172.589 472.424 172.589 471.912V470.244H173.645V471.828C173.645 472.268 173.761 472.612 173.993 472.86C174.225 473.1 174.573 473.22 175.037 473.22C175.605 473.22 176.045 473.044 176.357 472.692C176.669 472.332 176.825 471.86 176.825 471.276V470.196C176.825 469.668 176.745 469.26 176.585 468.972C176.433 468.684 176.213 468.484 175.925 468.372C175.637 468.252 175.289 468.192 174.881 468.192C174.497 468.192 174.121 468.24 173.753 468.336C173.393 468.432 173.041 468.588 172.697 468.804V467.808C172.929 467.672 173.249 467.556 173.657 467.46C174.073 467.356 174.525 467.304 175.013 467.304C175.693 467.304 176.245 467.412 176.669 467.628C177.093 467.844 177.401 468.16 177.593 468.576C177.793 468.992 177.893 469.508 177.893 470.124V474H177.017L176.957 473.028H176.909C176.773 473.348 176.521 473.612 176.153 473.82C175.793 474.02 175.341 474.12 174.797 474.12ZM176.244 466.38C175.908 466.38 175.64 466.332 175.44 466.236C175.24 466.14 175.096 466.016 175.008 465.864C174.912 465.712 174.864 465.552 174.864 465.384C174.864 465.264 174.884 465.136 174.924 465C174.956 464.856 175 464.74 175.056 464.652L175.956 464.808C175.94 464.84 175.924 464.896 175.908 464.976C175.892 465.048 175.884 465.116 175.884 465.18C175.884 465.284 175.916 465.376 175.98 465.456C176.044 465.528 176.152 465.564 176.304 465.564H179.34V466.38H176.244ZM182.099 474.12C181.627 474.12 181.219 474.04 180.875 473.88C180.539 473.712 180.279 473.46 180.095 473.124C179.919 472.788 179.831 472.352 179.831 471.816V467.424H180.899V471.756C180.899 472.236 181.019 472.6 181.259 472.848C181.507 473.096 181.863 473.22 182.327 473.22C182.887 473.22 183.319 473.04 183.623 472.68C183.935 472.32 184.091 471.836 184.091 471.228V467.424H185.159V474H184.271L184.223 473.028H184.163C184.019 473.348 183.767 473.612 183.407 473.82C183.055 474.02 182.619 474.12 182.099 474.12Z" fill="#1D3853"/>
<rect x="214" y="455" width="125" height="30" rx="4" fill="#FDCC0D" fill-opacity="0.6"/>
<path d="M237.46 474.12C237.244 474.12 237.036 474.084 236.836 474.012C236.636 473.94 236.472 473.812 236.344 473.628C236.216 473.444 236.152 473.188 236.152 472.86V467.424H237.22V472.728C237.22 472.912 237.26 473.044 237.34 473.124C237.42 473.204 237.548 473.244 237.724 473.244C237.796 473.244 237.872 473.236 237.952 473.22C238.032 473.204 238.108 473.184 238.18 473.16L238.324 473.94C238.172 474.012 238.024 474.06 237.88 474.084C237.736 474.108 237.596 474.12 237.46 474.12ZM240.736 474.12C240.52 474.12 240.312 474.084 240.112 474.012C239.912 473.94 239.748 473.812 239.62 473.628C239.492 473.444 239.428 473.188 239.428 472.86V467.424H240.496V472.728C240.496 472.912 240.536 473.044 240.616 473.124C240.696 473.204 240.824 473.244 241 473.244C241.072 473.244 241.148 473.236 241.228 473.22C241.308 473.204 241.384 473.184 241.456 473.16L241.6 473.94C241.448 474.012 241.3 474.06 241.156 474.084C241.012 474.108 240.872 474.12 240.736 474.12ZM242.732 474V471.72C242.732 471.216 242.844 470.852 243.068 470.628C243.292 470.396 243.576 470.236 243.92 470.148L243.932 470.112L242.612 469.608V469.212C242.612 468.884 242.72 468.576 242.936 468.288C243.152 467.992 243.46 467.756 243.86 467.58C244.268 467.396 244.752 467.304 245.312 467.304C245.8 467.304 246.252 467.384 246.668 467.544C247.084 467.696 247.416 467.94 247.664 468.276C247.92 468.604 248.048 469.036 248.048 469.572V474H246.98V469.68C246.98 469.144 246.816 468.764 246.488 468.54C246.168 468.308 245.772 468.192 245.3 468.192C244.812 468.192 244.424 468.296 244.136 468.504C243.848 468.704 243.704 468.96 243.704 469.272L245 469.92L244.904 470.496C244.608 470.496 244.348 470.596 244.124 470.796C243.908 470.988 243.8 471.296 243.8 471.72V474H242.732ZM244.576 466.38V465.852C244.736 465.82 244.9 465.776 245.068 465.72C245.236 465.656 245.376 465.576 245.488 465.48C245.6 465.376 245.656 465.252 245.656 465.108C245.656 465.012 245.628 464.932 245.572 464.868C245.508 464.796 245.412 464.76 245.284 464.76C245.204 464.76 245.124 464.776 245.044 464.808C244.956 464.84 244.88 464.868 244.816 464.892L244.576 464.232C244.736 464.104 244.916 464.02 245.116 463.98C245.308 463.94 245.464 463.92 245.584 463.92C245.904 463.92 246.156 464.008 246.34 464.184C246.516 464.36 246.604 464.584 246.604 464.856C246.604 465.08 246.548 465.276 246.436 465.444C246.316 465.604 246.18 465.732 246.028 465.828L245.908 465.54H248.296V466.38H244.576ZM250.336 468.624V466.476C250.336 466.172 250.364 465.928 250.42 465.744C250.476 465.552 250.552 465.396 250.648 465.276C250.744 465.156 250.848 465.056 250.96 464.976L250.948 464.928H248.86L249.136 464.088H252.52V464.928C252.224 464.928 251.964 465.024 251.74 465.216C251.516 465.408 251.404 465.76 251.404 466.272V468.624H250.336ZM251.644 474.12C251.428 474.12 251.22 474.084 251.02 474.012C250.82 473.94 250.656 473.812 250.528 473.628C250.4 473.444 250.336 473.188 250.336 472.86V467.424H251.404V472.728C251.404 472.912 251.444 473.044 251.524 473.124C251.604 473.204 251.732 473.244 251.908 473.244C251.98 473.244 252.056 473.236 252.136 473.22C252.216 473.204 252.292 473.184 252.364 473.16L252.508 473.94C252.356 474.012 252.208 474.06 252.064 474.084C251.92 474.108 251.78 474.12 251.644 474.12ZM255.808 474.12C255.056 474.12 254.472 473.94 254.056 473.58C253.648 473.212 253.444 472.664 253.444 471.936V471.204C253.444 470.804 253.5 470.488 253.612 470.256C253.724 470.024 253.844 469.824 253.972 469.656C254.108 469.472 254.224 469.312 254.32 469.176C254.424 469.04 254.476 468.876 254.476 468.684C254.476 468.516 254.432 468.396 254.344 468.324C254.264 468.252 254.16 468.216 254.032 468.216C253.936 468.216 253.832 468.232 253.72 468.264C253.616 468.296 253.512 468.336 253.408 468.384L253.168 467.616C253.312 467.52 253.488 467.452 253.696 467.412C253.912 467.372 254.1 467.352 254.26 467.352C254.556 467.352 254.792 467.404 254.968 467.508C255.152 467.612 255.284 467.756 255.364 467.94C255.444 468.116 255.484 468.324 255.484 468.564C255.484 468.86 255.432 469.104 255.328 469.296C255.232 469.488 255.116 469.676 254.98 469.86C254.844 470.06 254.732 470.252 254.644 470.436C254.556 470.62 254.512 470.86 254.512 471.156V471.864C254.512 472.232 254.572 472.516 254.692 472.716C254.812 472.916 254.972 473.056 255.172 473.136C255.372 473.208 255.584 473.244 255.808 473.244C256.208 473.244 256.512 473.152 256.72 472.968C256.936 472.776 257.044 472.484 257.044 472.092V467.424H258.112V472.152C258.112 472.768 257.916 473.252 257.524 473.604C257.14 473.948 256.568 474.12 255.808 474.12ZM262.37 474.12C261.618 474.12 261.034 473.94 260.618 473.58C260.21 473.212 260.006 472.664 260.006 471.936V471.204C260.006 470.804 260.062 470.488 260.174 470.256C260.286 470.024 260.406 469.824 260.534 469.656C260.67 469.472 260.786 469.312 260.882 469.176C260.986 469.04 261.038 468.876 261.038 468.684C261.038 468.516 260.994 468.396 260.906 468.324C260.826 468.252 260.722 468.216 260.594 468.216C260.498 468.216 260.394 468.232 260.282 468.264C260.178 468.296 260.074 468.336 259.97 468.384L259.73 467.616C259.874 467.52 260.05 467.452 260.258 467.412C260.474 467.372 260.662 467.352 260.822 467.352C261.118 467.352 261.354 467.404 261.53 467.508C261.714 467.612 261.846 467.756 261.926 467.94C262.006 468.116 262.046 468.324 262.046 468.564C262.046 468.86 261.994 469.104 261.89 469.296C261.794 469.488 261.678 469.676 261.542 469.86C261.406 470.06 261.294 470.252 261.206 470.436C261.118 470.62 261.074 470.86 261.074 471.156V471.864C261.074 472.232 261.134 472.516 261.254 472.716C261.374 472.916 261.534 473.056 261.734 473.136C261.934 473.208 262.146 473.244 262.37 473.244C262.77 473.244 263.074 473.152 263.282 472.968C263.498 472.776 263.606 472.484 263.606 472.092V467.424H264.674V472.152C264.674 472.768 264.478 473.252 264.086 473.604C263.702 473.948 263.13 474.12 262.37 474.12ZM261.311 466.38V465.852C261.471 465.82 261.635 465.776 261.803 465.72C261.971 465.656 262.111 465.576 262.223 465.48C262.335 465.376 262.391 465.252 262.391 465.108C262.391 465.012 262.363 464.932 262.307 464.868C262.243 464.796 262.147 464.76 262.019 464.76C261.939 464.76 261.859 464.776 261.779 464.808C261.691 464.84 261.615 464.868 261.551 464.892L261.311 464.232C261.471 464.104 261.651 464.02 261.851 463.98C262.043 463.94 262.199 463.92 262.319 463.92C262.639 463.92 262.891 464.008 263.075 464.184C263.251 464.36 263.339 464.584 263.339 464.856C263.339 465.08 263.283 465.276 263.171 465.444C263.051 465.604 262.915 465.732 262.763 465.828L262.643 465.54H265.031V466.38H261.311ZM268.945 474.12C268.081 474.12 267.433 473.896 267.001 473.448C266.577 472.992 266.365 472.28 266.365 471.312C266.365 471.152 266.369 470.98 266.377 470.796C266.393 470.604 266.409 470.416 266.425 470.232H268.945V471.072H267.433V471.312C267.433 471.816 267.489 472.212 267.601 472.5C267.713 472.78 267.877 472.976 268.093 473.088C268.317 473.2 268.593 473.256 268.921 473.256C269.281 473.256 269.593 473.188 269.857 473.052C270.121 472.916 270.325 472.668 270.469 472.308C270.613 471.948 270.685 471.432 270.685 470.76C270.685 470.168 270.621 469.684 270.493 469.308C270.365 468.932 270.153 468.652 269.857 468.468C269.569 468.284 269.177 468.192 268.681 468.192C268.425 468.192 268.177 468.216 267.937 468.264C267.697 468.304 267.465 468.368 267.241 468.456C267.017 468.536 266.797 468.64 266.581 468.768V467.772C266.741 467.684 266.937 467.608 267.169 467.544C267.401 467.472 267.657 467.416 267.937 467.376C268.217 467.328 268.509 467.304 268.813 467.304C269.517 467.304 270.085 467.448 270.517 467.736C270.957 468.016 271.277 468.416 271.477 468.936C271.677 469.448 271.777 470.056 271.777 470.76C271.777 471.464 271.685 472.068 271.501 472.572C271.317 473.076 271.017 473.46 270.601 473.724C270.193 473.988 269.641 474.12 268.945 474.12ZM276.675 474.12C276.163 474.12 275.719 474.02 275.343 473.82C274.975 473.612 274.723 473.324 274.587 472.956H274.539L274.479 474H273.603V467.424H274.671V471.228C274.671 471.628 274.739 471.98 274.875 472.284C275.019 472.58 275.223 472.812 275.487 472.98C275.759 473.14 276.083 473.22 276.459 473.22C276.931 473.22 277.283 473.096 277.515 472.848C277.747 472.6 277.863 472.236 277.863 471.756V467.424H278.931V471.828C278.931 472.356 278.839 472.788 278.655 473.124C278.479 473.46 278.223 473.712 277.887 473.88C277.551 474.04 277.147 474.12 276.675 474.12ZM277.102 477.18C276.59 477.18 276.202 477.076 275.938 476.868C275.666 476.668 275.53 476.38 275.53 476.004V475.8C275.53 475.664 275.498 475.58 275.434 475.548C275.362 475.524 275.266 475.528 275.146 475.56L275.074 474.84C275.186 474.808 275.298 474.788 275.41 474.78C275.514 474.772 275.594 474.768 275.65 474.768C275.938 474.768 276.146 474.832 276.274 474.96C276.394 475.088 276.454 475.268 276.454 475.5V475.908C276.454 476.06 276.502 476.188 276.598 476.292C276.694 476.396 276.858 476.448 277.09 476.448C277.33 476.448 277.498 476.396 277.594 476.292C277.682 476.188 277.726 476.06 277.726 475.908V474.804H278.662V475.968C278.662 476.36 278.53 476.66 278.266 476.868C278.002 477.076 277.614 477.18 277.102 477.18ZM284.73 474V469.62C284.73 469.1 284.61 468.732 284.37 468.516C284.138 468.292 283.746 468.18 283.194 468.18C282.794 468.18 282.41 468.236 282.042 468.348C281.682 468.452 281.338 468.6 281.01 468.792V467.796C281.242 467.676 281.554 467.564 281.946 467.46C282.346 467.356 282.794 467.304 283.29 467.304C283.714 467.304 284.082 467.352 284.394 467.448C284.706 467.536 284.962 467.672 285.162 467.856C285.37 468.04 285.526 468.276 285.63 468.564C285.734 468.844 285.786 469.176 285.786 469.56V474H284.73ZM282.666 474.12C281.962 474.12 281.422 473.96 281.046 473.64C280.678 473.312 280.494 472.844 280.494 472.236C280.494 471.572 280.734 471.06 281.214 470.7C281.702 470.34 282.49 470.128 283.578 470.064L284.946 469.98V470.868L283.722 470.952C282.906 471.008 282.342 471.136 282.03 471.336C281.726 471.536 281.574 471.828 281.574 472.212C281.574 472.572 281.686 472.836 281.91 473.004C282.142 473.172 282.462 473.256 282.87 473.256C283.006 473.256 283.13 473.248 283.242 473.232C283.354 473.208 283.462 473.18 283.566 473.148L283.734 473.952C283.582 474.008 283.414 474.048 283.23 474.072C283.054 474.104 282.866 474.12 282.666 474.12ZM289.582 474.12C289.11 474.12 288.67 474.076 288.262 473.988C287.862 473.892 287.522 473.78 287.242 473.652L287.554 472.788C287.722 472.852 287.914 472.92 288.13 472.992C288.346 473.064 288.578 473.124 288.826 473.172C289.082 473.212 289.342 473.232 289.606 473.232C290.03 473.232 290.382 473.152 290.662 472.992C290.942 472.832 291.082 472.6 291.082 472.296C291.082 472.112 291.03 471.956 290.926 471.828C290.83 471.692 290.678 471.568 290.47 471.456C290.262 471.344 289.994 471.236 289.666 471.132C289.162 470.972 288.734 470.804 288.382 470.628C288.038 470.444 287.774 470.228 287.59 469.98C287.414 469.724 287.326 469.408 287.326 469.032C287.326 468.696 287.414 468.4 287.59 468.144C287.774 467.88 288.054 467.676 288.43 467.532C288.814 467.38 289.302 467.304 289.894 467.304C290.278 467.304 290.638 467.34 290.974 467.412C291.318 467.476 291.586 467.568 291.778 467.688V468.588C291.642 468.524 291.47 468.46 291.262 468.396C291.062 468.332 290.842 468.28 290.602 468.24C290.362 468.2 290.114 468.18 289.858 468.18C289.322 468.18 288.942 468.264 288.718 468.432C288.502 468.592 288.394 468.776 288.394 468.984C288.394 469.16 288.442 469.308 288.538 469.428C288.642 469.548 288.814 469.664 289.054 469.776C289.302 469.888 289.634 470.016 290.05 470.16C290.434 470.288 290.786 470.436 291.106 470.604C291.426 470.772 291.678 470.984 291.862 471.24C292.054 471.488 292.15 471.808 292.15 472.2C292.15 472.536 292.066 472.852 291.898 473.148C291.738 473.436 291.47 473.672 291.094 473.856C290.718 474.032 290.214 474.12 289.582 474.12ZM288.791 466.38V465.852C288.951 465.82 289.115 465.776 289.283 465.72C289.451 465.656 289.591 465.576 289.703 465.48C289.815 465.376 289.871 465.252 289.871 465.108C289.871 465.012 289.843 464.932 289.787 464.868C289.723 464.796 289.627 464.76 289.499 464.76C289.419 464.76 289.339 464.776 289.259 464.808C289.171 464.84 289.095 464.868 289.031 464.892L288.791 464.232C288.951 464.104 289.131 464.02 289.331 463.98C289.523 463.94 289.679 463.92 289.799 463.92C290.119 463.92 290.371 464.008 290.555 464.184C290.731 464.36 290.819 464.584 290.819 464.856C290.819 465.08 290.763 465.276 290.651 465.444C290.531 465.604 290.395 465.732 290.243 465.828L290.123 465.54H292.511V466.38H288.791ZM295.453 474V469.332C295.453 468.94 295.361 468.652 295.177 468.468C295.001 468.284 294.701 468.192 294.277 468.192C293.989 468.192 293.717 468.232 293.461 468.312C293.213 468.384 292.973 468.488 292.741 468.624V467.664C292.901 467.584 293.129 467.504 293.425 467.424C293.721 467.344 294.073 467.304 294.481 467.304C294.897 467.304 295.257 467.364 295.561 467.484C295.865 467.604 296.101 467.804 296.269 468.084C296.437 468.356 296.521 468.72 296.521 469.176V474H295.453ZM300.736 474.12C300.264 474.12 299.856 474.04 299.512 473.88C299.176 473.712 298.916 473.46 298.732 473.124C298.556 472.788 298.468 472.352 298.468 471.816V467.424H299.536V471.756C299.536 472.236 299.656 472.6 299.896 472.848C300.144 473.096 300.5 473.22 300.964 473.22C301.524 473.22 301.956 473.04 302.26 472.68C302.572 472.32 302.728 471.836 302.728 471.228V467.424H303.796V474H302.908L302.86 473.028H302.8C302.656 473.348 302.404 473.612 302.044 473.82C301.692 474.02 301.256 474.12 300.736 474.12ZM305.827 474V469.8C305.827 468.992 306.043 468.376 306.475 467.952C306.907 467.52 307.595 467.304 308.539 467.304C309.491 467.304 310.179 467.52 310.603 467.952C311.035 468.376 311.251 468.992 311.251 469.8V474H310.183V469.8C310.183 469.264 310.043 468.864 309.763 468.6C309.483 468.328 309.071 468.192 308.527 468.192C307.991 468.192 307.583 468.328 307.303 468.6C307.031 468.864 306.895 469.264 306.895 469.8V471.132L306.931 471.144C307.107 470.832 307.323 470.628 307.579 470.532C307.835 470.428 308.195 470.376 308.659 470.376H309.055V471.252H308.659C308.171 471.252 307.799 471.32 307.543 471.456C307.295 471.592 307.123 471.772 307.027 471.996C306.939 472.212 306.895 472.456 306.895 472.728V474H305.827ZM307.775 466.38V465.852C307.935 465.82 308.099 465.776 308.267 465.72C308.435 465.656 308.575 465.576 308.687 465.48C308.799 465.376 308.855 465.252 308.855 465.108C308.855 465.012 308.827 464.932 308.771 464.868C308.707 464.796 308.611 464.76 308.483 464.76C308.403 464.76 308.323 464.776 308.243 464.808C308.155 464.84 308.079 464.868 308.015 464.892L307.775 464.232C307.935 464.104 308.115 464.02 308.315 463.98C308.507 463.94 308.663 463.92 308.783 463.92C309.103 463.92 309.355 464.008 309.539 464.184C309.715 464.36 309.803 464.584 309.803 464.856C309.803 465.08 309.747 465.276 309.635 465.444C309.515 465.604 309.379 465.732 309.227 465.828L309.107 465.54H311.495V466.38H307.775ZM315.059 474V469.332C315.059 468.94 314.967 468.652 314.783 468.468C314.607 468.284 314.307 468.192 313.883 468.192C313.595 468.192 313.323 468.232 313.067 468.312C312.819 468.384 312.579 468.488 312.347 468.624V467.664C312.507 467.584 312.735 467.504 313.031 467.424C313.327 467.344 313.679 467.304 314.087 467.304C314.503 467.304 314.863 467.364 315.167 467.484C315.471 467.604 315.707 467.804 315.875 468.084C316.043 468.356 316.127 468.72 316.127 469.176V474H315.059Z" fill="#1D3853"/>
<path fill-rule="evenodd" clip-rule="evenodd" d="M29.7071 80.7071C29.3166 81.0976 28.6834 81.0976 28.2929 80.7071L24.2929 76.7071C23.9024 76.3166 23.9024 75.6834 24.2929 75.2929L28.2929 71.2929C28.6834 70.9024 29.3166 70.9024 29.7071 71.2929C30.0976 71.6834 30.0976 72.3166 29.7071 72.7071L27.4142 75L35 75C35.5523 75 36 75.4477 36 76C36 76.5523 35.5523 77 35 77H27.4142L29.7071 79.2929C30.0976 79.6834 30.0976 80.3166 29.7071 80.7071Z" fill="#1D3853"/>
</svg>
