<svg width="412" height="844" viewBox="0 0 412 844" fill="none" xmlns="http://www.w3.org/2000/svg">
<rect width="412" height="844" rx="16" fill="white"/>
<rect width="412" height="52" fill="white"/>
<mask id="path-2-inside-1_337_16103" fill="white">
<path d="M0 0H412V52H0V0Z"/>
</mask>
<path d="M412 51H0V53H412V51Z" fill="#DBE4E6" mask="url(#path-2-inside-1_337_16103)"/>
<path d="M27.5 37.126C27.08 37.126 26.6413 37.0467 26.184 36.888C25.736 36.7293 25.3347 36.5007 24.98 36.202C24.8773 36.1273 24.8073 36.034 24.77 35.922C24.742 35.8007 24.742 35.6887 24.77 35.586C24.798 35.474 24.8493 35.3807 24.924 35.306C25.008 35.222 25.106 35.1753 25.218 35.166C25.33 35.1567 25.4513 35.1987 25.582 35.292C25.8993 35.544 26.2213 35.726 26.548 35.838C26.8747 35.95 27.2013 36.006 27.528 36.006C28.116 36.006 28.6153 35.8613 29.026 35.572C29.4367 35.2733 29.7493 34.8347 29.964 34.256C30.1787 33.668 30.286 32.9447 30.286 32.086V30.84H30.426C30.37 31.3533 30.216 31.8013 29.964 32.184C29.712 32.5573 29.3853 32.8467 28.984 33.052C28.592 33.2573 28.1487 33.36 27.654 33.36C27.0753 33.36 26.562 33.2247 26.114 32.954C25.6753 32.6833 25.3253 32.3147 25.064 31.848C24.812 31.372 24.686 30.8307 24.686 30.224C24.686 29.5987 24.8213 29.0433 25.092 28.558C25.3627 28.0727 25.736 27.6947 26.212 27.424C26.688 27.144 27.234 27.004 27.85 27.004C28.6433 27.004 29.3107 27.1953 29.852 27.578C30.4027 27.9513 30.8227 28.502 31.112 29.23C31.4013 29.9487 31.546 30.8167 31.546 31.834C31.546 32.6927 31.4527 33.4487 31.266 34.102C31.0887 34.7553 30.8227 35.306 30.468 35.754C30.1227 36.202 29.698 36.5427 29.194 36.776C28.6993 37.0093 28.1347 37.126 27.5 37.126ZM27.948 32.282C28.34 32.282 28.6853 32.1933 28.984 32.016C29.292 31.8293 29.53 31.5773 29.698 31.26C29.866 30.9427 29.95 30.5787 29.95 30.168C29.95 29.748 29.866 29.384 29.698 29.076C29.53 28.7587 29.292 28.5113 28.984 28.334C28.6853 28.1567 28.34 28.068 27.948 28.068C27.5467 28.068 27.1967 28.1567 26.898 28.334C26.5993 28.5113 26.3613 28.7587 26.184 29.076C26.016 29.384 25.932 29.748 25.932 30.168C25.932 30.5787 26.016 30.9427 26.184 31.26C26.3613 31.5773 26.5993 31.8293 26.898 32.016C27.1967 32.1933 27.5467 32.282 27.948 32.282ZM34.0325 37.056C33.7899 37.056 33.5892 36.9767 33.4305 36.818C33.2719 36.6593 33.1925 36.4587 33.1925 36.216C33.1925 35.9733 33.2719 35.7773 33.4305 35.628C33.5892 35.4787 33.7899 35.404 34.0325 35.404C34.2939 35.404 34.4945 35.4787 34.6345 35.628C34.7839 35.7773 34.8585 35.9733 34.8585 36.216C34.8585 36.4587 34.7839 36.6593 34.6345 36.818C34.4945 36.9767 34.2939 37.056 34.0325 37.056ZM34.0325 31.778C33.7899 31.778 33.5892 31.7033 33.4305 31.554C33.2719 31.3953 33.1925 31.1947 33.1925 30.952C33.1925 30.7093 33.2719 30.5133 33.4305 30.364C33.5892 30.2053 33.7899 30.126 34.0325 30.126C34.2939 30.126 34.4945 30.2053 34.6345 30.364C34.7839 30.5133 34.8585 30.7093 34.8585 30.952C34.8585 31.1947 34.7839 31.3953 34.6345 31.554C34.4945 31.7033 34.2939 31.778 34.0325 31.778ZM39.7361 37.126C39.1948 37.126 38.6534 37.0513 38.1121 36.902C37.5708 36.7527 37.0994 36.5287 36.6981 36.23C36.5674 36.1367 36.4788 36.0293 36.4321 35.908C36.3854 35.7867 36.3714 35.6747 36.3901 35.572C36.4181 35.46 36.4741 35.3667 36.5581 35.292C36.6421 35.2173 36.7448 35.1753 36.8661 35.166C36.9874 35.1473 37.1181 35.18 37.2581 35.264C37.6594 35.5253 38.0561 35.7167 38.4481 35.838C38.8494 35.95 39.2648 36.006 39.6941 36.006C40.1514 36.006 40.5388 35.9407 40.8561 35.81C41.1734 35.67 41.4114 35.4693 41.5701 35.208C41.7381 34.9373 41.8221 34.6153 41.8221 34.242C41.8221 33.682 41.6401 33.262 41.2761 32.982C40.9121 32.6927 40.3801 32.548 39.6801 32.548H38.7001C38.5041 32.548 38.3548 32.5013 38.2521 32.408C38.1494 32.3053 38.0981 32.17 38.0981 32.002C38.0981 31.8247 38.1494 31.6893 38.2521 31.596C38.3548 31.5027 38.5041 31.456 38.7001 31.456H39.5681C39.9788 31.456 40.3288 31.386 40.6181 31.246C40.9074 31.0967 41.1314 30.8913 41.2901 30.63C41.4581 30.3687 41.5421 30.0513 41.5421 29.678C41.5421 29.174 41.3788 28.7913 41.0521 28.53C40.7254 28.2593 40.2541 28.124 39.6381 28.124C39.2368 28.124 38.8588 28.1847 38.5041 28.306C38.1494 28.418 37.7901 28.6093 37.4261 28.88C37.3048 28.964 37.1834 29.006 37.0621 29.006C36.9408 28.9967 36.8381 28.9547 36.7541 28.88C36.6794 28.8053 36.6281 28.7167 36.6001 28.614C36.5721 28.502 36.5768 28.3853 36.6141 28.264C36.6514 28.1427 36.7354 28.0353 36.8661 27.942C37.2488 27.6433 37.6874 27.4147 38.1821 27.256C38.6861 27.088 39.2041 27.004 39.7361 27.004C40.3801 27.004 40.9308 27.1067 41.3881 27.312C41.8548 27.5173 42.2094 27.8113 42.4521 28.194C42.6948 28.5673 42.8161 29.02 42.8161 29.552C42.8161 29.9533 42.7414 30.322 42.5921 30.658C42.4428 30.9847 42.2281 31.2647 41.9481 31.498C41.6774 31.722 41.3461 31.8807 40.9541 31.974V31.82C41.6354 31.9413 42.1628 32.226 42.5361 32.674C42.9188 33.1127 43.1101 33.6633 43.1101 34.326C43.1101 34.8953 42.9701 35.3947 42.6901 35.824C42.4194 36.244 42.0321 36.566 41.5281 36.79C41.0241 37.014 40.4268 37.126 39.7361 37.126ZM48.2566 37.126C47.118 37.126 46.25 36.692 45.6526 35.824C45.0646 34.9467 44.7706 33.6913 44.7706 32.058C44.7706 30.9473 44.9013 30.0187 45.1626 29.272C45.4333 28.5253 45.8253 27.9607 46.3386 27.578C46.8613 27.1953 47.5006 27.004 48.2566 27.004C49.4046 27.004 50.2726 27.4333 50.8606 28.292C51.4486 29.1413 51.7426 30.392 51.7426 32.044C51.7426 33.136 51.6073 34.06 51.3366 34.816C51.0753 35.572 50.688 36.146 50.1746 36.538C49.6613 36.93 49.022 37.126 48.2566 37.126ZM48.2566 36.02C49.0033 36.02 49.5586 35.698 49.9226 35.054C50.2866 34.41 50.4686 33.4067 50.4686 32.044C50.4686 30.6813 50.2866 29.6873 49.9226 29.062C49.568 28.4273 49.0126 28.11 48.2566 28.11C47.51 28.11 46.9546 28.4273 46.5906 29.062C46.2266 29.6873 46.0446 30.6813 46.0446 32.044C46.0446 33.4067 46.2266 34.41 46.5906 35.054C46.9546 35.698 47.51 36.02 48.2566 36.02Z" fill="#1D1B20"/>
<path opacity="0.1" d="M350.5 26.4165C347.1 26.4165 344.125 27.904 342 30.2415L350.5 40.5832L359 30.2415C356.875 27.904 353.9 26.4165 350.5 26.4165Z" fill="#1D1B20"/>
<path d="M373.583 26.4165L359.417 40.5832H373.583V26.4165Z" fill="#1D1B20"/>
<path d="M385.5 26H382.5V27.5H381C380.448 27.5 380 28.0037 380 28.625V39.875C380 40.4963 380.448 41 381 41H387C387.552 41 388 40.4963 388 39.875V28.625C388 28.0037 387.552 27.5 387 27.5H385.5V26Z" fill="#1F1F1F" fill-opacity="0.3"/>
<path d="M380 34C380 34.5833 380 39.3667 380 39.95C380 40.5299 380.448 41 381 41H387C387.552 41 388 40.5299 388 39.95C388 39.3667 388 34.5833 388 34H380Z" fill="#1D1B20"/>
<rect width="38" height="38" transform="translate(22 80)" fill="white"/>
<path d="M39.4167 106.917L31.5 99.0002M31.5 99.0002L39.4167 91.0835M31.5 99.0002L50.5 99.0002" stroke="#111827" stroke-width="2" stroke-linecap="round" stroke-linejoin="round"/>
<path d="M151.557 130.149C150.359 130.149 149.431 129.824 148.774 129.175C148.156 128.487 147.847 127.551 147.847 126.366V93.009C147.847 91.7863 148.175 90.8693 148.832 90.2579C149.489 89.6084 150.417 89.2836 151.615 89.2836H165.587C170.07 89.2836 173.529 90.3535 175.964 92.4932C178.399 94.5947 179.617 97.556 179.617 101.377C179.617 103.861 179.056 106 177.935 107.796C176.853 109.592 175.269 110.968 173.182 111.923C171.094 112.878 170.375 112.822 170.375 112.822C170.375 112.822 170.979 112.878 172.138 113.642C173.336 114.406 174.38 115.61 175.269 117.253L179.617 125.22C180.081 126.022 180.293 126.806 180.254 127.57C180.216 128.334 179.926 128.964 179.385 129.461C178.844 129.92 178.051 130.149 177.008 130.149C175.964 130.149 175.114 129.939 174.457 129.518C173.8 129.06 173.22 128.372 172.718 127.455L166.862 116.795C166.167 115.495 165.336 114.636 164.369 114.215C163.442 113.757 162.244 113.528 160.775 113.528H155.267V126.366C155.267 127.551 154.958 128.487 154.34 129.175C153.721 129.824 152.794 130.149 151.557 130.149ZM155.267 108.083H164.311C166.978 108.083 168.988 107.548 170.341 106.478C171.732 105.37 172.428 103.727 172.428 101.549C172.428 99.4092 171.732 97.8044 170.341 96.7345C168.988 95.6264 166.978 95.0724 164.311 95.0724H155.267V108.083Z" fill="#23C686"/>
<path d="M222.346 130.264C218.094 130.264 214.442 129.423 211.389 127.742C208.374 126.022 206.055 123.615 204.432 120.52C202.808 117.387 201.997 113.7 201.997 109.458C201.997 106.287 202.46 103.44 203.388 100.918C204.316 98.3584 205.649 96.1804 207.388 94.3846C209.128 92.5505 211.253 91.1559 213.766 90.2006C216.316 89.2072 219.176 88.7104 222.346 88.7104C224.471 88.7104 226.559 88.9779 228.607 89.5129C230.655 90.0478 232.453 90.812 233.999 91.8054C234.81 92.3022 235.351 92.9135 235.622 93.6395C235.892 94.3273 235.95 95.0151 235.796 95.7028C235.641 96.3524 235.313 96.9064 234.81 97.3649C234.346 97.8235 233.747 98.0909 233.013 98.1674C232.317 98.2056 231.544 97.9572 230.694 97.4223C229.496 96.6581 228.201 96.104 226.81 95.7601C225.418 95.4163 224.008 95.2443 222.578 95.2443C219.833 95.2443 217.515 95.7984 215.621 96.9064C213.727 98.0145 212.297 99.6193 211.331 101.721C210.364 103.822 209.881 106.402 209.881 109.458C209.881 112.477 210.364 115.056 211.331 117.196C212.297 119.336 213.727 120.959 215.621 122.068C217.515 123.176 219.833 123.73 222.578 123.73C224.046 123.73 225.496 123.558 226.926 123.214C228.356 122.832 229.708 122.259 230.984 121.494C231.834 120.998 232.588 120.787 233.245 120.864C233.941 120.902 234.52 121.131 234.984 121.552C235.448 121.972 235.757 122.507 235.912 123.156C236.066 123.768 236.028 124.417 235.796 125.105C235.564 125.755 235.1 126.328 234.404 126.825C232.858 127.933 231.003 128.792 228.839 129.404C226.713 129.977 224.549 130.264 222.346 130.264Z" fill="#23C686"/>
<path d="M246.677 129.69C245.401 129.69 244.416 129.366 243.72 128.716C243.063 128.028 242.735 127.054 242.735 125.793V93.181C242.735 91.9201 243.063 90.9648 243.72 90.3153C244.416 89.6275 245.401 89.2836 246.677 89.2836H267.374C268.34 89.2836 269.074 89.532 269.577 90.0287C270.118 90.5254 270.388 91.2323 270.388 92.1493C270.388 93.1046 270.118 93.8497 269.577 94.3846C269.074 94.8813 268.34 95.1297 267.374 95.1297H249.865V106.249H266.098C267.103 106.249 267.857 106.497 268.359 106.994C268.862 107.491 269.113 108.217 269.113 109.172C269.113 110.127 268.862 110.853 268.359 111.35C267.857 111.846 267.103 112.095 266.098 112.095H249.865V123.844H267.374C268.34 123.844 269.074 124.093 269.577 124.589C270.118 125.086 270.388 125.812 270.388 126.767C270.388 127.723 270.118 128.449 269.577 128.945C269.074 129.442 268.34 129.69 267.374 129.69H246.677Z" fill="#23C686"/>
<path d="M189.759 102.105C189.754 101.796 189.776 101.168 189.889 100.576C190.016 99.915 190.253 99.2958 190.681 99.2149C191.411 99.0788 192.049 99.4615 192.633 99.8948C194.303 101.13 195.194 103.488 193.811 105.51C193.535 105.914 193.047 105.994 192.622 106.016C190.881 106.107 189.797 103.854 189.759 102.105ZM196.49 100.717C196.088 100.948 195.629 100.772 195.245 100.581C193.671 99.7867 193.594 97.1837 194.249 95.5697C194.364 95.2852 194.63 94.7243 194.959 94.2374C195.327 93.6993 195.778 93.2538 196.19 93.3979C196.885 93.6426 197.295 94.3118 197.642 95.0042C198.63 96.9704 198.493 99.5696 196.49 100.717ZM200.888 96.7714C200.443 96.8347 200.068 96.4927 199.771 96.1611C198.547 94.7981 199.256 92.2884 200.346 91.0007C200.539 90.775 200.954 90.3417 201.404 90.0054C201.907 89.6342 202.459 89.3849 202.794 89.6811C203.366 90.1828 203.548 90.981 203.662 91.7721C203.995 94.0293 203.089 96.4521 200.888 96.7714ZM204.951 93.9947C204.261 92.2024 205.713 90.1234 207.128 89.3544C207.378 89.221 207.898 88.9814 208.419 88.8508C209 88.7046 209.586 88.6977 209.802 89.115C210.165 89.8249 210.078 90.6529 209.932 91.4528C209.513 93.7173 207.909 95.6397 205.782 95.0296C205.352 94.9117 205.119 94.432 204.951 93.9947ZM210.084 94.6071C209.983 94.1199 210.25 93.6403 210.509 93.247C211.578 91.6364 213.839 92.0048 215.069 93.0134C215.284 93.1918 215.704 93.5854 216.04 94.0356C216.413 94.5427 216.685 95.1166 216.46 95.5498C216.079 96.2776 215.399 96.6168 214.719 96.8832C212.785 97.6373 210.578 97.0327 210.084 94.6071ZM204.925 98.2897C204.875 97.7835 205.187 97.3434 205.488 96.9886C206.711 95.5236 208.908 96.1976 210.018 97.3721C210.212 97.5756 210.584 98.0257 210.872 98.5202C211.188 99.0767 211.398 99.6858 211.133 100.085C210.679 100.76 209.974 101.006 209.274 101.184C207.279 101.675 205.159 100.776 204.925 98.2897ZM199.481 100.249C199.482 99.7399 199.835 99.3382 200.167 99.0222C201.526 97.7205 203.632 98.6794 204.612 99.9875C204.784 100.216 205.11 100.715 205.342 101.247C205.598 101.84 205.743 102.476 205.439 102.842C204.922 103.455 204.201 103.61 203.489 103.696C201.471 103.928 199.466 102.756 199.481 100.249ZM195.629 105.193C195.556 104.695 195.848 104.237 196.127 103.862C197.285 102.33 199.515 102.866 200.679 103.966C200.886 104.161 201.279 104.586 201.59 105.064C201.93 105.597 202.172 106.193 201.923 106.61C201.5 107.311 200.806 107.601 200.114 107.815C198.142 108.419 195.979 107.655 195.629 105.193ZM197.788 112.728C195.997 113.87 193.716 113.75 192.824 111.489C192.645 111.031 192.83 110.508 193.02 110.071C193.811 108.269 196.108 108.152 197.492 108.873C197.736 109.001 198.214 109.293 198.623 109.662C199.077 110.075 199.44 110.579 199.292 111.047C199.027 111.847 198.413 112.321 197.788 112.728ZM191.157 111.088C190.912 111.518 190.429 111.641 190.006 111.704C188.263 111.969 187.017 109.826 186.855 108.092C186.825 107.786 186.804 107.16 186.873 106.561C186.949 105.891 187.142 105.257 187.567 105.138C188.288 104.934 188.952 105.253 189.571 105.629C191.325 106.695 192.389 108.954 191.157 111.088Z" fill="#FFBD13"/>
<path d="M208.071 96.1144C207.426 95.7485 206.425 95.8607 205.341 96.1893C203.405 96.7798 201.226 98.069 200.364 98.5847C196.538 100.889 193.263 103.812 190.838 107.027C190.988 105.858 191.055 104.806 190.977 104.02C190.688 101.225 189.932 98.2686 187.724 95.9356C185.937 94.2415 186.782 94.9556 184.005 93.5215C183.421 93.3968 182.435 93.0513 181.832 93.1703C181.659 93.2618 181.224 93.3505 181.228 93.7606C181.231 94.0445 182.435 94.9556 182.435 94.9556C185.091 96.3839 185.711 97.3994 186.807 100.261C187.524 102.14 187.669 104.12 187.563 106.062C187.441 108.299 187.029 110.732 186.634 112.666C186.162 112.275 185.661 111.905 185.1 111.576C184.176 111.036 183.114 110.582 182.041 110.237C181.124 109.942 181.109 109.857 180.097 109.624C178.295 109.2 177.795 108.965 175.993 109.26C175.354 109.364 174.646 109.762 176.398 110.656C179.228 112.087 181.26 113.833 183.218 115.937C184.48 117.293 184.383 119.938 185.671 122.218C186.528 123.735 188.214 125.86 188.214 125.86C188.581 126.285 192.727 129.541 193.416 129.624C195.034 129.811 195.17 129.656 195.381 128.471C196.054 124.699 187.271 122.381 188.85 118.758C189.612 117.004 193.313 113.012 194.308 111.324C195.842 108.733 197.671 105.979 199.632 103.554C201.217 101.587 203.777 99.8753 205.701 98.0912C206.252 97.5756 209.033 96.655 208.071 96.1144Z" fill="#23C686"/>
<path d="M149.472 170V156.86C149.472 155.3 149.112 154.196 148.392 153.548C147.696 152.876 146.52 152.54 144.864 152.54C143.664 152.54 142.512 152.708 141.408 153.044C140.328 153.356 139.296 153.8 138.312 154.376V151.388C139.008 151.028 139.944 150.692 141.12 150.38C142.32 150.068 143.664 149.912 145.152 149.912C146.424 149.912 147.528 150.056 148.464 150.344C149.4 150.608 150.168 151.016 150.768 151.568C151.392 152.12 151.86 152.828 152.172 153.692C152.484 154.532 152.64 155.528 152.64 156.68V170H149.472ZM143.28 170.36C141.168 170.36 139.548 169.88 138.42 168.92C137.316 167.936 136.764 166.532 136.764 164.708C136.764 162.716 137.484 161.18 138.924 160.1C140.388 159.02 142.752 158.384 146.016 158.192L150.12 157.94V160.604L146.448 160.856C144 161.024 142.308 161.408 141.372 162.008C140.46 162.608 140.004 163.484 140.004 164.636C140.004 165.716 140.34 166.508 141.012 167.012C141.708 167.516 142.668 167.768 143.892 167.768C144.3 167.768 144.672 167.744 145.008 167.696C145.344 167.624 145.668 167.54 145.98 167.444L146.484 169.856C146.028 170.024 145.524 170.144 144.972 170.216C144.444 170.312 143.88 170.36 143.28 170.36ZM161.722 170L155.566 150.272H158.806L164.134 167.228H164.566C165.142 167.228 165.706 167.096 166.258 166.832C166.81 166.544 167.278 166.184 167.662 165.752C168.382 164.96 168.91 163.964 169.246 162.764C169.582 161.54 169.75 160.34 169.75 159.164C169.75 157.172 169.294 155.612 168.382 154.484C167.494 153.332 166.258 152.756 164.674 152.756C164.362 152.756 164.05 152.78 163.738 152.828C163.45 152.876 163.21 152.936 163.018 153.008L162.226 150.452C162.73 150.308 163.198 150.212 163.63 150.164C164.086 150.116 164.494 150.092 164.854 150.092C166.054 150.092 167.122 150.272 168.058 150.632C169.018 150.968 169.834 151.472 170.506 152.144C171.346 152.96 171.958 153.98 172.342 155.204C172.75 156.428 172.954 157.784 172.954 159.272C172.954 161.144 172.666 162.812 172.09 164.276C171.514 165.716 170.794 166.868 169.93 167.732C169.234 168.428 168.382 168.98 167.374 169.388C166.366 169.796 165.082 170 163.522 170H161.722ZM177.926 170V150.272H180.158L180.734 153.404H180.878C181.286 152.324 182.03 151.472 183.11 150.848C184.19 150.224 185.498 149.912 187.034 149.912C188.474 149.912 189.698 150.164 190.706 150.668C191.738 151.148 192.53 151.892 193.082 152.9C193.634 153.908 193.91 155.216 193.91 156.824V170H190.706V157.004C190.706 155.564 190.346 154.472 189.626 153.728C188.906 152.984 187.838 152.612 186.422 152.612C185.294 152.612 184.334 152.876 183.542 153.404C182.75 153.932 182.15 154.652 181.742 155.564C181.334 156.452 181.13 157.46 181.13 158.588V170H177.926ZM202.348 157.616C201.364 157.616 200.56 157.472 199.936 157.184C199.336 156.872 198.904 156.488 198.64 156.032C198.376 155.552 198.244 155.048 198.244 154.52C198.244 154.16 198.292 153.788 198.388 153.404C198.508 153.02 198.652 152.696 198.82 152.432L201.52 152.864C201.472 152.984 201.412 153.152 201.34 153.368C201.292 153.584 201.268 153.8 201.268 154.016C201.268 154.328 201.352 154.592 201.52 154.808C201.688 155 202 155.096 202.456 155.096H207.604V157.616H202.348ZM202.348 167.696C201.364 167.696 200.56 167.552 199.936 167.264C199.336 166.952 198.904 166.568 198.64 166.112C198.376 165.632 198.244 165.128 198.244 164.6C198.244 164.24 198.292 163.868 198.388 163.484C198.508 163.1 198.652 162.776 198.82 162.512L201.52 162.944C201.472 163.064 201.412 163.232 201.34 163.448C201.292 163.664 201.268 163.88 201.268 164.096C201.268 164.408 201.352 164.672 201.52 164.888C201.688 165.08 202 165.176 202.456 165.176H207.604V167.696H202.348ZM216.384 170.36C215.736 170.36 215.112 170.252 214.512 170.036C213.912 169.82 213.42 169.436 213.036 168.884C212.652 168.332 212.46 167.564 212.46 166.58V150.272H215.664V166.184C215.664 166.736 215.784 167.132 216.024 167.372C216.264 167.612 216.648 167.732 217.176 167.732C217.392 167.732 217.62 167.708 217.86 167.66C218.1 167.612 218.328 167.552 218.544 167.48L218.976 169.82C218.52 170.036 218.076 170.18 217.644 170.252C217.212 170.324 216.792 170.36 216.384 170.36ZM230.07 170.36C227.238 170.36 225.21 169.712 223.986 168.416C222.762 167.12 222.15 165.272 222.15 162.872V150.272H225.354V162.908C225.354 164.516 225.738 165.716 226.506 166.508C227.274 167.3 228.462 167.696 230.07 167.696C231.702 167.696 232.902 167.3 233.67 166.508C234.462 165.716 234.858 164.516 234.858 162.908V150.272H238.062V162.872C238.062 165.272 237.438 167.12 236.19 168.416C234.966 169.712 232.926 170.36 230.07 170.36ZM222.738 147.14V145.736L225.366 144.584H238.038V147.14H222.738ZM235.05 145.736V141.668H238.074V145.736H235.05ZM251.473 170.324C249.529 170.324 247.969 170.072 246.793 169.568C245.641 169.064 244.801 168.356 244.273 167.444C243.769 166.532 243.517 165.452 243.517 164.204C243.517 163.1 243.673 162.224 243.985 161.576C244.321 160.904 244.729 160.412 245.209 160.1C245.713 159.788 246.229 159.584 246.757 159.488V159.344C246.277 159.2 245.773 158.96 245.245 158.624C244.717 158.288 244.273 157.82 243.913 157.22C243.577 156.62 243.409 155.864 243.409 154.952C243.409 154.112 243.601 153.32 243.985 152.576C244.369 151.832 244.993 151.22 245.857 150.74C246.721 150.26 247.861 150.02 249.277 150.02C249.853 150.02 250.453 150.068 251.077 150.164C251.701 150.236 252.181 150.368 252.517 150.56L251.941 153.044C251.677 152.948 251.329 152.864 250.897 152.792C250.489 152.696 250.057 152.648 249.601 152.648C248.593 152.648 247.849 152.888 247.369 153.368C246.889 153.824 246.649 154.436 246.649 155.204C246.649 156.044 246.853 156.68 247.261 157.112C247.693 157.544 248.233 157.844 248.881 158.012C249.553 158.156 250.249 158.228 250.969 158.228H251.653V160.568H250.969C249.529 160.568 248.461 160.832 247.765 161.36C247.093 161.864 246.757 162.716 246.757 163.916C246.757 164.612 246.889 165.248 247.153 165.824C247.441 166.4 247.921 166.856 248.593 167.192C249.289 167.528 250.249 167.696 251.473 167.696C252.697 167.696 253.645 167.528 254.317 167.192C255.013 166.856 255.505 166.376 255.793 165.752C256.081 165.104 256.225 164.336 256.225 163.448V150.272H259.429V163.232C259.429 165.752 258.781 167.564 257.485 168.668C256.213 169.772 254.209 170.324 251.473 170.324ZM272.056 170.36C270.64 170.36 269.416 170.12 268.384 169.64C267.376 169.136 266.596 168.38 266.044 167.372C265.516 166.364 265.252 165.056 265.252 163.448V150.272H268.456V163.268C268.456 164.708 268.816 165.8 269.536 166.544C270.28 167.288 271.348 167.66 272.74 167.66C274.42 167.66 275.716 167.12 276.628 166.04C277.564 164.96 278.032 163.508 278.032 161.684V150.272H281.236V170H278.572L278.428 167.084H278.248C277.816 168.044 277.06 168.836 275.98 169.46C274.924 170.06 273.616 170.36 272.056 170.36Z" fill="#23C686"/>
<rect x="56" y="208" width="300" height="56" rx="4" stroke="#D8DADC"/>
<path opacity="0.38" d="M73.424 241V232.232H74.848V236.024H74.896L78.544 232.232H80.208V232.28L74.848 237.704V241H73.424ZM78.864 241V237.912C78.864 237.283 78.672 236.792 78.288 236.44C77.904 236.088 77.2693 235.912 76.384 235.912L77.216 234.872C77.888 234.872 78.448 234.995 78.896 235.24C79.3547 235.475 79.7013 235.816 79.936 236.264C80.1707 236.712 80.288 237.251 80.288 237.88V241H78.864ZM86.9106 241.16C86.228 241.16 85.636 241.027 85.1346 240.76C84.644 240.483 84.308 240.099 84.1266 239.608H84.0626L83.9826 241H82.8146V232.232H84.2386V237.304C84.2386 237.837 84.3293 238.307 84.5106 238.712C84.7026 239.107 84.9746 239.416 85.3266 239.64C85.6893 239.853 86.1213 239.96 86.6226 239.96C87.252 239.96 87.7213 239.795 88.0306 239.464C88.34 239.133 88.4946 238.648 88.4946 238.008V232.232H89.9186V238.104C89.9186 238.808 89.796 239.384 89.5506 239.832C89.316 240.28 88.9746 240.616 88.5266 240.84C88.0786 241.053 87.54 241.16 86.9106 241.16ZM94.9948 241V234.776C94.9948 234.253 94.8721 233.869 94.6268 233.624C94.3921 233.379 93.9921 233.256 93.4268 233.256C93.0428 233.256 92.6801 233.309 92.3388 233.416C92.0081 233.512 91.6881 233.651 91.3788 233.832V232.552C91.5921 232.445 91.8961 232.339 92.2908 232.232C92.6854 232.125 93.1548 232.072 93.6988 232.072C94.2534 232.072 94.7334 232.152 95.1388 232.312C95.5441 232.472 95.8588 232.739 96.0828 233.112C96.3068 233.475 96.4188 233.96 96.4188 234.568V241H94.9948ZM102.391 241.144C101.527 241.144 100.833 241.032 100.311 240.808C99.7988 240.584 99.4254 240.269 99.1908 239.864C98.9668 239.459 98.8548 238.979 98.8548 238.424C98.8548 237.933 98.9241 237.544 99.0628 237.256C99.2121 236.957 99.3934 236.739 99.6068 236.6C99.8308 236.461 100.06 236.371 100.295 236.328V236.264C100.081 236.2 99.8574 236.093 99.6228 235.944C99.3881 235.795 99.1908 235.587 99.0308 235.32C98.8814 235.053 98.8068 234.717 98.8068 234.312C98.8068 233.939 98.8921 233.587 99.0628 233.256C99.2334 232.925 99.5108 232.653 99.8948 232.44C100.279 232.227 100.785 232.12 101.415 232.12C101.671 232.12 101.937 232.141 102.215 232.184C102.492 232.216 102.705 232.275 102.855 232.36L102.599 233.464C102.481 233.421 102.327 233.384 102.135 233.352C101.953 233.309 101.761 233.288 101.559 233.288C101.111 233.288 100.78 233.395 100.567 233.608C100.353 233.811 100.247 234.083 100.247 234.424C100.247 234.797 100.337 235.08 100.519 235.272C100.711 235.464 100.951 235.597 101.239 235.672C101.537 235.736 101.847 235.768 102.167 235.768H102.471V236.808H102.167C101.527 236.808 101.052 236.925 100.743 237.16C100.444 237.384 100.295 237.763 100.295 238.296C100.295 238.605 100.353 238.888 100.471 239.144C100.599 239.4 100.812 239.603 101.111 239.752C101.42 239.901 101.847 239.976 102.391 239.976C102.935 239.976 103.356 239.901 103.655 239.752C103.964 239.603 104.183 239.389 104.311 239.112C104.439 238.824 104.503 238.483 104.503 238.088V232.232H105.927V237.992C105.927 239.112 105.639 239.917 105.063 240.408C104.497 240.899 103.607 241.144 102.391 241.144ZM110.499 241.16C110.211 241.16 109.933 241.112 109.667 241.016C109.4 240.92 109.181 240.749 109.011 240.504C108.84 240.259 108.755 239.917 108.755 239.48V232.232H110.179V239.304C110.179 239.549 110.232 239.725 110.339 239.832C110.445 239.939 110.616 239.992 110.851 239.992C110.947 239.992 111.048 239.981 111.155 239.96C111.261 239.939 111.363 239.912 111.459 239.88L111.651 240.92C111.448 241.016 111.251 241.08 111.059 241.112C110.867 241.144 110.68 241.16 110.499 241.16ZM118.213 241V235.16C118.213 234.467 118.053 233.976 117.733 233.688C117.424 233.389 116.901 233.24 116.165 233.24C115.632 233.24 115.12 233.315 114.629 233.464C114.149 233.603 113.691 233.8 113.253 234.056V232.728C113.563 232.568 113.979 232.419 114.501 232.28C115.035 232.141 115.632 232.072 116.293 232.072C116.859 232.072 117.349 232.136 117.765 232.264C118.181 232.381 118.523 232.563 118.789 232.808C119.067 233.053 119.275 233.368 119.413 233.752C119.552 234.125 119.621 234.568 119.621 235.08V241H118.213ZM115.461 241.16C114.523 241.16 113.803 240.947 113.301 240.52C112.811 240.083 112.565 239.459 112.565 238.648C112.565 237.763 112.885 237.08 113.525 236.6C114.176 236.12 115.227 235.837 116.677 235.752L118.501 235.64V236.824L116.869 236.936C115.781 237.011 115.029 237.181 114.613 237.448C114.208 237.715 114.005 238.104 114.005 238.616C114.005 239.096 114.155 239.448 114.453 239.672C114.763 239.896 115.189 240.008 115.733 240.008C115.915 240.008 116.08 239.997 116.229 239.976C116.379 239.944 116.523 239.907 116.661 239.864L116.885 240.936C116.683 241.011 116.459 241.064 116.213 241.096C115.979 241.139 115.728 241.16 115.461 241.16ZM125.306 241.16C124.303 241.16 123.525 240.92 122.97 240.44C122.426 239.949 122.154 239.219 122.154 238.248V237.272C122.154 236.739 122.229 236.317 122.378 236.008C122.527 235.699 122.687 235.432 122.858 235.208C123.039 234.963 123.194 234.749 123.322 234.568C123.461 234.387 123.53 234.168 123.53 233.912C123.53 233.688 123.471 233.528 123.354 233.432C123.247 233.336 123.109 233.288 122.938 233.288C122.81 233.288 122.671 233.309 122.522 233.352C122.383 233.395 122.245 233.448 122.106 233.512L121.786 232.488C121.978 232.36 122.213 232.269 122.49 232.216C122.778 232.163 123.029 232.136 123.242 232.136C123.637 232.136 123.951 232.205 124.186 232.344C124.431 232.483 124.607 232.675 124.714 232.92C124.821 233.155 124.874 233.432 124.874 233.752C124.874 234.147 124.805 234.472 124.666 234.728C124.538 234.984 124.383 235.235 124.202 235.48C124.021 235.747 123.871 236.003 123.754 236.248C123.637 236.493 123.578 236.813 123.578 237.208V238.152C123.578 238.643 123.658 239.021 123.818 239.288C123.978 239.555 124.191 239.741 124.458 239.848C124.725 239.944 125.007 239.992 125.306 239.992C125.839 239.992 126.245 239.869 126.522 239.624C126.81 239.368 126.954 238.979 126.954 238.456V232.232H128.378V238.536C128.378 239.357 128.117 240.003 127.594 240.472C127.082 240.931 126.319 241.16 125.306 241.16ZM131.432 233.832V230.696C131.432 230.056 131.277 229.597 130.968 229.32C130.669 229.043 130.285 228.904 129.816 228.904V228.296L131 227.784H135.272V228.904H132.024L132.008 228.968C132.243 229.128 132.44 229.373 132.6 229.704C132.771 230.024 132.856 230.445 132.856 230.968V233.832H131.432ZM133.176 241.16C132.888 241.16 132.611 241.112 132.344 241.016C132.077 240.92 131.859 240.749 131.688 240.504C131.517 240.259 131.432 239.917 131.432 239.48V232.232H132.856V239.304C132.856 239.549 132.909 239.725 133.016 239.832C133.123 239.939 133.293 239.992 133.528 239.992C133.624 239.992 133.725 239.981 133.832 239.96C133.939 239.939 134.04 239.912 134.136 239.88L134.328 240.92C134.125 241.016 133.928 241.08 133.736 241.112C133.544 241.144 133.357 241.16 133.176 241.16ZM135.938 241V232.232H136.93L137.186 233.624H137.25C137.431 233.144 137.762 232.765 138.242 232.488C138.722 232.211 139.303 232.072 139.986 232.072C140.626 232.072 141.17 232.184 141.618 232.408C142.076 232.621 142.428 232.952 142.674 233.4C142.919 233.848 143.042 234.429 143.042 235.144V241H141.618V235.224C141.618 234.584 141.458 234.099 141.138 233.768C140.818 233.437 140.343 233.272 139.714 233.272C139.212 233.272 138.786 233.389 138.434 233.624C138.082 233.859 137.815 234.179 137.634 234.584C137.452 234.979 137.362 235.427 137.362 235.928V241H135.938ZM148.104 241.16C147.474 241.16 146.888 241.101 146.344 240.984C145.81 240.856 145.357 240.707 144.984 240.536L145.4 239.384C145.624 239.469 145.88 239.56 146.168 239.656C146.456 239.752 146.765 239.832 147.096 239.896C147.437 239.949 147.784 239.976 148.136 239.976C148.701 239.976 149.17 239.869 149.544 239.656C149.917 239.443 150.104 239.133 150.104 238.728C150.104 238.483 150.034 238.275 149.896 238.104C149.768 237.923 149.565 237.757 149.288 237.608C149.01 237.459 148.653 237.315 148.216 237.176C147.544 236.963 146.973 236.739 146.504 236.504C146.045 236.259 145.693 235.971 145.448 235.64C145.213 235.299 145.096 234.877 145.096 234.376C145.096 233.928 145.213 233.533 145.448 233.192C145.693 232.84 146.066 232.568 146.568 232.376C147.08 232.173 147.73 232.072 148.52 232.072C149.032 232.072 149.512 232.12 149.96 232.216C150.418 232.301 150.776 232.424 151.032 232.584V233.784C150.85 233.699 150.621 233.613 150.344 233.528C150.077 233.443 149.784 233.373 149.464 233.32C149.144 233.267 148.813 233.24 148.472 233.24C147.757 233.24 147.25 233.352 146.952 233.576C146.664 233.789 146.52 234.035 146.52 234.312C146.52 234.547 146.584 234.744 146.712 234.904C146.85 235.064 147.08 235.219 147.4 235.368C147.73 235.517 148.173 235.688 148.728 235.88C149.24 236.051 149.709 236.248 150.136 236.472C150.562 236.696 150.898 236.979 151.144 237.32C151.4 237.651 151.528 238.077 151.528 238.6C151.528 239.048 151.416 239.469 151.192 239.864C150.978 240.248 150.621 240.563 150.12 240.808C149.618 241.043 148.946 241.16 148.104 241.16ZM153.452 241V235.4C153.452 234.323 153.74 233.501 154.316 232.936C154.892 232.36 155.81 232.072 157.068 232.072C157.666 232.072 158.178 232.147 158.604 232.296C159.031 232.435 159.367 232.675 159.612 233.016C159.996 233.208 160.268 233.512 160.428 233.928C160.599 234.344 160.684 234.835 160.684 235.4V241H159.26V235.4C159.26 234.685 159.074 234.152 158.7 233.8C158.338 233.437 157.794 233.256 157.068 233.256C156.343 233.256 155.794 233.437 155.42 233.8C155.058 234.152 154.876 234.685 154.876 235.4V237.176L154.924 237.192C155.17 236.776 155.458 236.504 155.788 236.376C156.13 236.237 156.61 236.168 157.228 236.168H157.756V237.336H157.228C156.588 237.336 156.098 237.427 155.756 237.608C155.415 237.789 155.18 238.029 155.052 238.328C154.935 238.616 154.876 238.941 154.876 239.304V241H153.452ZM159.612 233.464L158.812 232.712C159.09 232.669 159.351 232.563 159.596 232.392C159.842 232.221 159.964 231.976 159.964 231.656H161.356C161.356 231.987 161.276 232.28 161.116 232.536C160.956 232.781 160.743 232.984 160.476 233.144C160.22 233.293 159.932 233.4 159.612 233.464ZM158.575 230.84C158.127 230.84 157.77 230.776 157.503 230.648C157.237 230.52 157.045 230.355 156.927 230.152C156.799 229.949 156.735 229.736 156.735 229.512C156.735 229.352 156.762 229.181 156.815 229C156.858 228.808 156.917 228.653 156.991 228.536L158.191 228.744C158.17 228.787 158.149 228.861 158.127 228.968C158.106 229.064 158.095 229.155 158.095 229.24C158.095 229.379 158.138 229.501 158.223 229.608C158.309 229.704 158.453 229.752 158.655 229.752H162.703V230.84H158.575ZM164.443 241L162.859 232.232H164.315L164.939 236.04C164.992 236.349 165.046 236.749 165.099 237.24C165.152 237.731 165.216 238.312 165.291 238.984H165.339C165.435 238.525 165.526 238.115 165.611 237.752C165.707 237.389 165.792 237.064 165.867 236.776C165.952 236.477 166.027 236.216 166.091 235.992L167.163 232.232H168.331L169.419 235.992C169.483 236.216 169.552 236.477 169.627 236.776C169.712 237.064 169.798 237.389 169.883 237.752C169.979 238.115 170.075 238.525 170.171 238.984H170.235C170.299 238.312 170.358 237.731 170.411 237.24C170.464 236.749 170.518 236.349 170.571 236.04L171.211 232.232H172.667L171.083 241H169.691L168.219 236.232C168.144 235.965 168.07 235.688 167.995 235.4C167.931 235.112 167.867 234.733 167.803 234.264H167.739C167.696 234.573 167.648 234.845 167.595 235.08C167.542 235.315 167.488 235.523 167.435 235.704C167.382 235.885 167.328 236.061 167.275 236.232L165.835 241H164.443ZM174.672 241V232.232H175.664L175.92 233.624H175.984C176.165 233.144 176.496 232.765 176.976 232.488C177.456 232.211 178.037 232.072 178.72 232.072C179.36 232.072 179.904 232.184 180.352 232.408C180.811 232.621 181.163 232.952 181.408 233.4C181.653 233.848 181.776 234.429 181.776 235.144V241H180.352V235.224C180.352 234.584 180.192 234.099 179.872 233.768C179.552 233.437 179.077 233.272 178.448 233.272C177.947 233.272 177.52 233.389 177.168 233.624C176.816 233.859 176.549 234.179 176.368 234.584C176.187 234.979 176.096 235.427 176.096 235.928V241H174.672ZM178.983 231.304C178.909 231.187 178.85 231.037 178.807 230.856C178.754 230.664 178.727 230.477 178.727 230.296C178.727 230.072 178.775 229.864 178.871 229.672C178.967 229.469 179.138 229.304 179.383 229.176C179.629 229.048 179.97 228.984 180.407 228.984H182.599V230.088H180.775C180.562 230.088 180.391 230.131 180.263 230.216C180.135 230.291 180.071 230.424 180.071 230.616C180.071 230.691 180.087 230.771 180.119 230.856C180.141 230.941 180.173 231.027 180.215 231.112L178.983 231.304Z" fill="black"/>
<rect x="56" y="280" width="300" height="56" rx="4" stroke="#D8DADC"/>
<path opacity="0.38" d="M76.4 313.16C75.248 313.16 74.384 312.861 73.808 312.264C73.2427 311.656 72.96 310.707 72.96 309.416C72.96 309.203 72.9653 308.973 72.976 308.728C72.9973 308.472 73.0187 308.221 73.04 307.976H76.4V309.096H74.384V309.416C74.384 310.088 74.4587 310.616 74.608 311C74.7573 311.373 74.976 311.635 75.264 311.784C75.5627 311.933 75.9307 312.008 76.368 312.008C76.848 312.008 77.264 311.917 77.616 311.736C77.968 311.555 78.24 311.224 78.432 310.744C78.624 310.264 78.72 309.576 78.72 308.68C78.72 307.891 78.6347 307.245 78.464 306.744C78.2933 306.243 78.0107 305.869 77.616 305.624C77.232 305.379 76.7093 305.256 76.048 305.256C75.7067 305.256 75.376 305.288 75.056 305.352C74.736 305.405 74.4267 305.491 74.128 305.608C73.8293 305.715 73.536 305.853 73.248 306.024V304.696C73.4613 304.579 73.7227 304.477 74.032 304.392C74.3413 304.296 74.6827 304.221 75.056 304.168C75.4293 304.104 75.8187 304.072 76.224 304.072C77.1627 304.072 77.92 304.264 78.496 304.648C79.0827 305.021 79.5093 305.555 79.776 306.248C80.0427 306.931 80.176 307.741 80.176 308.68C80.176 309.619 80.0533 310.424 79.808 311.096C79.5627 311.768 79.1627 312.28 78.608 312.632C78.064 312.984 77.328 313.16 76.4 313.16ZM72.8073 302.84V302.216L73.9752 301.704H79.6072V302.84H72.8073ZM78.2792 302.216V300.408H79.6232V302.216H78.2792ZM84.4675 313.16C84.1795 313.16 83.9022 313.112 83.6355 313.016C83.3688 312.92 83.1502 312.749 82.9795 312.504C82.8088 312.259 82.7235 311.917 82.7235 311.48V304.232H84.1475V311.304C84.1475 311.549 84.2008 311.725 84.3075 311.832C84.4142 311.939 84.5848 311.992 84.8195 311.992C84.9155 311.992 85.0168 311.981 85.1235 311.96C85.2302 311.939 85.3315 311.912 85.4275 311.88L85.6195 312.92C85.4168 313.016 85.2195 313.08 85.0275 313.112C84.8355 313.144 84.6488 313.16 84.4675 313.16ZM91.4263 313.16C90.7436 313.16 90.1516 313.027 89.6503 312.76C89.1596 312.483 88.8236 312.099 88.6423 311.608H88.5783L88.4983 313H87.3303V304.232H88.7543V309.304C88.7543 309.837 88.8449 310.307 89.0263 310.712C89.2183 311.107 89.4903 311.416 89.8423 311.64C90.2049 311.853 90.6369 311.96 91.1383 311.96C91.7676 311.96 92.2369 311.795 92.5463 311.464C92.8556 311.133 93.0103 310.648 93.0103 310.008V304.232H94.4343V310.104C94.4343 310.808 94.3116 311.384 94.0663 311.832C93.8316 312.28 93.4903 312.616 93.0423 312.84C92.5943 313.053 92.0556 313.16 91.4263 313.16ZM102.166 313V307.16C102.166 306.467 102.006 305.976 101.686 305.688C101.377 305.389 100.854 305.24 100.118 305.24C99.585 305.24 99.073 305.315 98.5824 305.464C98.1024 305.603 97.6437 305.8 97.2064 306.056V304.728C97.5157 304.568 97.9317 304.419 98.4544 304.28C98.9877 304.141 99.585 304.072 100.246 304.072C100.812 304.072 101.302 304.136 101.718 304.264C102.134 304.381 102.476 304.563 102.742 304.808C103.02 305.053 103.228 305.368 103.366 305.752C103.505 306.125 103.574 306.568 103.574 307.08V313H102.166ZM99.4144 313.16C98.4757 313.16 97.7557 312.947 97.2544 312.52C96.7637 312.083 96.5184 311.459 96.5184 310.648C96.5184 309.763 96.8384 309.08 97.4784 308.6C98.129 308.12 99.1797 307.837 100.63 307.752L102.454 307.64V308.824L100.822 308.936C99.7344 309.011 98.9824 309.181 98.5664 309.448C98.161 309.715 97.9584 310.104 97.9584 310.616C97.9584 311.096 98.1077 311.448 98.4064 311.672C98.7157 311.896 99.1424 312.008 99.6864 312.008C99.8677 312.008 100.033 311.997 100.182 311.976C100.332 311.944 100.476 311.907 100.614 311.864L100.838 312.936C100.636 313.011 100.412 313.064 100.166 313.096C99.9317 313.139 99.681 313.16 99.4144 313.16Z" fill="black"/>
<rect x="56" y="352" width="300" height="56" rx="4" stroke="#D8DADC"/>
<path opacity="0.38" d="M75.76 385.16C75.1307 385.16 74.544 385.101 74 384.984C73.4667 384.856 73.0133 384.707 72.64 384.536L73.056 383.384C73.28 383.469 73.536 383.56 73.824 383.656C74.112 383.752 74.4213 383.832 74.752 383.896C75.0933 383.949 75.44 383.976 75.792 383.976C76.3573 383.976 76.8267 383.869 77.2 383.656C77.5733 383.443 77.76 383.133 77.76 382.728C77.76 382.483 77.6907 382.275 77.552 382.104C77.424 381.923 77.2213 381.757 76.944 381.608C76.6667 381.459 76.3093 381.315 75.872 381.176C75.2 380.963 74.6293 380.739 74.16 380.504C73.7013 380.259 73.3493 379.971 73.104 379.64C72.8693 379.299 72.752 378.877 72.752 378.376C72.752 377.928 72.8693 377.533 73.104 377.192C73.3493 376.84 73.7227 376.568 74.224 376.376C74.736 376.173 75.3867 376.072 76.176 376.072C76.688 376.072 77.168 376.12 77.616 376.216C78.0747 376.301 78.432 376.424 78.688 376.584V377.784C78.5067 377.699 78.2773 377.613 78 377.528C77.7333 377.443 77.44 377.373 77.12 377.32C76.8 377.267 76.4693 377.24 76.128 377.24C75.4133 377.24 74.9067 377.352 74.608 377.576C74.32 377.789 74.176 378.035 74.176 378.312C74.176 378.547 74.24 378.744 74.368 378.904C74.5067 379.064 74.736 379.219 75.056 379.368C75.3867 379.517 75.8293 379.688 76.384 379.88C76.896 380.051 77.3653 380.248 77.792 380.472C78.2187 380.696 78.5547 380.979 78.8 381.32C79.056 381.651 79.184 382.077 79.184 382.6C79.184 383.048 79.072 383.469 78.848 383.864C78.6347 384.248 78.2773 384.563 77.776 384.808C77.2747 385.043 76.6027 385.16 75.76 385.16ZM81.2365 385V376.232H82.6605V380.024H82.7085L86.3565 376.232H88.0205V376.28L82.6605 381.704V385H81.2365ZM86.6765 385V381.912C86.6765 381.283 86.4845 380.792 86.1005 380.44C85.7165 380.088 85.0818 379.912 84.1965 379.912L85.0285 378.872C85.7005 378.872 86.2605 378.995 86.7085 379.24C87.1672 379.475 87.5138 379.816 87.7485 380.264C87.9832 380.712 88.1005 381.251 88.1005 381.88V385H86.6765ZM86.1221 374.84C85.6741 374.84 85.3168 374.776 85.0501 374.648C84.7835 374.52 84.5915 374.355 84.4741 374.152C84.3461 373.949 84.2821 373.736 84.2821 373.512C84.2821 373.352 84.3088 373.181 84.3621 373C84.4048 372.808 84.4635 372.653 84.5381 372.536L85.7381 372.744C85.7168 372.787 85.6955 372.861 85.6741 372.968C85.6528 373.064 85.6421 373.155 85.6421 373.24C85.6421 373.379 85.6848 373.501 85.7701 373.608C85.8555 373.704 85.9995 373.752 86.2021 373.752H90.2501V374.84H86.1221ZM95.6351 385V379.16C95.6351 378.467 95.4751 377.976 95.1551 377.688C94.8458 377.389 94.3231 377.24 93.5871 377.24C93.0538 377.24 92.5418 377.315 92.0511 377.464C91.5711 377.603 91.1125 377.8 90.6751 378.056V376.728C90.9845 376.568 91.4005 376.419 91.9231 376.28C92.4565 376.141 93.0538 376.072 93.7151 376.072C94.2805 376.072 94.7605 376.136 95.1551 376.264C95.5605 376.392 95.8591 376.627 96.0511 376.968C96.4245 377.139 96.6805 377.405 96.8191 377.768C96.9685 378.131 97.0431 378.568 97.0431 379.08V385H95.6351ZM92.8831 385.16C91.9445 385.16 91.2245 384.947 90.7231 384.52C90.2325 384.083 89.9871 383.459 89.9871 382.648C89.9871 381.763 90.3071 381.08 90.9471 380.6C91.5978 380.12 92.6485 379.837 94.0991 379.752L95.9231 379.64V380.824L94.2911 380.936C93.2031 381.011 92.4511 381.181 92.0351 381.448C91.6298 381.715 91.4271 382.104 91.4271 382.616C91.4271 383.096 91.5765 383.448 91.8751 383.672C92.1845 383.896 92.6111 384.008 93.1551 384.008C93.3365 384.008 93.5018 383.997 93.6511 383.976C93.8005 383.944 93.9445 383.907 94.0831 383.864L94.3071 384.936C94.1045 385.011 93.8805 385.064 93.6351 385.096C93.4005 385.139 93.1498 385.16 92.8831 385.16ZM96.0031 377.464L95.2031 376.712C95.4805 376.669 95.7418 376.563 95.9871 376.392C96.2325 376.221 96.3551 375.976 96.3551 375.656H97.7471C97.7471 375.987 97.6671 376.28 97.5071 376.536C97.3578 376.781 97.1498 376.984 96.8831 377.144C96.6165 377.293 96.3231 377.4 96.0031 377.464ZM99.7354 385V377.784C99.7354 377.325 99.826 376.973 100.007 376.728C100.189 376.483 100.423 376.312 100.711 376.216C100.999 376.12 101.309 376.072 101.639 376.072C101.757 376.072 101.906 376.088 102.087 376.12C102.279 376.152 102.445 376.2 102.583 376.264L102.407 377.336C102.301 377.304 102.194 377.283 102.087 377.272C101.981 377.251 101.895 377.24 101.831 377.24C101.565 377.24 101.378 377.304 101.271 377.432C101.175 377.56 101.127 377.741 101.127 377.976V380.456C101.127 380.787 101.122 381.133 101.111 381.496C101.111 381.848 101.095 382.275 101.063 382.776H101.127C101.341 382.307 101.538 381.917 101.719 381.608C101.901 381.288 102.071 380.989 102.231 380.712L103.079 379.272H103.975L104.823 380.712C104.994 381 105.143 381.256 105.271 381.48C105.399 381.704 105.517 381.923 105.623 382.136C105.73 382.339 105.831 382.552 105.927 382.776H105.991C105.959 382.275 105.938 381.848 105.927 381.496C105.927 381.133 105.927 380.787 105.927 380.456V376.232H107.319V385H106.055L103.575 380.808H103.511L100.999 385H99.7354ZM105.902 374.84V371.464H107.31V374.84H105.902ZM112.51 385V378.776C112.51 378.253 112.388 377.869 112.142 377.624C111.908 377.379 111.508 377.256 110.942 377.256C110.558 377.256 110.196 377.309 109.854 377.416C109.524 377.512 109.204 377.651 108.894 377.832V376.552C109.108 376.445 109.412 376.339 109.806 376.232C110.201 376.125 110.67 376.072 111.214 376.072C111.769 376.072 112.249 376.152 112.654 376.312C113.06 376.472 113.374 376.739 113.598 377.112C113.822 377.475 113.934 377.96 113.934 378.568V385H112.51ZM119.554 385.16C118.925 385.16 118.381 385.053 117.922 384.84C117.474 384.616 117.128 384.28 116.882 383.832C116.648 383.384 116.53 382.803 116.53 382.088V376.232H117.954V382.008C117.954 382.648 118.114 383.133 118.434 383.464C118.765 383.795 119.24 383.96 119.858 383.96C120.605 383.96 121.181 383.72 121.586 383.24C122.002 382.76 122.21 382.115 122.21 381.304V376.232H123.634V385H122.45L122.386 383.704H122.306C122.114 384.131 121.778 384.483 121.298 384.76C120.829 385.027 120.248 385.16 119.554 385.16Z" fill="black"/>
<rect x="56" y="424" width="300" height="56" rx="4" stroke="#D8DADC"/>
<path opacity="0.38" d="M76.672 457.144C75.808 457.144 75.1147 457.032 74.592 456.808C74.08 456.584 73.7067 456.269 73.472 455.864C73.248 455.459 73.136 454.979 73.136 454.424C73.136 453.933 73.2053 453.544 73.344 453.256C73.4933 452.957 73.6747 452.739 73.888 452.6C74.112 452.461 74.3413 452.371 74.576 452.328V452.264C74.3627 452.2 74.1387 452.093 73.904 451.944C73.6693 451.795 73.472 451.587 73.312 451.32C73.1627 451.053 73.088 450.717 73.088 450.312C73.088 449.939 73.1733 449.587 73.344 449.256C73.5147 448.925 73.792 448.653 74.176 448.44C74.56 448.227 75.0667 448.12 75.696 448.12C75.952 448.12 76.2187 448.141 76.496 448.184C76.7733 448.216 76.9867 448.275 77.136 448.36L76.88 449.464C76.7627 449.421 76.608 449.384 76.416 449.352C76.2347 449.309 76.0427 449.288 75.84 449.288C75.392 449.288 75.0613 449.395 74.848 449.608C74.6347 449.811 74.528 450.083 74.528 450.424C74.528 450.797 74.6187 451.08 74.8 451.272C74.992 451.464 75.232 451.597 75.52 451.672C75.8187 451.736 76.128 451.768 76.448 451.768H76.752V452.808H76.448C75.808 452.808 75.3333 452.925 75.024 453.16C74.7253 453.384 74.576 453.763 74.576 454.296C74.576 454.605 74.6347 454.888 74.752 455.144C74.88 455.4 75.0933 455.603 75.392 455.752C75.7013 455.901 76.128 455.976 76.672 455.976C77.216 455.976 77.6373 455.901 77.936 455.752C78.2453 455.603 78.464 455.389 78.592 455.112C78.72 454.824 78.784 454.483 78.784 454.088V448.232H80.208V453.992C80.208 455.112 79.92 455.917 79.344 456.408C78.7787 456.899 77.888 457.144 76.672 457.144ZM73.401 446.84V446.216L74.569 445.704H80.201V446.84H73.401ZM76.697 446.216V444.408H77.881V446.216H76.697ZM79.033 446.216V444.408H80.201V446.216H79.033ZM85.82 457.16C85.1907 457.16 84.6467 457.053 84.188 456.84C83.74 456.616 83.3933 456.28 83.148 455.832C82.9133 455.384 82.796 454.803 82.796 454.088V448.232H84.22V454.008C84.22 454.648 84.38 455.133 84.7 455.464C85.0307 455.795 85.5053 455.96 86.124 455.96C86.8707 455.96 87.4467 455.72 87.852 455.24C88.268 454.76 88.476 454.115 88.476 453.304V448.232H89.9V457H88.716L88.652 455.704H88.572C88.38 456.131 88.044 456.483 87.564 456.76C87.0947 457.027 86.5133 457.16 85.82 457.16ZM95.9845 457.144C95.1205 457.144 94.4272 457.032 93.9045 456.808C93.3925 456.584 93.0192 456.269 92.7845 455.864C92.5605 455.459 92.4485 454.979 92.4485 454.424C92.4485 453.933 92.5178 453.544 92.6565 453.256C92.8058 452.957 92.9872 452.739 93.2005 452.6C93.4245 452.461 93.6538 452.371 93.8885 452.328V452.264C93.6752 452.2 93.4512 452.093 93.2165 451.944C92.9818 451.795 92.7845 451.587 92.6245 451.32C92.4752 451.053 92.4005 450.717 92.4005 450.312C92.4005 449.939 92.4858 449.587 92.6565 449.256C92.8272 448.925 93.1045 448.653 93.4885 448.44C93.8725 448.227 94.3792 448.12 95.0085 448.12C95.2645 448.12 95.5312 448.141 95.8085 448.184C96.0858 448.216 96.2992 448.275 96.4485 448.36L96.1925 449.464C96.0752 449.421 95.9205 449.384 95.7285 449.352C95.5472 449.309 95.3552 449.288 95.1525 449.288C94.7045 449.288 94.3738 449.395 94.1605 449.608C93.9472 449.811 93.8405 450.083 93.8405 450.424C93.8405 450.797 93.9312 451.08 94.1125 451.272C94.3045 451.464 94.5445 451.597 94.8325 451.672C95.1312 451.736 95.4405 451.768 95.7605 451.768H96.0645V452.808H95.7605C95.1205 452.808 94.6458 452.925 94.3365 453.16C94.0378 453.384 93.8885 453.763 93.8885 454.296C93.8885 454.605 93.9472 454.888 94.0645 455.144C94.1925 455.4 94.4058 455.603 94.7045 455.752C95.0138 455.901 95.4405 455.976 95.9845 455.976C96.5285 455.976 96.9498 455.901 97.2485 455.752C97.5578 455.603 97.7765 455.389 97.9045 455.112C98.0325 454.824 98.0965 454.483 98.0965 454.088V448.232H99.5205V453.992C99.5205 455.112 99.2325 455.917 98.6565 456.408C98.0912 456.899 97.2005 457.144 95.9845 457.144ZM97.4815 446.84C97.0335 446.84 96.6762 446.776 96.4095 446.648C96.1428 446.52 95.9508 446.355 95.8335 446.152C95.7055 445.949 95.6415 445.736 95.6415 445.512C95.6415 445.352 95.6682 445.181 95.7215 445C95.7642 444.808 95.8228 444.653 95.8975 444.536L97.0975 444.744C97.0762 444.787 97.0548 444.861 97.0335 444.968C97.0122 445.064 97.0015 445.155 97.0015 445.24C97.0015 445.379 97.0442 445.501 97.1295 445.608C97.2148 445.704 97.3588 445.752 97.5615 445.752H101.61V446.84H97.4815ZM105.133 457.16C104.503 457.16 103.959 457.053 103.501 456.84C103.053 456.616 102.706 456.28 102.461 455.832C102.226 455.384 102.109 454.803 102.109 454.088V448.232H103.533V454.008C103.533 454.648 103.693 455.133 104.013 455.464C104.343 455.795 104.818 455.96 105.437 455.96C106.183 455.96 106.759 455.72 107.165 455.24C107.581 454.76 107.789 454.115 107.789 453.304V448.232H109.213V457H108.029L107.965 455.704H107.885C107.693 456.131 107.357 456.483 106.877 456.76C106.407 457.027 105.826 457.16 105.133 457.16ZM114.385 457.16C113.756 457.16 113.169 457.101 112.625 456.984C112.092 456.856 111.638 456.707 111.265 456.536L111.681 455.384C111.905 455.469 112.161 455.56 112.449 455.656C112.737 455.752 113.046 455.832 113.377 455.896C113.718 455.949 114.065 455.976 114.417 455.976C114.982 455.976 115.452 455.869 115.825 455.656C116.198 455.443 116.385 455.133 116.385 454.728C116.385 454.483 116.316 454.275 116.177 454.104C116.049 453.923 115.846 453.757 115.569 453.608C115.292 453.459 114.934 453.315 114.497 453.176C113.825 452.963 113.254 452.739 112.785 452.504C112.326 452.259 111.974 451.971 111.729 451.64C111.494 451.299 111.377 450.877 111.377 450.376C111.377 449.928 111.494 449.533 111.729 449.192C111.974 448.84 112.348 448.568 112.849 448.376C113.361 448.173 114.012 448.072 114.801 448.072C115.313 448.072 115.793 448.12 116.241 448.216C116.7 448.301 117.057 448.424 117.313 448.584V449.784C117.132 449.699 116.902 449.613 116.625 449.528C116.358 449.443 116.065 449.373 115.745 449.32C115.425 449.267 115.094 449.24 114.753 449.24C114.038 449.24 113.532 449.352 113.233 449.576C112.945 449.789 112.801 450.035 112.801 450.312C112.801 450.547 112.865 450.744 112.993 450.904C113.132 451.064 113.361 451.219 113.681 451.368C114.012 451.517 114.454 451.688 115.009 451.88C115.521 452.051 115.99 452.248 116.417 452.472C116.844 452.696 117.18 452.979 117.425 453.32C117.681 453.651 117.809 454.077 117.809 454.6C117.809 455.048 117.697 455.469 117.473 455.864C117.26 456.248 116.902 456.563 116.401 456.808C115.9 457.043 115.228 457.16 114.385 457.16ZM119.862 457V448.232H121.286V452.024H121.334L124.982 448.232H126.646V448.28L121.286 453.704V457H119.862ZM125.302 457V453.912C125.302 453.283 125.11 452.792 124.726 452.44C124.342 452.088 123.707 451.912 122.822 451.912L123.654 450.872C124.326 450.872 124.886 450.995 125.334 451.24C125.792 451.475 126.139 451.816 126.374 452.264C126.608 452.712 126.726 453.251 126.726 453.88V457H125.302ZM124.747 446.84C124.299 446.84 123.942 446.776 123.675 446.648C123.408 446.52 123.216 446.355 123.099 446.152C122.971 445.949 122.907 445.736 122.907 445.512C122.907 445.352 122.934 445.181 122.987 445C123.03 444.808 123.088 444.653 123.163 444.536L124.363 444.744C124.342 444.787 124.32 444.861 124.299 444.968C124.278 445.064 124.267 445.155 124.267 445.24C124.267 445.379 124.31 445.501 124.395 445.608C124.48 445.704 124.624 445.752 124.827 445.752H128.875V446.84H124.747ZM134.26 457V451.16C134.26 450.467 134.1 449.976 133.78 449.688C133.471 449.389 132.948 449.24 132.212 449.24C131.679 449.24 131.167 449.315 130.676 449.464C130.196 449.603 129.737 449.8 129.3 450.056V448.728C129.609 448.568 130.025 448.419 130.548 448.28C131.081 448.141 131.679 448.072 132.34 448.072C132.905 448.072 133.385 448.136 133.78 448.264C134.185 448.392 134.484 448.627 134.676 448.968C135.049 449.139 135.305 449.405 135.444 449.768C135.593 450.131 135.668 450.568 135.668 451.08V457H134.26ZM131.508 457.16C130.569 457.16 129.849 456.947 129.348 456.52C128.857 456.083 128.612 455.459 128.612 454.648C128.612 453.763 128.932 453.08 129.572 452.6C130.223 452.12 131.273 451.837 132.724 451.752L134.548 451.64V452.824L132.916 452.936C131.828 453.011 131.076 453.181 130.66 453.448C130.255 453.715 130.052 454.104 130.052 454.616C130.052 455.096 130.201 455.448 130.5 455.672C130.809 455.896 131.236 456.008 131.78 456.008C131.961 456.008 132.127 455.997 132.276 455.976C132.425 455.944 132.569 455.907 132.708 455.864L132.932 456.936C132.729 457.011 132.505 457.064 132.26 457.096C132.025 457.139 131.775 457.16 131.508 457.16ZM134.628 449.464L133.828 448.712C134.105 448.669 134.367 448.563 134.612 448.392C134.857 448.221 134.98 447.976 134.98 447.656H136.372C136.372 447.987 136.292 448.28 136.132 448.536C135.983 448.781 135.775 448.984 135.508 449.144C135.241 449.293 134.948 449.4 134.628 449.464ZM138.36 457V449.784C138.36 449.325 138.451 448.973 138.632 448.728C138.814 448.483 139.048 448.312 139.336 448.216C139.624 448.12 139.934 448.072 140.264 448.072C140.382 448.072 140.531 448.088 140.712 448.12C140.904 448.152 141.07 448.2 141.208 448.264L141.032 449.336C140.926 449.304 140.819 449.283 140.712 449.272C140.606 449.251 140.52 449.24 140.456 449.24C140.19 449.24 140.003 449.304 139.896 449.432C139.8 449.56 139.752 449.741 139.752 449.976V452.456C139.752 452.787 139.747 453.133 139.736 453.496C139.736 453.848 139.72 454.275 139.688 454.776H139.752C139.966 454.307 140.163 453.917 140.344 453.608C140.526 453.288 140.696 452.989 140.856 452.712L141.704 451.272H142.6L143.448 452.712C143.619 453 143.768 453.256 143.896 453.48C144.024 453.704 144.142 453.923 144.248 454.136C144.355 454.339 144.456 454.552 144.552 454.776H144.616C144.584 454.275 144.563 453.848 144.552 453.496C144.552 453.133 144.552 452.787 144.552 452.456V448.232H145.944V457H144.68L142.2 452.808H142.136L139.624 457H138.36ZM144.527 446.84V443.464H145.935V446.84H144.527ZM151.135 457V450.776C151.135 450.253 151.013 449.869 150.767 449.624C150.533 449.379 150.133 449.256 149.567 449.256C149.183 449.256 148.821 449.309 148.479 449.416C148.149 449.512 147.829 449.651 147.519 449.832V448.552C147.733 448.445 148.037 448.339 148.431 448.232C148.826 448.125 149.295 448.072 149.839 448.072C150.394 448.072 150.874 448.152 151.279 448.312C151.685 448.472 151.999 448.739 152.223 449.112C152.447 449.475 152.559 449.96 152.559 450.568V457H151.135ZM158.179 457.16C157.55 457.16 157.006 457.053 156.547 456.84C156.099 456.616 155.753 456.28 155.507 455.832C155.273 455.384 155.155 454.803 155.155 454.088V448.232H156.579V454.008C156.579 454.648 156.739 455.133 157.059 455.464C157.39 455.795 157.865 455.96 158.483 455.96C159.23 455.96 159.806 455.72 160.211 455.24C160.627 454.76 160.835 454.115 160.835 453.304V448.232H162.259V457H161.075L161.011 455.704H160.931C160.739 456.131 160.403 456.483 159.923 456.76C159.454 457.027 158.873 457.16 158.179 457.16Z" fill="black"/>
<rect x="56" y="520" width="300" height="30" fill="#E1E3E3"/>
<path d="M186.479 540.488C186.18 540.488 185.892 540.44 185.615 540.344C185.348 540.248 185.129 540.077 184.959 539.832C184.799 539.586 184.719 539.245 184.719 538.808V537.256C184.719 536.594 184.857 536.114 185.135 535.816C185.423 535.517 185.796 535.309 186.255 535.192L186.271 535.144L184.431 534.472V533.944C184.431 533.506 184.575 533.096 184.863 532.712C185.151 532.317 185.561 532.002 186.095 531.768C186.639 531.522 187.289 531.4 188.047 531.4C188.708 531.4 189.316 531.506 189.871 531.72C190.425 531.922 190.868 532.248 191.199 532.696C191.54 533.133 191.711 533.709 191.711 534.424V540.328H190.287V534.568C190.287 533.853 190.068 533.346 189.631 533.048C189.193 532.738 188.66 532.584 188.031 532.584C187.369 532.584 186.847 532.722 186.463 533C186.079 533.266 185.887 533.608 185.887 534.024L187.711 534.888L187.583 535.656C187.188 535.666 186.847 535.768 186.559 535.96C186.281 536.141 186.143 536.514 186.143 537.08V538.648C186.143 538.882 186.196 539.053 186.303 539.16C186.409 539.266 186.58 539.32 186.815 539.32C186.921 539.32 187.023 539.314 187.119 539.304C187.225 539.282 187.321 539.256 187.407 539.224L187.615 540.248C187.412 540.344 187.215 540.408 187.023 540.44C186.841 540.472 186.66 540.488 186.479 540.488ZM189.497 530.168C189.049 530.168 188.691 530.104 188.425 529.976C188.158 529.848 187.966 529.682 187.849 529.48C187.721 529.277 187.657 529.064 187.657 528.84C187.657 528.68 187.683 528.509 187.737 528.328C187.779 528.136 187.838 527.981 187.913 527.864L189.113 528.072C189.091 528.114 189.07 528.189 189.049 528.296C189.027 528.392 189.017 528.482 189.017 528.568C189.017 528.706 189.059 528.829 189.145 528.936C189.23 529.032 189.374 529.08 189.577 529.08H193.625V530.168H189.497ZM197.288 540.488C196.434 540.488 195.762 540.29 195.272 539.896C194.792 539.49 194.45 538.946 194.248 538.264C194.056 537.581 193.96 536.829 193.96 536.008C193.96 535.101 194.05 534.354 194.232 533.768C194.424 533.17 194.69 532.701 195.032 532.36C195.384 532.008 195.8 531.762 196.28 531.624C196.77 531.474 197.309 531.4 197.896 531.4C198.749 531.4 199.442 531.528 199.976 531.784C200.52 532.029 200.92 532.381 201.176 532.84C201.432 533.298 201.56 533.848 201.56 534.488V540.328H200.152V534.616C200.152 533.954 199.986 533.453 199.656 533.112C199.325 532.76 198.754 532.584 197.944 532.584C197.453 532.584 197.01 532.674 196.616 532.856C196.232 533.037 195.928 533.373 195.704 533.864C195.49 534.354 195.384 535.074 195.384 536.024C195.384 536.642 195.442 537.202 195.56 537.704C195.688 538.194 195.906 538.584 196.216 538.872C196.525 539.16 196.957 539.304 197.512 539.304C197.672 539.304 197.821 539.293 197.96 539.272C198.098 539.25 198.232 539.218 198.36 539.176L198.504 540.28C198.333 540.354 198.136 540.408 197.912 540.44C197.698 540.472 197.49 540.488 197.288 540.488ZM204.619 533.16V530.296C204.619 529.89 204.656 529.565 204.731 529.32C204.806 529.064 204.907 528.856 205.035 528.696C205.163 528.536 205.302 528.402 205.451 528.296L205.435 528.232H202.651L203.019 527.112H207.531V528.232C207.136 528.232 206.79 528.36 206.491 528.616C206.192 528.872 206.043 529.341 206.043 530.024V533.16H204.619ZM206.363 540.488C206.075 540.488 205.798 540.44 205.531 540.344C205.264 540.248 205.046 540.077 204.875 539.832C204.704 539.586 204.619 539.245 204.619 538.808V531.56H206.043V538.632C206.043 538.877 206.096 539.053 206.203 539.16C206.31 539.266 206.48 539.32 206.715 539.32C206.811 539.32 206.912 539.309 207.019 539.288C207.126 539.266 207.227 539.24 207.323 539.208L207.515 540.248C207.312 540.344 207.115 540.408 206.923 540.44C206.731 540.472 206.544 540.488 206.363 540.488ZM212.362 540.488C211.104 540.488 210.202 540.2 209.658 539.624C209.114 539.048 208.842 538.226 208.842 537.16V531.56H210.266V537.176C210.266 537.89 210.437 538.424 210.778 538.776C211.12 539.128 211.648 539.304 212.362 539.304C213.088 539.304 213.621 539.128 213.962 538.776C214.314 538.424 214.49 537.89 214.49 537.176V528.408H215.914V537.16C215.914 538.226 215.637 539.048 215.082 539.624C214.538 540.2 213.632 540.488 212.362 540.488Z" fill="#8E9192"/>
</svg>
