<svg width="412" height="844" viewBox="0 0 412 844" fill="none" xmlns="http://www.w3.org/2000/svg">
<g clip-path="url(#clip0_60_434)">
<rect width="412" height="844" rx="16" fill="#F8FAFA"/>
<path d="M29.0832 70.8914C29.1077 70.7798 29.1686 70.5559 29.2596 70.3527C29.361 70.1261 29.4988 69.9243 29.6598 69.933C29.9338 69.9485 30.1309 70.1426 30.3044 70.3501C30.8006 70.9421 30.9215 71.8693 30.2528 72.4745C30.1192 72.5953 29.9368 72.5812 29.782 72.5513C29.1479 72.4304 28.9489 71.5238 29.0832 70.8914ZM31.6224 70.9867C31.4582 71.0344 31.308 70.9304 31.186 70.8277C30.6871 70.403 30.8799 69.4596 31.2521 68.9368C31.3175 68.8446 31.4607 68.6663 31.6202 68.5202C31.7984 68.3591 31.9982 68.2386 32.1342 68.3269C32.3638 68.4764 32.4545 68.7534 32.5207 69.0331C32.7097 69.8279 32.4404 70.751 31.6224 70.9867ZM33.5389 69.9558C33.3737 69.9393 33.2676 69.7831 33.1888 69.6375C32.8637 69.039 33.3313 68.1986 33.8328 67.8318C33.9212 67.7676 34.1073 67.6484 34.2978 67.5672C34.5101 67.478 34.7296 67.4371 34.8253 67.5733C34.9884 67.8043 34.9863 68.1076 34.9603 68.4023C34.8889 69.2438 34.358 70.0355 33.5389 69.9558ZM35.2361 69.3159C35.1394 68.61 35.838 67.9904 36.412 67.8387C36.5133 67.8128 36.7209 67.7726 36.9192 67.7716C37.1407 67.7704 37.3522 67.8197 37.3945 67.9889C37.4649 68.2764 37.3635 68.5666 37.2433 68.8415C36.9008 69.6192 36.161 70.1691 35.4474 69.7617C35.3026 69.6812 35.2594 69.4881 35.2361 69.3159ZM37.0307 69.9898C37.0358 69.8056 37.1725 69.6566 37.299 69.538C37.8201 69.053 38.6024 69.3854 38.9592 69.8569C39.0216 69.9401 39.1394 70.1189 39.2223 70.3106C39.3135 70.5259 39.3628 70.7565 39.2451 70.8924C39.0462 71.1206 38.7729 71.1825 38.5057 71.2183C37.7459 71.3187 37.0034 70.9062 37.0307 69.9898ZM34.8627 70.8588C34.8879 70.6724 35.0373 70.5415 35.1756 70.4405C35.7399 70.0215 36.473 70.4581 36.773 70.9788C36.8256 71.0692 36.9212 71.2639 36.9831 71.4673C37.0497 71.6955 37.0734 71.9331 36.9443 72.0535C36.7238 72.2562 36.4492 72.2822 36.1823 72.2846C35.423 72.2849 34.7364 71.7742 34.8627 70.8588ZM32.7381 71.0828C32.7816 70.8996 32.9427 70.7863 33.0888 70.7019C33.688 70.3536 34.3645 70.8848 34.6063 71.442C34.649 71.5395 34.7239 71.7478 34.7623 71.9597C34.8042 72.1956 34.8026 72.4372 34.6622 72.5419C34.4243 72.7168 34.1516 72.7089 33.8884 72.6769C33.1428 72.5822 32.5205 71.9835 32.7381 71.0828ZM30.9334 72.5212C30.9495 72.3356 31.0935 72.1963 31.2254 72.0862C31.772 71.6375 32.5288 72.0273 32.8545 72.5258C32.9123 72.6145 33.0178 72.8021 33.0892 73.0015C33.1666 73.2232 33.203 73.4589 33.0782 73.587C32.8665 73.802 32.5924 73.845 32.3252 73.8607C31.5647 73.9037 30.8511 73.4377 30.9334 72.5212ZM31.0722 75.4227C30.331 75.6755 29.5206 75.4307 29.3914 74.5384C29.3655 74.358 29.4763 74.1858 29.582 74.0456C30.0191 73.467 30.8556 73.628 31.2923 74.0098C31.3694 74.0773 31.5166 74.2245 31.6325 74.3937C31.7605 74.5823 31.8485 74.7957 31.7559 74.9509C31.5927 75.2152 31.3316 75.3318 31.0722 75.4227ZM28.8255 74.2468C28.7007 74.3799 28.5166 74.3815 28.3591 74.3666C27.7098 74.308 27.4429 73.4269 27.5314 72.7887C27.5464 72.6761 27.5918 72.4489 27.6676 72.2394C27.7517 72.0051 27.8747 71.7939 28.0377 71.7889C28.3144 71.7793 28.5262 71.9526 28.7169 72.1427C29.2579 72.6812 29.4495 73.5881 28.8255 74.2468Z" fill="#FFBD13"/>
<path d="M33.9478 70.7547C33.6902 70.6071 33.2904 70.6524 32.8573 70.7849C32.0845 71.023 31.2139 71.5427 30.8696 71.7506C29.3416 72.6795 28.0335 73.8582 27.0652 75.1542C27.1252 74.6831 27.1518 74.2589 27.1207 73.942C27.0053 72.8153 26.7032 71.6232 25.8215 70.6826C25.1441 69.9616 24.1514 69.4922 23.0321 69.2541C22.7989 69.2038 18.1227 68.822 17.9611 68.9086C17.8922 68.9455 17.7284 69.0888 17.7302 69.2541C17.7315 69.3685 17.8146 69.4198 17.8457 69.5204C17.8856 69.6512 22.3325 70.1075 22.5079 70.1477L22.619 70.1746C24.0959 70.5451 25.0176 71.2728 25.4551 72.4263C25.7416 73.1842 25.7993 73.9823 25.7571 74.7653C25.7083 75.6673 25.5439 76.6481 25.3862 77.4278C25.1974 77.2702 24.9976 77.121 24.7733 76.9885C24.4046 76.7705 23.9804 76.5878 23.5518 76.4486C23.1853 76.3296 23.1794 76.2954 22.7752 76.2015C22.0556 76.0305 21.8558 75.9356 21.1363 76.0547C20.8809 76.0966 20.5983 76.2571 21.2978 76.6176C22.4283 77.1943 23.24 77.8983 24.0217 78.7467C24.5259 79.2933 24.487 80.3599 25.0016 81.2792C25.344 81.8907 26.0173 82.7475 26.0173 82.7475C26.1639 82.9185 27.8195 84.2313 28.0949 84.2648C28.7411 84.3403 28.7953 84.2777 28.8797 83.7999C29.1484 82.2791 25.6405 81.3446 26.2712 79.8842C26.5755 79.1766 28.0535 77.5675 28.4511 76.8868C29.0638 75.842 29.794 74.7317 30.5776 73.7542C31.2105 72.9612 32.2329 72.271 33.0014 71.5517C33.2212 71.3438 34.332 70.9727 33.9478 70.7547Z" fill="#23C686"/>
<path d="M19.9993 84.3687C20.2192 83.8997 19.6558 69.8112 19.6558 69.8112L18.9581 69.7223L18.2605 69.6209C18.2605 69.6209 17.6746 83.9884 17.8848 84.2976C18.0949 84.6068 19.7794 84.8377 19.9993 84.3687Z" fill="#23C686"/>
<rect x="47" y="63.5" width="295" height="24" rx="4" fill="#ECEEEF"/>
<path d="M69 81.5L65 77.5M57 74.1667C57 74.7795 57.1207 75.3863 57.3552 75.9525C57.5898 76.5187 57.9335 77.0332 58.3668 77.4665C58.8002 77.8998 59.3146 78.2436 59.8808 78.4781C60.447 78.7126 61.0538 78.8333 61.6667 78.8333C62.2795 78.8333 62.8863 78.7126 63.4525 78.4781C64.0187 78.2436 64.5332 77.8998 64.9665 77.4665C65.3998 77.0332 65.7436 76.5187 65.9781 75.9525C66.2126 75.3863 66.3333 74.7795 66.3333 74.1667C66.3333 73.5538 66.2126 72.947 65.9781 72.3808C65.7436 71.8146 65.3998 71.3002 64.9665 70.8668C64.5332 70.4335 64.0187 70.0898 63.4525 69.8552C62.8863 69.6207 62.2795 69.5 61.6667 69.5C61.0538 69.5 60.447 69.6207 59.8808 69.8552C59.3146 70.0898 58.8002 70.4335 58.3668 70.8668C57.9335 71.3002 57.5898 71.8146 57.3552 72.3808C57.1207 72.947 57 73.5538 57 74.1667Z" stroke="#6F797A" stroke-width="2" stroke-linecap="round" stroke-linejoin="round"/>
<path d="M77.9453 83.75V68.8672H79.0469V83.75H77.9453Z" fill="#0A7AFF"/>
<path d="M85.634 80.5V75.6C85.634 74.6573 85.886 73.9387 86.39 73.444C86.894 72.94 87.6967 72.688 88.798 72.688C89.9087 72.688 90.7113 72.94 91.206 73.444C91.71 73.9387 91.962 74.6573 91.962 75.6V80.5H90.716V75.6C90.716 74.9747 90.5527 74.508 90.226 74.2C89.8993 73.8827 89.4187 73.724 88.784 73.724C88.1587 73.724 87.6827 73.8827 87.356 74.2C87.0387 74.508 86.88 74.9747 86.88 75.6V77.154L86.922 77.168C87.1273 76.804 87.3793 76.566 87.678 76.454C87.9767 76.3327 88.3967 76.272 88.938 76.272H89.4V77.294H88.938C88.3687 77.294 87.9347 77.3733 87.636 77.532C87.3467 77.6907 87.146 77.9007 87.034 78.162C86.9313 78.414 86.88 78.6987 86.88 79.016V80.5H85.634ZM87.9066 71.61V70.994C88.0933 70.9567 88.2846 70.9053 88.4806 70.84C88.6766 70.7653 88.8399 70.672 88.9706 70.56C89.1013 70.4387 89.1666 70.294 89.1666 70.126C89.1666 70.014 89.1339 69.9207 89.0686 69.846C88.9939 69.762 88.8819 69.72 88.7326 69.72C88.6393 69.72 88.5459 69.7387 88.4526 69.776C88.3499 69.8133 88.2613 69.846 88.1866 69.874L87.9066 69.104C88.0933 68.9547 88.3033 68.8567 88.5366 68.81C88.7606 68.7633 88.9426 68.74 89.0826 68.74C89.4559 68.74 89.7499 68.8427 89.9646 69.048C90.1699 69.2533 90.2726 69.5147 90.2726 69.832C90.2726 70.0933 90.2073 70.322 90.0766 70.518C89.9366 70.7047 89.7779 70.854 89.6006 70.966L89.4606 70.63H92.2466V71.61H87.9066ZM96.8796 80.64C96.3289 80.64 95.8529 80.5467 95.4516 80.36C95.0596 80.164 94.7563 79.87 94.5416 79.478C94.3363 79.086 94.2336 78.5773 94.2336 77.952V72.828H95.4796V77.882C95.4796 78.442 95.6196 78.8667 95.8996 79.156C96.1889 79.4453 96.6043 79.59 97.1456 79.59C97.7989 79.59 98.3029 79.38 98.6576 78.96C99.0216 78.54 99.2036 77.9753 99.2036 77.266V72.828H100.45V80.5H99.4136L99.3576 79.366H99.2876C99.1196 79.7393 98.8256 80.0473 98.4056 80.29C97.9949 80.5233 97.4863 80.64 96.8796 80.64ZM102.932 80.5V72.828H104.178V76.146H104.22L107.412 72.828H108.868V72.87L104.178 77.616V80.5H102.932ZM107.692 80.5V77.798C107.692 77.2473 107.524 76.818 107.188 76.51C106.852 76.202 106.296 76.048 105.522 76.048L106.25 75.138C106.838 75.138 107.328 75.2453 107.72 75.46C108.121 75.6653 108.424 75.964 108.63 76.356C108.835 76.748 108.938 77.2193 108.938 77.77V80.5H107.692ZM113.206 80.5V75.054C113.206 74.5967 113.099 74.2607 112.884 74.046C112.679 73.8313 112.329 73.724 111.834 73.724C111.498 73.724 111.181 73.7707 110.882 73.864C110.593 73.948 110.313 74.0693 110.042 74.228V73.108C110.229 73.0147 110.495 72.9213 110.84 72.828C111.186 72.7347 111.596 72.688 112.072 72.688C112.558 72.688 112.978 72.758 113.332 72.898C113.687 73.038 113.962 73.2713 114.158 73.598C114.354 73.9153 114.452 74.34 114.452 74.872V80.5H113.206Z" fill="#899294"/>
<path d="M330.25 69.5625H328.252L327.281 68.1047C327.195 67.9762 327.079 67.8708 326.943 67.798C326.807 67.7252 326.655 67.6873 326.5 67.6875H321.5C321.345 67.6873 321.193 67.7252 321.057 67.798C320.921 67.8708 320.805 67.9762 320.719 68.1047L319.748 69.5625H317.75C317.17 69.5625 316.613 69.793 316.203 70.2032C315.793 70.6134 315.562 71.1698 315.562 71.75V80.5C315.562 81.0802 315.793 81.6366 316.203 82.0468C316.613 82.457 317.17 82.6875 317.75 82.6875H330.25C330.537 82.6875 330.822 82.6309 331.087 82.521C331.353 82.4111 331.594 82.2499 331.797 82.0468C332 81.8437 332.161 81.6025 332.271 81.3371C332.381 81.0717 332.438 80.7873 332.438 80.5V71.75C332.438 71.4627 332.381 71.1783 332.271 70.9129C332.161 70.6475 332 70.4063 331.797 70.2032C331.594 70.0001 331.353 69.8389 331.087 69.729C330.822 69.6191 330.537 69.5625 330.25 69.5625ZM330.562 80.5C330.562 80.5829 330.53 80.6624 330.471 80.721C330.412 80.7796 330.333 80.8125 330.25 80.8125H317.75C317.667 80.8125 317.588 80.7796 317.529 80.721C317.47 80.6624 317.438 80.5829 317.438 80.5V71.75C317.438 71.6671 317.47 71.5876 317.529 71.529C317.588 71.4704 317.667 71.4375 317.75 71.4375H320.25C320.405 71.4377 320.557 71.3998 320.693 71.327C320.829 71.2542 320.945 71.1488 321.031 71.0203L322.002 69.5625H325.998L326.969 71.0203C327.055 71.1488 327.171 71.2542 327.307 71.327C327.443 71.3998 327.595 71.4377 327.75 71.4375H330.25C330.333 71.4375 330.412 71.4704 330.471 71.529C330.53 71.5876 330.562 71.6671 330.562 71.75V80.5ZM324 72.0625C323.258 72.0625 322.533 72.2824 321.917 72.6945C321.3 73.1065 320.819 73.6922 320.535 74.3774C320.252 75.0627 320.177 75.8167 320.322 76.5441C320.467 77.2715 320.824 77.9397 321.348 78.4642C321.873 78.9886 322.541 79.3458 323.268 79.4904C323.996 79.6351 324.75 79.5609 325.435 79.2771C326.12 78.9932 326.706 78.5126 327.118 77.8959C327.53 77.2792 327.75 76.5542 327.75 75.8125C327.749 74.8183 327.354 73.865 326.651 73.162C325.947 72.459 324.994 72.0635 324 72.0625ZM324 77.6875C323.629 77.6875 323.267 77.5775 322.958 77.3715C322.65 77.1655 322.41 76.8726 322.268 76.53C322.126 76.1874 322.089 75.8104 322.161 75.4467C322.233 75.083 322.412 74.7489 322.674 74.4867C322.936 74.2245 323.27 74.0459 323.634 73.9735C323.998 73.9012 324.375 73.9383 324.718 74.0802C325.06 74.2221 325.353 74.4625 325.559 74.7708C325.765 75.0791 325.875 75.4417 325.875 75.8125C325.875 76.3098 325.677 76.7867 325.326 77.1383C324.974 77.49 324.497 77.6875 324 77.6875Z" fill="#6F797A"/>
<path d="M360.542 80.126C359.786 80.126 359.179 80.028 358.722 79.832C358.274 79.636 357.947 79.3607 357.742 79.006C357.546 78.6513 357.448 78.2313 357.448 77.746C357.448 77.3167 357.509 76.976 357.63 76.724C357.761 76.4627 357.919 76.2713 358.106 76.15C358.302 76.0287 358.503 75.9493 358.708 75.912V75.856C358.521 75.8 358.325 75.7067 358.12 75.576C357.915 75.4453 357.742 75.2633 357.602 75.03C357.471 74.7967 357.406 74.5027 357.406 74.148C357.406 73.8213 357.481 73.5133 357.63 73.224C357.779 72.9347 358.022 72.6967 358.358 72.51C358.694 72.3233 359.137 72.23 359.688 72.23C359.912 72.23 360.145 72.2487 360.388 72.286C360.631 72.314 360.817 72.3653 360.948 72.44L360.724 73.406C360.621 73.3687 360.486 73.336 360.318 73.308C360.159 73.2707 359.991 73.252 359.814 73.252C359.422 73.252 359.133 73.3453 358.946 73.532C358.759 73.7093 358.666 73.9473 358.666 74.246C358.666 74.5727 358.745 74.82 358.904 74.988C359.072 75.156 359.282 75.2727 359.534 75.338C359.795 75.394 360.066 75.422 360.346 75.422H360.612V76.332H360.346C359.786 76.332 359.371 76.4347 359.1 76.64C358.839 76.836 358.708 77.1673 358.708 77.634C358.708 77.9047 358.759 78.152 358.862 78.376C358.974 78.6 359.161 78.7773 359.422 78.908C359.693 79.0387 360.066 79.104 360.542 79.104C361.018 79.104 361.387 79.0387 361.648 78.908C361.919 78.7773 362.11 78.5907 362.222 78.348C362.334 78.096 362.39 77.7973 362.39 77.452V72.328H363.636V77.368C363.636 78.348 363.384 79.0527 362.88 79.482C362.385 79.9113 361.606 80.126 360.542 80.126ZM365.831 80V77.34C365.831 76.752 365.961 76.3273 366.223 76.066C366.484 75.7953 366.815 75.6087 367.217 75.506L367.231 75.464L365.691 74.876V74.414C365.691 74.0313 365.817 73.672 366.069 73.336C366.321 72.9907 366.68 72.7153 367.147 72.51C367.623 72.2953 368.187 72.188 368.841 72.188C369.41 72.188 369.937 72.2813 370.423 72.468C370.908 72.6453 371.295 72.93 371.585 73.322C371.883 73.7047 372.033 74.2087 372.033 74.834V80H370.787V74.96C370.787 74.3347 370.595 73.8913 370.213 73.63C369.839 73.3593 369.377 73.224 368.827 73.224C368.257 73.224 367.805 73.3453 367.469 73.588C367.133 73.8213 366.965 74.12 366.965 74.484L368.477 75.24L368.365 75.912C368.019 75.912 367.716 76.0287 367.455 76.262C367.203 76.486 367.077 76.8453 367.077 77.34V80H365.831ZM376.031 80.14C375.779 80.14 375.536 80.098 375.303 80.014C375.07 79.93 374.878 79.7807 374.729 79.566C374.58 79.3513 374.505 79.0527 374.505 78.67V72.328H375.751V78.516C375.751 78.7307 375.798 78.8847 375.891 78.978C375.984 79.0713 376.134 79.118 376.339 79.118C376.423 79.118 376.512 79.1087 376.605 79.09C376.698 79.0713 376.787 79.048 376.871 79.02L377.039 79.93C376.862 80.014 376.689 80.07 376.521 80.098C376.353 80.126 376.19 80.14 376.031 80.14ZM382.781 80V74.89C382.781 74.2833 382.641 73.854 382.361 73.602C382.091 73.3407 381.633 73.21 380.989 73.21C380.523 73.21 380.075 73.2753 379.645 73.406C379.225 73.5273 378.824 73.7 378.441 73.924V72.762C378.712 72.622 379.076 72.4913 379.533 72.37C380 72.2487 380.523 72.188 381.101 72.188C381.596 72.188 382.025 72.244 382.389 72.356C382.753 72.4587 383.052 72.6173 383.285 72.832C383.528 73.0467 383.71 73.322 383.831 73.658C383.953 73.9847 384.013 74.372 384.013 74.82V80H382.781ZM380.373 80.14C379.552 80.14 378.922 79.9533 378.483 79.58C378.054 79.1973 377.839 78.6513 377.839 77.942C377.839 77.1673 378.119 76.57 378.679 76.15C379.249 75.73 380.168 75.4827 381.437 75.408L383.033 75.31V76.346L381.605 76.444C380.653 76.5093 379.995 76.6587 379.631 76.892C379.277 77.1253 379.099 77.466 379.099 77.914C379.099 78.334 379.23 78.642 379.491 78.838C379.762 79.034 380.135 79.132 380.611 79.132C380.77 79.132 380.915 79.1227 381.045 79.104C381.176 79.076 381.302 79.0433 381.423 79.006L381.619 79.944C381.442 80.0093 381.246 80.056 381.031 80.084C380.826 80.1213 380.607 80.14 380.373 80.14ZM377.86 71.11V70.564L378.882 70.116H383.81V71.11H377.86ZM386.215 80V77.34C386.215 76.752 386.346 76.3273 386.607 76.066C386.869 75.7953 387.2 75.6087 387.601 75.506L387.615 75.464L386.075 74.876V74.414C386.075 74.0313 386.201 73.672 386.453 73.336C386.705 72.9907 387.065 72.7153 387.531 72.51C388.007 72.2953 388.572 72.188 389.225 72.188C389.795 72.188 390.322 72.2813 390.807 72.468C391.293 72.6453 391.68 72.93 391.969 73.322C392.268 73.7047 392.417 74.2087 392.417 74.834V80H391.171V74.96C391.171 74.3347 390.98 73.8913 390.597 73.63C390.224 73.3593 389.762 73.224 389.211 73.224C388.642 73.224 388.189 73.3453 387.853 73.588C387.517 73.8213 387.349 74.12 387.349 74.484L388.861 75.24L388.749 75.912C388.404 75.912 388.101 76.0287 387.839 76.262C387.587 76.486 387.461 76.8453 387.461 77.34V80H386.215Z" fill="black"/>
<path d="M30 130L26 126M18 122.667C18 123.28 18.1207 123.886 18.3552 124.453C18.5898 125.019 18.9335 125.533 19.3668 125.966C19.8002 126.4 20.3146 126.744 20.8808 126.978C21.447 127.213 22.0538 127.333 22.6667 127.333C23.2795 127.333 23.8863 127.213 24.4525 126.978C25.0187 126.744 25.5332 126.4 25.9665 125.966C26.3998 125.533 26.7436 125.019 26.9781 124.453C27.2126 123.886 27.3333 123.28 27.3333 122.667C27.3333 122.054 27.2126 121.447 26.9781 120.881C26.7436 120.315 26.3998 119.8 25.9665 119.367C25.5332 118.933 25.0187 118.59 24.4525 118.355C23.8863 118.121 23.2795 118 22.6667 118C22.0538 118 21.447 118.121 20.8808 118.355C20.3146 118.59 19.8002 118.933 19.3668 119.367C18.9335 119.8 18.5898 120.315 18.3552 120.881C18.1207 121.447 18 122.054 18 122.667Z" stroke="#212121" stroke-width="2" stroke-linecap="round" stroke-linejoin="round"/>
<path d="M46.384 129.66C45.3813 129.66 44.6027 129.42 44.048 128.94C43.504 128.449 43.232 127.719 43.232 126.748V125.772C43.232 125.239 43.3067 124.817 43.456 124.508C43.6053 124.199 43.7653 123.932 43.936 123.708C44.1173 123.463 44.272 123.249 44.4 123.068C44.5387 122.887 44.608 122.668 44.608 122.412C44.608 122.188 44.5493 122.028 44.432 121.932C44.3253 121.836 44.1867 121.788 44.016 121.788C43.888 121.788 43.7493 121.809 43.6 121.852C43.4613 121.895 43.3227 121.948 43.184 122.012L42.864 120.988C43.056 120.86 43.2907 120.769 43.568 120.716C43.856 120.663 44.1067 120.636 44.32 120.636C44.7147 120.636 45.0293 120.705 45.264 120.844C45.5093 120.983 45.6853 121.175 45.792 121.42C45.8987 121.655 45.952 121.932 45.952 122.252C45.952 122.647 45.8827 122.972 45.744 123.228C45.616 123.484 45.4613 123.735 45.28 123.98C45.0987 124.247 44.9493 124.503 44.832 124.748C44.7147 124.993 44.656 125.313 44.656 125.708V126.652C44.656 127.143 44.736 127.521 44.896 127.788C45.056 128.055 45.2693 128.241 45.536 128.348C45.8027 128.444 46.0853 128.492 46.384 128.492C46.9173 128.492 47.3227 128.369 47.6 128.124C47.888 127.868 48.032 127.479 48.032 126.956V120.732H49.456V127.036C49.456 127.857 49.1947 128.503 48.672 128.972C48.16 129.431 47.3973 129.66 46.384 129.66ZM44.9714 119.34V118.636C45.1847 118.593 45.4034 118.535 45.6274 118.46C45.8514 118.375 46.038 118.268 46.1874 118.14C46.3367 118.001 46.4114 117.836 46.4114 117.644C46.4114 117.516 46.374 117.409 46.2994 117.324C46.214 117.228 46.086 117.18 45.9154 117.18C45.8087 117.18 45.702 117.201 45.5954 117.244C45.478 117.287 45.3767 117.324 45.2914 117.356L44.9714 116.476C45.1847 116.305 45.4247 116.193 45.6914 116.14C45.9474 116.087 46.1554 116.06 46.3154 116.06C46.742 116.06 47.078 116.177 47.3234 116.412C47.558 116.647 47.6754 116.945 47.6754 117.308C47.6754 117.607 47.6007 117.868 47.4514 118.092C47.2914 118.305 47.11 118.476 46.9074 118.604L46.7474 118.22H49.9314V119.34H44.9714ZM54.526 129.5V123.276C54.526 122.753 54.4033 122.369 54.158 122.124C53.9233 121.879 53.5233 121.756 52.958 121.756C52.574 121.756 52.2113 121.809 51.87 121.916C51.5393 122.012 51.2193 122.151 50.91 122.332V121.052C51.1233 120.945 51.4273 120.839 51.822 120.732C52.2167 120.625 52.686 120.572 53.23 120.572C53.7847 120.572 54.2647 120.652 54.67 120.812C55.0753 120.972 55.39 121.239 55.614 121.612C55.838 121.975 55.95 122.46 55.95 123.068V129.5H54.526ZM60.306 129.66C59.89 129.66 59.4847 129.617 59.09 129.532C58.706 129.447 58.2953 129.287 57.858 129.052L58.306 127.964C58.5407 128.103 58.8073 128.225 59.106 128.332C59.4047 128.428 59.7513 128.476 60.146 128.476C60.9353 128.476 61.5487 128.188 61.986 127.612C62.434 127.025 62.658 126.183 62.658 125.084C62.658 124.007 62.4287 123.185 61.97 122.62C61.522 122.044 60.8287 121.756 59.89 121.756C59.5487 121.756 59.202 121.793 58.85 121.868C58.498 121.943 58.1887 122.055 57.922 122.204V121.004C58.2313 120.844 58.5673 120.732 58.93 120.668C59.3033 120.604 59.6767 120.572 60.05 120.572C61.01 120.572 61.7887 120.764 62.386 121.148C62.9833 121.521 63.4207 122.044 63.698 122.716C63.9753 123.388 64.114 124.177 64.114 125.084C64.114 126.492 63.794 127.607 63.154 128.428C62.5247 129.249 61.5753 129.66 60.306 129.66ZM66.549 129.5V120.732H67.973V124.524H68.021L71.669 120.732H73.333V120.78L67.973 126.204V129.5H66.549ZM71.989 129.5V126.412C71.989 125.783 71.797 125.292 71.413 124.94C71.029 124.588 70.3943 124.412 69.509 124.412L70.341 123.372C71.013 123.372 71.573 123.495 72.021 123.74C72.4797 123.975 72.8263 124.316 73.061 124.764C73.2957 125.212 73.413 125.751 73.413 126.38V129.5H71.989ZM78.9156 129.66C77.7636 129.66 76.8996 129.361 76.3236 128.764C75.7583 128.156 75.4756 127.207 75.4756 125.916C75.4756 125.703 75.481 125.473 75.4916 125.228C75.513 124.972 75.5343 124.721 75.5556 124.476H78.9156V125.596H76.8996V125.916C76.8996 126.588 76.9743 127.116 77.1236 127.5C77.273 127.873 77.4916 128.135 77.7796 128.284C78.0783 128.433 78.4463 128.508 78.8836 128.508C79.3636 128.508 79.7796 128.417 80.1316 128.236C80.4836 128.055 80.7556 127.724 80.9476 127.244C81.1396 126.764 81.2356 126.076 81.2356 125.18C81.2356 124.391 81.1503 123.745 80.9796 123.244C80.809 122.743 80.5263 122.369 80.1316 122.124C79.7476 121.879 79.225 121.756 78.5636 121.756C78.2223 121.756 77.8916 121.788 77.5716 121.852C77.2516 121.905 76.9423 121.991 76.6436 122.108C76.345 122.215 76.0516 122.353 75.7636 122.524V121.196C75.977 121.079 76.2383 120.977 76.5476 120.892C76.857 120.796 77.1983 120.721 77.5716 120.668C77.945 120.604 78.3343 120.572 78.7396 120.572C79.6783 120.572 80.4356 120.764 81.0116 121.148C81.5983 121.521 82.025 122.055 82.2916 122.748C82.5583 123.431 82.6916 124.241 82.6916 125.18C82.6916 126.119 82.569 126.924 82.3236 127.596C82.0783 128.268 81.6783 128.78 81.1236 129.132C80.5796 129.484 79.8436 129.66 78.9156 129.66ZM89.2231 129.66C88.5405 129.66 87.9485 129.527 87.4471 129.26C86.9565 128.983 86.6205 128.599 86.4391 128.108H86.3751L86.2951 129.5H85.1271V120.732H86.5511V125.804C86.5511 126.337 86.6418 126.807 86.8231 127.212C87.0151 127.607 87.2871 127.916 87.6391 128.14C88.0018 128.353 88.4338 128.46 88.9351 128.46C89.5645 128.46 90.0338 128.295 90.3431 127.964C90.6525 127.633 90.8071 127.148 90.8071 126.508V120.732H92.2311V126.604C92.2311 127.308 92.1085 127.884 91.8631 128.332C91.6285 128.78 91.2871 129.116 90.8391 129.34C90.3911 129.553 89.8525 129.66 89.2231 129.66ZM99.0513 129.66C98.3686 129.66 97.7766 129.527 97.2753 129.26C96.7846 128.983 96.4486 128.599 96.2673 128.108H96.2033L96.1233 129.5H94.9553V120.732H96.3793V125.804C96.3793 126.337 96.4699 126.807 96.6513 127.212C96.8433 127.607 97.1153 127.916 97.4673 128.14C97.8299 128.353 98.2619 128.46 98.7633 128.46C99.3926 128.46 99.8619 128.295 100.171 127.964C100.481 127.633 100.635 127.148 100.635 126.508V120.732H102.059V126.604C102.059 127.308 101.937 127.884 101.691 128.332C101.457 128.78 101.115 129.116 100.667 129.34C100.219 129.553 99.6806 129.66 99.0513 129.66ZM105.807 123.996C105.37 123.996 105.013 123.932 104.735 123.804C104.469 123.665 104.277 123.495 104.159 123.292C104.042 123.079 103.983 122.855 103.983 122.62C103.983 122.46 104.005 122.295 104.047 122.124C104.101 121.953 104.165 121.809 104.239 121.692L105.439 121.884C105.418 121.937 105.391 122.012 105.359 122.108C105.338 122.204 105.327 122.3 105.327 122.396C105.327 122.535 105.365 122.652 105.439 122.748C105.514 122.833 105.653 122.876 105.855 122.876H108.143V123.996H105.807ZM105.807 128.476C105.37 128.476 105.013 128.412 104.735 128.284C104.469 128.145 104.277 127.975 104.159 127.772C104.042 127.559 103.983 127.335 103.983 127.1C103.983 126.94 104.005 126.775 104.047 126.604C104.101 126.433 104.165 126.289 104.239 126.172L105.439 126.364C105.418 126.417 105.391 126.492 105.359 126.588C105.338 126.684 105.327 126.78 105.327 126.876C105.327 127.015 105.365 127.132 105.439 127.228C105.514 127.313 105.653 127.356 105.855 127.356H108.143V128.476H105.807ZM115.198 129.5V123.66C115.198 122.967 115.038 122.476 114.718 122.188C114.408 121.889 113.886 121.74 113.15 121.74C112.616 121.74 112.104 121.815 111.614 121.964C111.134 122.103 110.675 122.3 110.238 122.556V121.228C110.547 121.068 110.963 120.919 111.486 120.78C112.019 120.641 112.616 120.572 113.278 120.572C113.843 120.572 114.334 120.636 114.75 120.764C115.166 120.881 115.507 121.063 115.774 121.308C116.051 121.553 116.259 121.868 116.398 122.252C116.536 122.625 116.606 123.068 116.606 123.58V129.5H115.198ZM112.446 129.66C111.507 129.66 110.787 129.447 110.286 129.02C109.795 128.583 109.55 127.959 109.55 127.148C109.55 126.263 109.87 125.58 110.51 125.1C111.16 124.62 112.211 124.337 113.662 124.252L115.486 124.14V125.324L113.854 125.436C112.766 125.511 112.014 125.681 111.598 125.948C111.192 126.215 110.99 126.604 110.99 127.116C110.99 127.596 111.139 127.948 111.438 128.172C111.747 128.396 112.174 128.508 112.718 128.508C112.899 128.508 113.064 128.497 113.214 128.476C113.363 128.444 113.507 128.407 113.646 128.364L113.87 129.436C113.667 129.511 113.443 129.564 113.198 129.596C112.963 129.639 112.712 129.66 112.446 129.66ZM109.573 119.34V118.716L110.741 118.204H116.373V119.34H109.573Z" fill="#212121"/>
<path d="M378 130L390 118M378 118L390 130" stroke="#212121" stroke-width="2" stroke-linecap="round" stroke-linejoin="round"/>
<path d="M30 176L26 172M18 168.667C18 169.28 18.1207 169.886 18.3552 170.453C18.5898 171.019 18.9335 171.533 19.3668 171.966C19.8002 172.4 20.3146 172.744 20.8808 172.978C21.447 173.213 22.0538 173.333 22.6667 173.333C23.2795 173.333 23.8863 173.213 24.4525 172.978C25.0187 172.744 25.5332 172.4 25.9665 171.966C26.3998 171.533 26.7436 171.019 26.9781 170.453C27.2126 169.886 27.3333 169.28 27.3333 168.667C27.3333 168.054 27.2126 167.447 26.9781 166.881C26.7436 166.315 26.3998 165.8 25.9665 165.367C25.5332 164.933 25.0187 164.59 24.4525 164.355C23.8863 164.121 23.2795 164 22.6667 164C22.0538 164 21.447 164.121 20.8808 164.355C20.3146 164.59 19.8002 164.933 19.3668 165.367C18.9335 165.8 18.5898 166.315 18.3552 166.881C18.1207 167.447 18 168.054 18 168.667Z" stroke="#212121" stroke-width="2" stroke-linecap="round" stroke-linejoin="round"/>
<path d="M46.384 175.66C45.3813 175.66 44.6027 175.42 44.048 174.94C43.504 174.449 43.232 173.719 43.232 172.748V171.772C43.232 171.239 43.3067 170.817 43.456 170.508C43.6053 170.199 43.7653 169.932 43.936 169.708C44.1173 169.463 44.272 169.249 44.4 169.068C44.5387 168.887 44.608 168.668 44.608 168.412C44.608 168.188 44.5493 168.028 44.432 167.932C44.3253 167.836 44.1867 167.788 44.016 167.788C43.888 167.788 43.7493 167.809 43.6 167.852C43.4613 167.895 43.3227 167.948 43.184 168.012L42.864 166.988C43.056 166.86 43.2907 166.769 43.568 166.716C43.856 166.663 44.1067 166.636 44.32 166.636C44.7147 166.636 45.0293 166.705 45.264 166.844C45.5093 166.983 45.6853 167.175 45.792 167.42C45.8987 167.655 45.952 167.932 45.952 168.252C45.952 168.647 45.8827 168.972 45.744 169.228C45.616 169.484 45.4613 169.735 45.28 169.98C45.0987 170.247 44.9493 170.503 44.832 170.748C44.7147 170.993 44.656 171.313 44.656 171.708V172.652C44.656 173.143 44.736 173.521 44.896 173.788C45.056 174.055 45.2693 174.241 45.536 174.348C45.8027 174.444 46.0853 174.492 46.384 174.492C46.9173 174.492 47.3227 174.369 47.6 174.124C47.888 173.868 48.032 173.479 48.032 172.956V166.732H49.456V173.036C49.456 173.857 49.1947 174.503 48.672 174.972C48.16 175.431 47.3973 175.66 46.384 175.66ZM44.9714 165.34V164.636C45.1847 164.593 45.4034 164.535 45.6274 164.46C45.8514 164.375 46.038 164.268 46.1874 164.14C46.3367 164.001 46.4114 163.836 46.4114 163.644C46.4114 163.516 46.374 163.409 46.2994 163.324C46.214 163.228 46.086 163.18 45.9154 163.18C45.8087 163.18 45.702 163.201 45.5954 163.244C45.478 163.287 45.3767 163.324 45.2914 163.356L44.9714 162.476C45.1847 162.305 45.4247 162.193 45.6914 162.14C45.9474 162.087 46.1554 162.06 46.3154 162.06C46.742 162.06 47.078 162.177 47.3234 162.412C47.558 162.647 47.6754 162.945 47.6754 163.308C47.6754 163.607 47.6007 163.868 47.4514 164.092C47.2914 164.305 47.11 164.476 46.9074 164.604L46.7474 164.22H49.9314V165.34H44.9714ZM54.526 175.5V169.276C54.526 168.753 54.4033 168.369 54.158 168.124C53.9233 167.879 53.5233 167.756 52.958 167.756C52.574 167.756 52.2113 167.809 51.87 167.916C51.5393 168.012 51.2193 168.151 50.91 168.332V167.052C51.1233 166.945 51.4273 166.839 51.822 166.732C52.2167 166.625 52.686 166.572 53.23 166.572C53.7847 166.572 54.2647 166.652 54.67 166.812C55.0753 166.972 55.39 167.239 55.614 167.612C55.838 167.975 55.95 168.46 55.95 169.068V175.5H54.526ZM60.306 175.66C59.89 175.66 59.4847 175.617 59.09 175.532C58.706 175.447 58.2953 175.287 57.858 175.052L58.306 173.964C58.5407 174.103 58.8073 174.225 59.106 174.332C59.4047 174.428 59.7513 174.476 60.146 174.476C60.9353 174.476 61.5487 174.188 61.986 173.612C62.434 173.025 62.658 172.183 62.658 171.084C62.658 170.007 62.4287 169.185 61.97 168.62C61.522 168.044 60.8287 167.756 59.89 167.756C59.5487 167.756 59.202 167.793 58.85 167.868C58.498 167.943 58.1887 168.055 57.922 168.204V167.004C58.2313 166.844 58.5673 166.732 58.93 166.668C59.3033 166.604 59.6767 166.572 60.05 166.572C61.01 166.572 61.7887 166.764 62.386 167.148C62.9833 167.521 63.4207 168.044 63.698 168.716C63.9753 169.388 64.114 170.177 64.114 171.084C64.114 172.492 63.794 173.607 63.154 174.428C62.5247 175.249 61.5753 175.66 60.306 175.66ZM69.525 175.66C68.629 175.66 67.9357 175.457 67.445 175.052C66.9543 174.636 66.613 174.076 66.421 173.372C66.229 172.657 66.133 171.847 66.133 170.94C66.133 169.895 66.229 169.052 66.421 168.412C66.6237 167.772 66.917 167.308 67.301 167.02C67.685 166.721 68.1543 166.572 68.709 166.572C69.0823 166.572 69.397 166.636 69.653 166.764C69.9197 166.892 70.1063 167.105 70.213 167.404H70.277C70.3837 167.095 70.5757 166.881 70.853 166.764C71.1303 166.636 71.4557 166.572 71.829 166.572C72.5223 166.572 73.0557 166.759 73.429 167.132C73.813 167.495 74.005 168.055 74.005 168.812V175.5H72.581V168.828C72.581 168.412 72.4903 168.129 72.309 167.98C72.1277 167.831 71.8983 167.756 71.621 167.756C71.3117 167.756 71.0823 167.831 70.933 167.98C70.7943 168.129 70.709 168.375 70.677 168.716H69.781C69.7383 168.343 69.6263 168.092 69.445 167.964C69.2637 167.825 69.061 167.756 68.837 167.756C68.4103 167.756 68.0903 168.007 67.877 168.508C67.6637 168.999 67.557 169.815 67.557 170.956C67.557 171.692 67.6103 172.321 67.717 172.844C67.8343 173.367 68.0477 173.772 68.357 174.06C68.6663 174.337 69.1143 174.476 69.701 174.476C69.9143 174.476 70.0903 174.465 70.229 174.444C70.3677 174.423 70.501 174.396 70.629 174.364L70.773 175.452C70.613 175.527 70.421 175.58 70.197 175.612C69.973 175.644 69.749 175.66 69.525 175.66ZM79.0569 175.66C78.4275 175.66 77.8409 175.601 77.2969 175.484C76.7635 175.356 76.3102 175.207 75.9369 175.036L76.3529 173.884C76.5769 173.969 76.8329 174.06 77.1209 174.156C77.4089 174.252 77.7182 174.332 78.0489 174.396C78.3902 174.449 78.7369 174.476 79.0889 174.476C79.6542 174.476 80.1235 174.369 80.4969 174.156C80.8702 173.943 81.0569 173.633 81.0569 173.228C81.0569 172.983 80.9875 172.775 80.8489 172.604C80.7209 172.423 80.5182 172.257 80.2409 172.108C79.9635 171.959 79.6062 171.815 79.1689 171.676C78.4969 171.463 77.9262 171.239 77.4569 171.004C76.9982 170.759 76.6462 170.471 76.4009 170.14C76.1662 169.799 76.0489 169.377 76.0489 168.876C76.0489 168.428 76.1662 168.033 76.4009 167.692C76.6462 167.34 77.0195 167.068 77.5209 166.876C78.0329 166.673 78.6835 166.572 79.4729 166.572C79.9849 166.572 80.4649 166.62 80.9129 166.716C81.3715 166.801 81.7289 166.924 81.9849 167.084V168.284C81.8035 168.199 81.5742 168.113 81.2969 168.028C81.0302 167.943 80.7369 167.873 80.4169 167.82C80.0969 167.767 79.7662 167.74 79.4249 167.74C78.7102 167.74 78.2035 167.852 77.9049 168.076C77.6169 168.289 77.4729 168.535 77.4729 168.812C77.4729 169.047 77.5369 169.244 77.6649 169.404C77.8035 169.564 78.0329 169.719 78.3529 169.868C78.6835 170.017 79.1262 170.188 79.6809 170.38C80.1929 170.551 80.6622 170.748 81.0889 170.972C81.5155 171.196 81.8515 171.479 82.0969 171.82C82.3529 172.151 82.4809 172.577 82.4809 173.1C82.4809 173.548 82.3689 173.969 82.1449 174.364C81.9315 174.748 81.5742 175.063 81.0729 175.308C80.5715 175.543 79.8995 175.66 79.0569 175.66ZM86.8854 175.5V169.276C86.8854 168.753 86.7627 168.369 86.5174 168.124C86.2827 167.879 85.8827 167.756 85.3174 167.756C84.9334 167.756 84.5707 167.809 84.2294 167.916C83.8987 168.012 83.5787 168.151 83.2694 168.332V167.052C83.4827 166.945 83.7867 166.839 84.1814 166.732C84.576 166.625 85.0454 166.572 85.5894 166.572C86.144 166.572 86.624 166.652 87.0294 166.812C87.4347 166.972 87.7494 167.239 87.9734 167.612C88.1974 167.975 88.3094 168.46 88.3094 169.068V175.5H86.8854ZM93.8494 175.66C93.252 175.66 92.7294 175.559 92.2814 175.356C91.844 175.143 91.5027 174.823 91.2574 174.396C91.0227 173.959 90.9054 173.399 90.9054 172.716V170.492H92.3134V172.604C92.3134 173.191 92.468 173.649 92.7774 173.98C93.0867 174.3 93.5507 174.46 94.1694 174.46C94.9267 174.46 95.5134 174.225 95.9294 173.756C96.3454 173.276 96.5534 172.647 96.5534 171.868V170.428C96.5534 169.724 96.4467 169.18 96.2334 168.796C96.0307 168.412 95.7374 168.145 95.3534 167.996C94.9694 167.836 94.5054 167.756 93.9614 167.756C93.4494 167.756 92.948 167.82 92.4574 167.948C91.9774 168.076 91.508 168.284 91.0494 168.572V167.244C91.3587 167.063 91.7854 166.908 92.3294 166.78C92.884 166.641 93.4867 166.572 94.1374 166.572C95.044 166.572 95.78 166.716 96.3454 167.004C96.9107 167.292 97.3214 167.713 97.5774 168.268C97.844 168.823 97.9774 169.511 97.9774 170.332V175.5H96.8094L96.7294 174.204H96.6654C96.484 174.631 96.148 174.983 95.6574 175.26C95.1774 175.527 94.5747 175.66 93.8494 175.66ZM95.7784 165.34C95.3304 165.34 94.973 165.276 94.7064 165.148C94.4397 165.02 94.2477 164.855 94.1304 164.652C94.0024 164.449 93.9384 164.236 93.9384 164.012C93.9384 163.852 93.965 163.681 94.0184 163.5C94.061 163.308 94.1197 163.153 94.1944 163.036L95.3944 163.244C95.373 163.287 95.3517 163.361 95.3304 163.468C95.309 163.564 95.2984 163.655 95.2984 163.74C95.2984 163.879 95.341 164.001 95.4264 164.108C95.5117 164.204 95.6557 164.252 95.8584 164.252H99.9064V165.34H95.7784ZM103.666 175.66C102.77 175.66 102.076 175.457 101.586 175.052C101.095 174.636 100.754 174.076 100.562 173.372C100.37 172.657 100.274 171.847 100.274 170.94C100.274 169.895 100.37 169.052 100.562 168.412C100.764 167.772 101.058 167.308 101.442 167.02C101.826 166.721 102.295 166.572 102.85 166.572C103.223 166.572 103.538 166.636 103.794 166.764C104.06 166.892 104.247 167.105 104.354 167.404H104.418C104.524 167.095 104.716 166.881 104.994 166.764C105.271 166.636 105.596 166.572 105.97 166.572C106.663 166.572 107.196 166.759 107.57 167.132C107.954 167.495 108.146 168.055 108.146 168.812V175.5H106.722V168.828C106.722 168.412 106.631 168.129 106.45 167.98C106.268 167.831 106.039 167.756 105.762 167.756C105.452 167.756 105.223 167.831 105.074 167.98C104.935 168.129 104.85 168.375 104.818 168.716H103.922C103.879 168.343 103.767 168.092 103.586 167.964C103.404 167.825 103.202 167.756 102.978 167.756C102.551 167.756 102.231 168.007 102.018 168.508C101.804 168.999 101.698 169.815 101.698 170.956C101.698 171.692 101.751 172.321 101.858 172.844C101.975 173.367 102.188 173.772 102.498 174.06C102.807 174.337 103.255 174.476 103.842 174.476C104.055 174.476 104.231 174.465 104.37 174.444C104.508 174.423 104.642 174.396 104.77 174.364L104.914 175.452C104.754 175.527 104.562 175.58 104.338 175.612C104.114 175.644 103.89 175.66 103.666 175.66ZM113.198 175.66C112.568 175.66 111.982 175.601 111.438 175.484C110.904 175.356 110.451 175.207 110.078 175.036L110.493 173.884C110.718 173.969 110.974 174.06 111.262 174.156C111.55 174.252 111.859 174.332 112.19 174.396C112.531 174.449 112.878 174.476 113.23 174.476C113.795 174.476 114.264 174.369 114.638 174.156C115.011 173.943 115.198 173.633 115.198 173.228C115.198 172.983 115.128 172.775 114.99 172.604C114.862 172.423 114.659 172.257 114.382 172.108C114.104 171.959 113.747 171.815 113.31 171.676C112.638 171.463 112.067 171.239 111.598 171.004C111.139 170.759 110.787 170.471 110.542 170.14C110.307 169.799 110.19 169.377 110.19 168.876C110.19 168.428 110.307 168.033 110.542 167.692C110.787 167.34 111.16 167.068 111.662 166.876C112.174 166.673 112.824 166.572 113.614 166.572C114.126 166.572 114.606 166.62 115.054 166.716C115.512 166.801 115.87 166.924 116.126 167.084V168.284C115.944 168.199 115.715 168.113 115.438 168.028C115.171 167.943 114.878 167.873 114.558 167.82C114.238 167.767 113.907 167.74 113.566 167.74C112.851 167.74 112.344 167.852 112.046 168.076C111.758 168.289 111.614 168.535 111.614 168.812C111.614 169.047 111.678 169.244 111.806 169.404C111.944 169.564 112.174 169.719 112.494 169.868C112.824 170.017 113.267 170.188 113.822 170.38C114.334 170.551 114.803 170.748 115.23 170.972C115.656 171.196 115.992 171.479 116.238 171.82C116.494 172.151 116.622 172.577 116.622 173.1C116.622 173.548 116.51 173.969 116.286 174.364C116.072 174.748 115.715 175.063 115.214 175.308C114.712 175.543 114.04 175.66 113.198 175.66Z" fill="#212121"/>
<path d="M378 176L390 164M378 164L390 176" stroke="#212121" stroke-width="2" stroke-linecap="round" stroke-linejoin="round"/>
<path d="M30 222L26 218M18 214.667C18 215.28 18.1207 215.886 18.3552 216.453C18.5898 217.019 18.9335 217.533 19.3668 217.966C19.8002 218.4 20.3146 218.744 20.8808 218.978C21.447 219.213 22.0538 219.333 22.6667 219.333C23.2795 219.333 23.8863 219.213 24.4525 218.978C25.0187 218.744 25.5332 218.4 25.9665 217.966C26.3998 217.533 26.7436 217.019 26.9781 216.453C27.2126 215.886 27.3333 215.28 27.3333 214.667C27.3333 214.054 27.2126 213.447 26.9781 212.881C26.7436 212.315 26.3998 211.8 25.9665 211.367C25.5332 210.933 25.0187 210.59 24.4525 210.355C23.8863 210.121 23.2795 210 22.6667 210C22.0538 210 21.447 210.121 20.8808 210.355C20.3146 210.59 19.8002 210.933 19.3668 211.367C18.9335 211.8 18.5898 212.315 18.3552 212.881C18.1207 213.447 18 214.054 18 214.667Z" stroke="#212121" stroke-width="2" stroke-linecap="round" stroke-linejoin="round"/>
<path d="M46.384 221.66C45.3813 221.66 44.6027 221.42 44.048 220.94C43.504 220.449 43.232 219.719 43.232 218.748V217.772C43.232 217.239 43.3067 216.817 43.456 216.508C43.6053 216.199 43.7653 215.932 43.936 215.708C44.1173 215.463 44.272 215.249 44.4 215.068C44.5387 214.887 44.608 214.668 44.608 214.412C44.608 214.188 44.5493 214.028 44.432 213.932C44.3253 213.836 44.1867 213.788 44.016 213.788C43.888 213.788 43.7493 213.809 43.6 213.852C43.4613 213.895 43.3227 213.948 43.184 214.012L42.864 212.988C43.056 212.86 43.2907 212.769 43.568 212.716C43.856 212.663 44.1067 212.636 44.32 212.636C44.7147 212.636 45.0293 212.705 45.264 212.844C45.5093 212.983 45.6853 213.175 45.792 213.42C45.8987 213.655 45.952 213.932 45.952 214.252C45.952 214.647 45.8827 214.972 45.744 215.228C45.616 215.484 45.4613 215.735 45.28 215.98C45.0987 216.247 44.9493 216.503 44.832 216.748C44.7147 216.993 44.656 217.313 44.656 217.708V218.652C44.656 219.143 44.736 219.521 44.896 219.788C45.056 220.055 45.2693 220.241 45.536 220.348C45.8027 220.444 46.0853 220.492 46.384 220.492C46.9173 220.492 47.3227 220.369 47.6 220.124C47.888 219.868 48.032 219.479 48.032 218.956V212.732H49.456V219.036C49.456 219.857 49.1947 220.503 48.672 220.972C48.16 221.431 47.3973 221.66 46.384 221.66ZM44.9714 211.34V210.636C45.1847 210.593 45.4034 210.535 45.6274 210.46C45.8514 210.375 46.038 210.268 46.1874 210.14C46.3367 210.001 46.4114 209.836 46.4114 209.644C46.4114 209.516 46.374 209.409 46.2994 209.324C46.214 209.228 46.086 209.18 45.9154 209.18C45.8087 209.18 45.702 209.201 45.5954 209.244C45.478 209.287 45.3767 209.324 45.2914 209.356L44.9714 208.476C45.1847 208.305 45.4247 208.193 45.6914 208.14C45.9474 208.087 46.1554 208.06 46.3154 208.06C46.742 208.06 47.078 208.177 47.3234 208.412C47.558 208.647 47.6754 208.945 47.6754 209.308C47.6754 209.607 47.6007 209.868 47.4514 210.092C47.2914 210.305 47.11 210.476 46.9074 210.604L46.7474 210.22H49.9314V211.34H44.9714ZM54.526 221.5V215.276C54.526 214.753 54.4033 214.369 54.158 214.124C53.9233 213.879 53.5233 213.756 52.958 213.756C52.574 213.756 52.2113 213.809 51.87 213.916C51.5393 214.012 51.2193 214.151 50.91 214.332V213.052C51.1233 212.945 51.4273 212.839 51.822 212.732C52.2167 212.625 52.686 212.572 53.23 212.572C53.7847 212.572 54.2647 212.652 54.67 212.812C55.0753 212.972 55.39 213.239 55.614 213.612C55.838 213.975 55.95 214.46 55.95 215.068V221.5H54.526ZM60.306 221.66C59.89 221.66 59.4847 221.617 59.09 221.532C58.706 221.447 58.2953 221.287 57.858 221.052L58.306 219.964C58.5407 220.103 58.8073 220.225 59.106 220.332C59.4047 220.428 59.7513 220.476 60.146 220.476C60.9353 220.476 61.5487 220.188 61.986 219.612C62.434 219.025 62.658 218.183 62.658 217.084C62.658 216.007 62.4287 215.185 61.97 214.62C61.522 214.044 60.8287 213.756 59.89 213.756C59.5487 213.756 59.202 213.793 58.85 213.868C58.498 213.943 58.1887 214.055 57.922 214.204V213.004C58.2313 212.844 58.5673 212.732 58.93 212.668C59.3033 212.604 59.6767 212.572 60.05 212.572C61.01 212.572 61.7887 212.764 62.386 213.148C62.9833 213.521 63.4207 214.044 63.698 214.716C63.9753 215.388 64.114 216.177 64.114 217.084C64.114 218.492 63.794 219.607 63.154 220.428C62.5247 221.249 61.5753 221.66 60.306 221.66ZM68.405 221.66C68.117 221.66 67.8397 221.612 67.573 221.516C67.3063 221.42 67.0877 221.249 66.917 221.004C66.7463 220.759 66.661 220.417 66.661 219.98V212.732H68.085V219.804C68.085 220.049 68.1383 220.225 68.245 220.332C68.3517 220.439 68.5223 220.492 68.757 220.492C68.853 220.492 68.9543 220.481 69.061 220.46C69.1677 220.439 69.269 220.412 69.365 220.38L69.557 221.42C69.3543 221.516 69.157 221.58 68.965 221.612C68.773 221.644 68.5863 221.66 68.405 221.66ZM71.0598 221.5V218.46C71.0598 217.788 71.2091 217.303 71.5078 217.004C71.8064 216.695 72.1851 216.481 72.6438 216.364L72.6598 216.316L70.8997 215.644V215.116C70.8997 214.679 71.0438 214.268 71.3318 213.884C71.6198 213.489 72.0304 213.175 72.5638 212.94C73.1078 212.695 73.7531 212.572 74.4998 212.572C75.1504 212.572 75.7531 212.679 76.3078 212.892C76.8624 213.095 77.3051 213.42 77.6358 213.868C77.9771 214.305 78.1478 214.881 78.1478 215.596V221.5H76.7238V215.74C76.7238 215.025 76.5051 214.519 76.0678 214.22C75.6411 213.911 75.1131 213.756 74.4838 213.756C73.8331 213.756 73.3158 213.895 72.9318 214.172C72.5478 214.439 72.3558 214.78 72.3558 215.196L74.0838 216.06L73.9557 216.828C73.5611 216.828 73.2144 216.961 72.9158 217.228C72.6278 217.484 72.4838 217.895 72.4838 218.46V221.5H71.0598ZM83.2135 221.5V215.276C83.2135 214.753 83.0908 214.369 82.8455 214.124C82.6108 213.879 82.2108 213.756 81.6455 213.756C81.2615 213.756 80.8988 213.809 80.5575 213.916C80.2268 214.012 79.9068 214.151 79.5975 214.332V213.052C79.8108 212.945 80.1148 212.839 80.5095 212.732C80.9042 212.625 81.3735 212.572 81.9175 212.572C82.4722 212.572 82.9522 212.652 83.3575 212.812C83.7628 212.972 84.0775 213.239 84.3015 213.612C84.5255 213.975 84.6375 214.46 84.6375 215.068V221.5H83.2135ZM87.3615 221.5V212.732H88.7855V216.524H88.8335L92.4815 212.732H94.1455V212.78L88.7855 218.204V221.5H87.3615ZM92.8015 221.5V218.412C92.8015 217.783 92.6095 217.292 92.2255 216.94C91.8415 216.588 91.2068 216.412 90.3215 216.412L91.1535 215.372C91.8255 215.372 92.3855 215.495 92.8335 215.74C93.2922 215.975 93.6388 216.316 93.8735 216.764C94.1082 217.212 94.2255 217.751 94.2255 218.38V221.5H92.8015ZM101.76 221.5V215.66C101.76 214.967 101.6 214.476 101.28 214.188C100.971 213.889 100.448 213.74 99.7121 213.74C99.1788 213.74 98.6668 213.815 98.1761 213.964C97.6961 214.103 97.2375 214.3 96.8001 214.556V213.228C97.1095 213.068 97.5255 212.919 98.0481 212.78C98.5815 212.641 99.1788 212.572 99.8401 212.572C100.405 212.572 100.896 212.636 101.312 212.764C101.728 212.881 102.069 213.063 102.336 213.308C102.613 213.553 102.821 213.868 102.96 214.252C103.099 214.625 103.168 215.068 103.168 215.58V221.5H101.76ZM99.0081 221.66C98.0695 221.66 97.3495 221.447 96.8481 221.02C96.3575 220.583 96.1121 219.959 96.1121 219.148C96.1121 218.263 96.4321 217.58 97.0721 217.1C97.7228 216.62 98.7735 216.337 100.224 216.252L102.048 216.14V217.324L100.416 217.436C99.3281 217.511 98.5761 217.681 98.1601 217.948C97.7548 218.215 97.5521 218.604 97.5521 219.116C97.5521 219.596 97.7015 219.948 98.0001 220.172C98.3095 220.396 98.7361 220.508 99.2801 220.508C99.4615 220.508 99.6268 220.497 99.7761 220.476C99.9255 220.444 100.069 220.407 100.208 220.364L100.432 221.436C100.229 221.511 100.005 221.564 99.7601 221.596C99.5255 221.639 99.2748 221.66 99.0081 221.66ZM96.1354 211.34V210.716L97.3034 210.204H102.935V211.34H96.1354ZM101.607 210.716V208.908H102.951V210.716H101.607Z" fill="#212121"/>
<path d="M378 222L390 210M378 210L390 222" stroke="#212121" stroke-width="2" stroke-linecap="round" stroke-linejoin="round"/>
<path d="M30 268L26 264M18 260.667C18 261.28 18.1207 261.886 18.3552 262.453C18.5898 263.019 18.9335 263.533 19.3668 263.966C19.8002 264.4 20.3146 264.744 20.8808 264.978C21.447 265.213 22.0538 265.333 22.6667 265.333C23.2795 265.333 23.8863 265.213 24.4525 264.978C25.0187 264.744 25.5332 264.4 25.9665 263.966C26.3998 263.533 26.7436 263.019 26.9781 262.453C27.2126 261.886 27.3333 261.28 27.3333 260.667C27.3333 260.054 27.2126 259.447 26.9781 258.881C26.7436 258.315 26.3998 257.8 25.9665 257.367C25.5332 256.933 25.0187 256.59 24.4525 256.355C23.8863 256.121 23.2795 256 22.6667 256C22.0538 256 21.447 256.121 20.8808 256.355C20.3146 256.59 19.8002 256.933 19.3668 257.367C18.9335 257.8 18.5898 258.315 18.3552 258.881C18.1207 259.447 18 260.054 18 260.667Z" stroke="#212121" stroke-width="2" stroke-linecap="round" stroke-linejoin="round"/>
<path d="M45.76 267.66C45.1307 267.66 44.544 267.601 44 267.484C43.4667 267.356 43.0133 267.207 42.64 267.036L43.056 265.884C43.28 265.969 43.536 266.06 43.824 266.156C44.112 266.252 44.4213 266.332 44.752 266.396C45.0933 266.449 45.44 266.476 45.792 266.476C46.3573 266.476 46.8267 266.369 47.2 266.156C47.5733 265.943 47.76 265.633 47.76 265.228C47.76 264.983 47.6907 264.775 47.552 264.604C47.424 264.423 47.2213 264.257 46.944 264.108C46.6667 263.959 46.3093 263.815 45.872 263.676C45.2 263.463 44.6293 263.239 44.16 263.004C43.7013 262.759 43.3493 262.471 43.104 262.14C42.8693 261.799 42.752 261.377 42.752 260.876C42.752 260.428 42.8693 260.033 43.104 259.692C43.3493 259.34 43.7227 259.068 44.224 258.876C44.736 258.673 45.3867 258.572 46.176 258.572C46.688 258.572 47.168 258.62 47.616 258.716C48.0747 258.801 48.432 258.924 48.688 259.084V260.284C48.5067 260.199 48.2773 260.113 48 260.028C47.7333 259.943 47.44 259.873 47.12 259.82C46.8 259.767 46.4693 259.74 46.128 259.74C45.4133 259.74 44.9067 259.852 44.608 260.076C44.32 260.289 44.176 260.535 44.176 260.812C44.176 261.047 44.24 261.244 44.368 261.404C44.5067 261.564 44.736 261.719 45.056 261.868C45.3867 262.017 45.8293 262.188 46.384 262.38C46.896 262.551 47.3653 262.748 47.792 262.972C48.2187 263.196 48.5547 263.479 48.8 263.82C49.056 264.151 49.184 264.577 49.184 265.1C49.184 265.548 49.072 265.969 48.848 266.364C48.6347 266.748 48.2773 267.063 47.776 267.308C47.2747 267.543 46.6027 267.66 45.76 267.66ZM44.7057 257.34V256.636C44.9191 256.593 45.1377 256.535 45.3617 256.46C45.5857 256.375 45.7724 256.268 45.9217 256.14C46.0711 256.001 46.1457 255.836 46.1457 255.644C46.1457 255.516 46.1084 255.409 46.0337 255.324C45.9484 255.228 45.8204 255.18 45.6497 255.18C45.5431 255.18 45.4364 255.201 45.3297 255.244C45.2124 255.287 45.1111 255.324 45.0257 255.356L44.7057 254.476C44.9191 254.305 45.1591 254.193 45.4257 254.14C45.6817 254.087 45.8897 254.06 46.0497 254.06C46.4764 254.06 46.8124 254.177 47.0577 254.412C47.2924 254.647 47.4097 254.945 47.4097 255.308C47.4097 255.607 47.3351 255.868 47.1857 256.092C47.0257 256.305 46.8444 256.476 46.6417 256.604L46.4818 256.22H49.6657V257.34H44.7057ZM53.5885 267.5V261.276C53.5885 260.753 53.4658 260.369 53.2205 260.124C52.9858 259.879 52.5858 259.756 52.0205 259.756C51.6365 259.756 51.2738 259.809 50.9325 259.916C50.6018 260.012 50.2818 260.151 49.9725 260.332V259.052C50.1858 258.945 50.4898 258.839 50.8845 258.732C51.2792 258.625 51.7485 258.572 52.2925 258.572C52.8472 258.572 53.3272 258.652 53.7325 258.812C54.1378 258.972 54.4525 259.239 54.6765 259.612C54.9005 259.975 55.0125 260.46 55.0125 261.068V267.5H53.5885ZM60.6325 267.66C60.0032 267.66 59.4592 267.553 59.0005 267.34C58.5525 267.116 58.2058 266.78 57.9605 266.332C57.7258 265.884 57.6085 265.303 57.6085 264.588V258.732H59.0325V264.508C59.0325 265.148 59.1925 265.633 59.5125 265.964C59.8432 266.295 60.3178 266.46 60.9365 266.46C61.6832 266.46 62.2592 266.22 62.6645 265.74C63.0805 265.26 63.2885 264.615 63.2885 263.804V258.732H64.7125V267.5H63.5285L63.4645 266.204H63.3845C63.1925 266.631 62.8565 266.983 62.3765 267.26C61.9072 267.527 61.3258 267.66 60.6325 267.66ZM70.509 267.66C69.5063 267.66 68.7277 267.42 68.173 266.94C67.629 266.449 67.357 265.719 67.357 264.748V263.772C67.357 263.239 67.4317 262.817 67.581 262.508C67.7303 262.199 67.8903 261.932 68.061 261.708C68.2423 261.463 68.397 261.249 68.525 261.068C68.6637 260.887 68.733 260.668 68.733 260.412C68.733 260.188 68.6743 260.028 68.557 259.932C68.4503 259.836 68.3117 259.788 68.141 259.788C68.013 259.788 67.8743 259.809 67.725 259.852C67.5863 259.895 67.4477 259.948 67.309 260.012L66.989 258.988C67.181 258.86 67.4157 258.769 67.693 258.716C67.981 258.663 68.2317 258.636 68.445 258.636C68.8397 258.636 69.1543 258.705 69.389 258.844C69.6343 258.983 69.8103 259.175 69.917 259.42C70.0237 259.655 70.077 259.932 70.077 260.252C70.077 260.647 70.0077 260.972 69.869 261.228C69.741 261.484 69.5863 261.735 69.405 261.98C69.2237 262.247 69.0743 262.503 68.957 262.748C68.8397 262.993 68.781 263.313 68.781 263.708V264.652C68.781 265.143 68.861 265.521 69.021 265.788C69.181 266.055 69.3943 266.241 69.661 266.348C69.9277 266.444 70.2103 266.492 70.509 266.492C71.0423 266.492 71.4477 266.369 71.725 266.124C72.013 265.868 72.157 265.479 72.157 264.956V258.732H73.581V265.036C73.581 265.857 73.3197 266.503 72.797 266.972C72.285 267.431 71.5223 267.66 70.509 267.66ZM69.0964 257.34V256.636C69.3097 256.593 69.5284 256.535 69.7524 256.46C69.9764 256.375 70.163 256.268 70.3124 256.14C70.4617 256.001 70.5364 255.836 70.5364 255.644C70.5364 255.516 70.499 255.409 70.4244 255.324C70.339 255.228 70.211 255.18 70.0404 255.18C69.9337 255.18 69.827 255.201 69.7204 255.244C69.603 255.287 69.5017 255.324 69.4164 255.356L69.0964 254.476C69.3097 254.305 69.5497 254.193 69.8164 254.14C70.0724 254.087 70.2804 254.06 70.4404 254.06C70.867 254.06 71.203 254.177 71.4484 254.412C71.683 254.647 71.8004 254.945 71.8004 255.308C71.8004 255.607 71.7257 255.868 71.5764 256.092C71.4164 256.305 71.235 256.476 71.0324 256.604L70.8724 256.22H74.0564V257.34H69.0964ZM78.651 267.5V261.276C78.651 260.753 78.5283 260.369 78.283 260.124C78.0483 259.879 77.6483 259.756 77.083 259.756C76.699 259.756 76.3363 259.809 75.995 259.916C75.6643 260.012 75.3443 260.151 75.035 260.332V259.052C75.2483 258.945 75.5523 258.839 75.947 258.732C76.3417 258.625 76.811 258.572 77.355 258.572C77.9097 258.572 78.3897 258.652 78.795 258.812C79.2003 258.972 79.515 259.239 79.739 259.612C79.963 259.975 80.075 260.46 80.075 261.068V267.5H78.651ZM84.431 267.66C84.015 267.66 83.6097 267.617 83.215 267.532C82.831 267.447 82.4203 267.287 81.983 267.052L82.431 265.964C82.6657 266.103 82.9323 266.225 83.231 266.332C83.5297 266.428 83.8763 266.476 84.271 266.476C85.0603 266.476 85.6737 266.188 86.111 265.612C86.559 265.025 86.783 264.183 86.783 263.084C86.783 262.007 86.5537 261.185 86.095 260.62C85.647 260.044 84.9537 259.756 84.015 259.756C83.6737 259.756 83.327 259.793 82.975 259.868C82.623 259.943 82.3137 260.055 82.047 260.204V259.004C82.3563 258.844 82.6923 258.732 83.055 258.668C83.4283 258.604 83.8017 258.572 84.175 258.572C85.135 258.572 85.9137 258.764 86.511 259.148C87.1083 259.521 87.5457 260.044 87.823 260.716C88.1003 261.388 88.239 262.177 88.239 263.084C88.239 264.492 87.919 265.607 87.279 266.428C86.6497 267.249 85.7003 267.66 84.431 267.66ZM90.674 267.5V258.732H92.098V262.524H92.146L95.794 258.732H97.458V258.78L92.098 264.204V267.5H90.674ZM96.114 267.5V264.412C96.114 263.783 95.922 263.292 95.538 262.94C95.154 262.588 94.5193 262.412 93.634 262.412L94.466 261.372C95.138 261.372 95.698 261.495 96.146 261.74C96.6047 261.975 96.9513 262.316 97.186 262.764C97.4207 263.212 97.538 263.751 97.538 264.38V267.5H96.114ZM103.041 267.66C101.889 267.66 101.025 267.361 100.449 266.764C99.8833 266.156 99.6006 265.207 99.6006 263.916C99.6006 263.703 99.606 263.473 99.6166 263.228C99.638 262.972 99.6593 262.721 99.6806 262.476H103.041V263.596H101.025V263.916C101.025 264.588 101.099 265.116 101.249 265.5C101.398 265.873 101.617 266.135 101.905 266.284C102.203 266.433 102.571 266.508 103.009 266.508C103.489 266.508 103.905 266.417 104.257 266.236C104.609 266.055 104.881 265.724 105.073 265.244C105.265 264.764 105.361 264.076 105.361 263.18C105.361 262.391 105.275 261.745 105.105 261.244C104.934 260.743 104.651 260.369 104.257 260.124C103.873 259.879 103.35 259.756 102.689 259.756C102.347 259.756 102.017 259.788 101.697 259.852C101.377 259.905 101.067 259.991 100.769 260.108C100.47 260.215 100.177 260.353 99.8886 260.524V259.196C100.102 259.079 100.363 258.977 100.673 258.892C100.982 258.796 101.323 258.721 101.697 258.668C102.07 258.604 102.459 258.572 102.865 258.572C103.803 258.572 104.561 258.764 105.137 259.148C105.723 259.521 106.15 260.055 106.417 260.748C106.683 261.431 106.817 262.241 106.817 263.18C106.817 264.119 106.694 264.924 106.449 265.596C106.203 266.268 105.803 266.78 105.249 267.132C104.705 267.484 103.969 267.66 103.041 267.66ZM113.348 267.66C112.665 267.66 112.073 267.527 111.572 267.26C111.081 266.983 110.745 266.599 110.564 266.108H110.5L110.42 267.5H109.252V258.732H110.676V263.804C110.676 264.337 110.767 264.807 110.948 265.212C111.14 265.607 111.412 265.916 111.764 266.14C112.127 266.353 112.559 266.46 113.06 266.46C113.689 266.46 114.159 266.295 114.468 265.964C114.777 265.633 114.932 265.148 114.932 264.508V258.732H116.356V264.604C116.356 265.308 116.233 265.884 115.988 266.332C115.753 266.78 115.412 267.116 114.964 267.34C114.516 267.553 113.977 267.66 113.348 267.66Z" fill="#212121"/>
<path d="M378 268L390 256M378 256L390 268" stroke="#212121" stroke-width="2" stroke-linecap="round" stroke-linejoin="round"/>
<mask id="path-21-inside-1_60_434" fill="white">
<path d="M0 764H412V844H0V764Z"/>
</mask>
<path d="M0 764H412V844H0V764Z" fill="white"/>
<path d="M0 765H412V763H0V765Z" fill="#D8DADB" mask="url(#path-21-inside-1_60_434)"/>
<path d="M65.5033 791.803L54.5988 780.263C54.5203 780.18 54.427 780.113 54.3244 780.068C54.2217 780.023 54.1116 780 54.0005 780C53.8894 780 53.7793 780.023 53.6766 780.068C53.574 780.113 53.4807 780.18 53.4022 780.263L42.4977 791.803C42.18 792.14 42 792.597 42 793.074C42 794.063 42.7598 794.868 43.6943 794.868H44.8433V803.103C44.8433 803.599 45.2218 804 45.6904 804H52.3062V797.719H55.2712V804H62.3106C62.7792 804 63.1577 803.599 63.1577 803.103V794.868H64.3067C64.7567 794.868 65.1883 794.68 65.5059 794.341C66.1651 793.64 66.1651 792.504 65.5033 791.803Z" fill="#23C686"/>
<path d="M37.0879 818V811.972H38.0669V814.579H38.0999L40.6079 811.972H41.7519V812.005L38.0669 815.734V818H37.0879ZM40.8279 818V815.877C40.8279 815.444 40.6959 815.107 40.4319 814.865C40.1679 814.623 39.7316 814.502 39.1229 814.502L39.6949 813.787C40.1569 813.787 40.5419 813.871 40.8499 814.04C41.1652 814.201 41.4036 814.436 41.5649 814.744C41.7262 815.052 41.8069 815.422 41.8069 815.855V818H40.8279ZM45.5349 818.11C45.1023 818.11 44.7283 818.037 44.4129 817.89C44.1049 817.736 43.8666 817.505 43.6979 817.197C43.5366 816.889 43.4559 816.489 43.4559 815.998V811.972H44.4349V815.943C44.4349 816.383 44.5449 816.717 44.7649 816.944C44.9923 817.171 45.3186 817.285 45.7439 817.285C46.2573 817.285 46.6533 817.12 46.9319 816.79C47.2179 816.46 47.3609 816.016 47.3609 815.459V811.972H48.3399V818H47.5259L47.4819 817.109H47.4269C47.2949 817.402 47.0639 817.644 46.7339 817.835C46.4113 818.018 46.0116 818.11 45.5349 818.11ZM45.263 811.015V810.531C45.4097 810.502 45.56 810.461 45.714 810.41C45.868 810.351 45.9964 810.278 46.099 810.19C46.2017 810.095 46.253 809.981 46.253 809.849C46.253 809.761 46.2274 809.688 46.176 809.629C46.1174 809.563 46.0294 809.53 45.912 809.53C45.8387 809.53 45.7654 809.545 45.692 809.574C45.6114 809.603 45.5417 809.629 45.483 809.651L45.263 809.046C45.4097 808.929 45.5747 808.852 45.758 808.815C45.934 808.778 46.077 808.76 46.187 808.76C46.4804 808.76 46.7114 808.841 46.88 809.002C47.0414 809.163 47.122 809.369 47.122 809.618C47.122 809.823 47.0707 810.003 46.968 810.157C46.858 810.304 46.7334 810.421 46.594 810.509L46.484 810.245H48.673V811.015H45.263ZM51.907 818V813.721C51.907 813.362 51.8227 813.098 51.654 812.929C51.4927 812.76 51.2177 812.676 50.829 812.676C50.565 812.676 50.3157 812.713 50.081 812.786C49.8537 812.852 49.6337 812.947 49.421 813.072V812.192C49.5677 812.119 49.7767 812.045 50.048 811.972C50.3194 811.899 50.642 811.862 51.016 811.862C51.3974 811.862 51.7274 811.917 52.006 812.027C52.2847 812.137 52.501 812.32 52.655 812.577C52.809 812.826 52.886 813.16 52.886 813.578V818H51.907ZM56.0348 818.11C55.8368 818.11 55.6461 818.077 55.4628 818.011C55.2795 817.945 55.1291 817.828 55.0118 817.659C54.8945 817.49 54.8358 817.256 54.8358 816.955V811.972H55.8148V816.834C55.8148 817.003 55.8515 817.124 55.9248 817.197C55.9981 817.27 56.1155 817.307 56.2768 817.307C56.3428 817.307 56.4125 817.3 56.4858 817.285C56.5591 817.27 56.6288 817.252 56.6948 817.23L56.8268 817.945C56.6875 818.011 56.5518 818.055 56.4198 818.077C56.2878 818.099 56.1595 818.11 56.0348 818.11ZM59.0378 818.11C58.8398 818.11 58.6491 818.077 58.4658 818.011C58.2825 817.945 58.1321 817.828 58.0148 817.659C57.8975 817.49 57.8388 817.256 57.8388 816.955V811.972H58.8178V816.834C58.8178 817.003 58.8545 817.124 58.9278 817.197C59.0011 817.27 59.1185 817.307 59.2798 817.307C59.3458 817.307 59.4155 817.3 59.4888 817.285C59.5621 817.27 59.6318 817.252 59.6978 817.23L59.8298 817.945C59.6905 818.011 59.5548 818.055 59.4228 818.077C59.2908 818.099 59.1625 818.11 59.0378 818.11ZM62.5093 818.11C62.0766 818.11 61.6733 818.07 61.2993 817.989C60.9326 817.901 60.621 817.798 60.3643 817.681L60.6503 816.889C60.8043 816.948 60.9803 817.01 61.1783 817.076C61.3763 817.142 61.589 817.197 61.8163 817.241C62.051 817.278 62.2893 817.296 62.5313 817.296C62.92 817.296 63.2426 817.223 63.4993 817.076C63.756 816.929 63.8843 816.717 63.8843 816.438C63.8843 816.269 63.8366 816.126 63.7413 816.009C63.6533 815.884 63.514 815.771 63.3233 815.668C63.1326 815.565 62.887 815.466 62.5863 815.371C62.1243 815.224 61.732 815.07 61.4093 814.909C61.094 814.74 60.852 814.542 60.6833 814.315C60.522 814.08 60.4413 813.791 60.4413 813.446C60.4413 813.138 60.522 812.867 60.6833 812.632C60.852 812.39 61.1086 812.203 61.4533 812.071C61.8053 811.932 62.2526 811.862 62.7953 811.862C63.1473 811.862 63.4773 811.895 63.7853 811.961C64.1006 812.02 64.3463 812.104 64.5223 812.214V813.039C64.3976 812.98 64.24 812.922 64.0493 812.863C63.866 812.804 63.6643 812.757 63.4443 812.72C63.2243 812.683 62.997 812.665 62.7623 812.665C62.271 812.665 61.9226 812.742 61.7173 812.896C61.5193 813.043 61.4203 813.211 61.4203 813.402C61.4203 813.563 61.4643 813.699 61.5523 813.809C61.6476 813.919 61.8053 814.025 62.0253 814.128C62.2526 814.231 62.557 814.348 62.9383 814.48C63.2903 814.597 63.613 814.733 63.9063 814.887C64.1996 815.041 64.4306 815.235 64.5993 815.47C64.7753 815.697 64.8633 815.991 64.8633 816.35C64.8633 816.658 64.7863 816.948 64.6323 817.219C64.4857 817.483 64.24 817.699 63.8953 817.868C63.5506 818.029 63.0886 818.11 62.5093 818.11ZM66.1314 818V815.91C66.1314 815.448 66.2341 815.114 66.4394 814.909C66.6447 814.696 66.9051 814.55 67.2204 814.469L67.2314 814.436L66.0214 813.974V813.611C66.0214 813.31 66.1204 813.028 66.3184 812.764C66.5164 812.493 66.7987 812.276 67.1654 812.115C67.5394 811.946 67.9831 811.862 68.4964 811.862C68.9437 811.862 69.3581 811.935 69.7394 812.082C70.1207 812.221 70.4251 812.445 70.6524 812.753C70.8871 813.054 71.0044 813.45 71.0044 813.941V818H70.0254V814.04C70.0254 813.549 69.8751 813.2 69.5744 812.995C69.2811 812.782 68.9181 812.676 68.4854 812.676C68.0381 812.676 67.6824 812.771 67.4184 812.962C67.1544 813.145 67.0224 813.38 67.0224 813.666L68.2104 814.26L68.1224 814.788C67.8511 814.788 67.6127 814.88 67.4074 815.063C67.2094 815.239 67.1104 815.521 67.1104 815.91V818H66.1314Z" fill="#23C686"/>
<g clip-path="url(#clip1_60_434)">
<path d="M150.533 790.797C150.533 790.479 150.66 790.174 150.885 789.949C151.11 789.724 151.415 789.597 151.733 789.597H158.933C159.252 789.597 159.557 789.724 159.782 789.949C160.007 790.174 160.133 790.479 160.133 790.797C160.133 791.116 160.007 791.421 159.782 791.646C159.557 791.871 159.252 791.997 158.933 791.997H151.733C151.415 791.997 151.11 791.871 150.885 791.646C150.66 791.421 150.533 791.116 150.533 790.797ZM151.733 794.397C151.415 794.397 151.11 794.524 150.885 794.749C150.66 794.974 150.533 795.279 150.533 795.597C150.533 795.916 150.66 796.221 150.885 796.446C151.11 796.671 151.415 796.797 151.733 796.797H156.533C156.852 796.797 157.157 796.671 157.382 796.446C157.607 796.221 157.733 795.916 157.733 795.597C157.733 795.279 157.607 794.974 157.382 794.749C157.157 794.524 156.852 794.397 156.533 794.397H151.733ZM143.333 791.997C143.334 789.366 144.199 786.809 145.796 784.718C147.392 782.627 149.632 781.118 152.17 780.425C154.707 779.731 157.403 779.891 159.841 780.879C162.279 781.867 164.325 783.629 165.664 785.894C167.002 788.159 167.56 790.801 167.25 793.414C166.94 796.026 165.78 798.464 163.949 800.353C162.117 802.242 159.716 803.477 157.114 803.867C154.512 804.258 151.854 803.782 149.549 802.514L144.884 803.935C144.676 803.998 144.454 804.004 144.243 803.951C144.032 803.898 143.839 803.789 143.685 803.635C143.532 803.482 143.423 803.289 143.37 803.078C143.317 802.867 143.323 802.645 143.386 802.437L144.807 797.764C143.837 795.997 143.33 794.013 143.333 791.997ZM155.333 782.397C153.629 782.397 151.956 782.851 150.485 783.711C149.014 784.572 147.798 785.808 146.964 787.294C146.129 788.779 145.704 790.461 145.734 792.164C145.764 793.868 146.246 795.534 147.132 796.989C147.22 797.134 147.277 797.295 147.298 797.463C147.319 797.631 147.304 797.802 147.255 797.964L146.336 800.985L149.352 800.066C149.515 800.017 149.686 800.002 149.854 800.024C150.023 800.045 150.185 800.102 150.329 800.191C151.594 800.963 153.021 801.432 154.498 801.561C155.975 801.69 157.462 801.475 158.841 800.933C160.221 800.391 161.457 799.537 162.451 798.437C163.446 797.338 164.172 796.023 164.573 794.596C164.975 793.169 165.04 791.669 164.764 790.212C164.489 788.755 163.879 787.383 162.984 786.201C162.089 785.019 160.933 784.061 159.605 783.401C158.278 782.741 156.816 782.397 155.333 782.397Z" fill="#1D3853"/>
</g>
<path d="M148.151 818.11C147.953 818.11 147.763 818.077 147.579 818.011C147.396 817.945 147.246 817.828 147.128 817.659C147.011 817.49 146.952 817.256 146.952 816.955V811.972H147.931V816.834C147.931 817.003 147.968 817.124 148.041 817.197C148.115 817.27 148.232 817.307 148.393 817.307C148.459 817.307 148.529 817.3 148.602 817.285C148.676 817.27 148.745 817.252 148.811 817.23L148.943 817.945C148.804 818.011 148.668 818.055 148.536 818.077C148.404 818.099 148.276 818.11 148.151 818.11ZM151.154 818.11C150.956 818.11 150.766 818.077 150.582 818.011C150.399 817.945 150.249 817.828 150.131 817.659C150.014 817.49 149.955 817.256 149.955 816.955V811.972H150.934V816.834C150.934 817.003 150.971 817.124 151.044 817.197C151.118 817.27 151.235 817.307 151.396 817.307C151.462 817.307 151.532 817.3 151.605 817.285C151.679 817.27 151.748 817.252 151.814 817.23L151.946 817.945C151.807 818.011 151.671 818.055 151.539 818.077C151.407 818.099 151.279 818.11 151.154 818.11ZM155.044 818.11C154.348 818.11 153.809 817.945 153.427 817.615C153.053 817.278 152.866 816.775 152.866 816.108V815.437C152.866 815.07 152.918 814.781 153.02 814.568C153.123 814.355 153.233 814.172 153.35 814.018C153.475 813.849 153.581 813.703 153.669 813.578C153.765 813.453 153.812 813.303 153.812 813.127C153.812 812.973 153.772 812.863 153.691 812.797C153.618 812.731 153.523 812.698 153.405 812.698C153.317 812.698 153.222 812.713 153.119 812.742C153.024 812.771 152.929 812.808 152.833 812.852L152.613 812.148C152.745 812.06 152.907 811.998 153.097 811.961C153.295 811.924 153.468 811.906 153.614 811.906C153.886 811.906 154.102 811.954 154.263 812.049C154.432 812.144 154.553 812.276 154.626 812.445C154.7 812.606 154.736 812.797 154.736 813.017C154.736 813.288 154.689 813.512 154.593 813.688C154.505 813.864 154.399 814.036 154.274 814.205C154.15 814.388 154.047 814.564 153.966 814.733C153.886 814.902 153.845 815.122 153.845 815.393V816.042C153.845 816.379 153.9 816.64 154.01 816.823C154.12 817.006 154.267 817.135 154.45 817.208C154.634 817.274 154.832 817.307 155.044 817.307C155.411 817.307 155.69 817.223 155.88 817.054C156.071 816.878 156.166 816.61 156.166 816.251V814.711C156.166 814.44 156.104 814.234 155.979 814.095C155.855 813.948 155.653 813.875 155.374 813.875H155.33V813.248H155.385C155.686 813.248 155.899 813.178 156.023 813.039C156.148 812.9 156.221 812.731 156.243 812.533C156.273 812.328 156.287 812.141 156.287 811.972H157.266C157.266 812.361 157.219 812.691 157.123 812.962C157.028 813.233 156.812 813.431 156.474 813.556V813.6C156.68 813.651 156.826 813.739 156.914 813.864C157.01 813.981 157.072 814.117 157.101 814.271C157.131 814.418 157.145 814.561 157.145 814.7V816.306C157.145 816.871 156.969 817.314 156.617 817.637C156.265 817.952 155.741 818.11 155.044 818.11ZM158.991 818V811.972H159.673L159.849 812.929H159.893C160.018 812.599 160.245 812.339 160.575 812.148C160.905 811.957 161.305 811.862 161.774 811.862C162.214 811.862 162.588 811.939 162.896 812.093C163.211 812.24 163.453 812.467 163.622 812.775C163.791 813.083 163.875 813.483 163.875 813.974V818H162.896V814.029C162.896 813.589 162.786 813.255 162.566 813.028C162.346 812.801 162.02 812.687 161.587 812.687C161.242 812.687 160.949 812.768 160.707 812.929C160.465 813.09 160.282 813.31 160.157 813.589C160.032 813.86 159.97 814.168 159.97 814.513V818H158.991Z" fill="#1D3853"/>
<path d="M244.667 780H247.688C248.459 780 248.845 780 249.124 780.199C249.403 780.399 249.496 780.741 249.683 781.426L250.088 782.908C250.432 784.167 250.604 784.797 251.093 785.186C251.147 785.229 251.204 785.269 251.263 785.307C251.794 785.647 252.503 785.647 253.921 785.647M266.259 798.353H250.143C249.272 798.353 248.837 798.353 248.564 798.166C248.394 798.051 248.268 797.89 248.202 797.707C248.095 797.41 248.232 797.032 248.508 796.276C248.812 795.44 248.965 795.022 249.263 794.725C249.452 794.538 249.679 794.388 249.932 794.283C250.335 794.118 250.816 794.118 251.779 794.118H260.09M254.32 794.118H262.175C263.412 794.118 264.03 794.118 264.527 793.837C265.024 793.555 265.301 793.049 265.854 792.037L267.856 788.371C268.523 787.15 268.856 786.54 268.555 786.093C268.254 785.647 267.508 785.647 266.017 785.647H252.935C251.245 785.647 250.4 785.647 249.938 786.146C249.476 786.646 249.614 787.409 249.892 788.935L250.263 790.972C250.537 792.474 250.674 793.225 251.249 793.672C251.824 794.118 252.656 794.118 254.32 794.118ZM266.259 802.588C266.259 803.368 265.569 804 264.717 804C263.865 804 263.175 803.368 263.175 802.588C263.175 801.809 263.865 801.176 264.717 801.176C265.569 801.176 266.259 801.809 266.259 802.588ZM253.921 802.588C253.921 803.368 253.23 804 252.378 804C251.527 804 250.836 803.368 250.836 802.588C250.836 801.809 251.527 801.176 252.378 801.176C253.23 801.176 253.921 801.809 253.921 802.588Z" stroke="#1D3853" stroke-width="2" stroke-linecap="round"/>
<path d="M246.119 818.11C245.503 818.11 245.026 817.971 244.689 817.692C244.352 817.406 244.117 817.021 243.985 816.537C243.853 816.046 243.787 815.488 243.787 814.865C243.787 814.146 243.853 813.567 243.985 813.127C244.124 812.687 244.326 812.368 244.59 812.17C244.854 811.965 245.177 811.862 245.558 811.862C245.815 811.862 246.031 811.906 246.207 811.994C246.39 812.082 246.519 812.229 246.592 812.434H246.636C246.709 812.221 246.841 812.075 247.032 811.994C247.223 811.906 247.446 811.862 247.703 811.862C248.18 811.862 248.546 811.99 248.803 812.247C249.067 812.496 249.199 812.881 249.199 813.402V818H248.22V813.413C248.22 813.127 248.158 812.933 248.033 812.83C247.908 812.727 247.751 812.676 247.56 812.676C247.347 812.676 247.19 812.727 247.087 812.83C246.992 812.933 246.933 813.101 246.911 813.336H246.295C246.266 813.079 246.189 812.907 246.064 812.819C245.939 812.724 245.8 812.676 245.646 812.676C245.353 812.676 245.133 812.848 244.986 813.193C244.839 813.53 244.766 814.091 244.766 814.876C244.766 815.382 244.803 815.815 244.876 816.174C244.957 816.533 245.103 816.812 245.316 817.01C245.529 817.201 245.837 817.296 246.24 817.296C246.387 817.296 246.508 817.289 246.603 817.274C246.698 817.259 246.79 817.241 246.878 817.219L246.977 817.967C246.867 818.018 246.735 818.055 246.581 818.077C246.427 818.099 246.273 818.11 246.119 818.11ZM251.77 814.216C251.469 814.216 251.224 814.172 251.033 814.084C250.85 813.989 250.718 813.871 250.637 813.732C250.556 813.585 250.516 813.431 250.516 813.27C250.516 813.16 250.531 813.046 250.56 812.929C250.597 812.812 250.641 812.713 250.692 812.632L251.517 812.764C251.502 812.801 251.484 812.852 251.462 812.918C251.447 812.984 251.44 813.05 251.44 813.116C251.44 813.211 251.466 813.292 251.517 813.358C251.568 813.417 251.664 813.446 251.803 813.446H253.376V814.216H251.77ZM251.77 817.296C251.469 817.296 251.224 817.252 251.033 817.164C250.85 817.069 250.718 816.951 250.637 816.812C250.556 816.665 250.516 816.511 250.516 816.35C250.516 816.24 250.531 816.126 250.56 816.009C250.597 815.892 250.641 815.793 250.692 815.712L251.517 815.844C251.502 815.881 251.484 815.932 251.462 815.998C251.447 816.064 251.44 816.13 251.44 816.196C251.44 816.291 251.466 816.372 251.517 816.438C251.568 816.497 251.664 816.526 251.803 816.526H253.376V817.296H251.77ZM254.64 818V815.91C254.64 815.448 254.743 815.114 254.948 814.909C255.153 814.696 255.414 814.55 255.729 814.469L255.74 814.436L254.53 813.974V813.611C254.53 813.31 254.629 813.028 254.827 812.764C255.025 812.493 255.307 812.276 255.674 812.115C256.048 811.946 256.492 811.862 257.005 811.862C257.452 811.862 257.867 811.935 258.248 812.082C258.629 812.221 258.934 812.445 259.161 812.753C259.396 813.054 259.513 813.45 259.513 813.941V818H258.534V814.04C258.534 813.549 258.384 813.2 258.083 812.995C257.79 812.782 257.427 812.676 256.994 812.676C256.547 812.676 256.191 812.771 255.927 812.962C255.663 813.145 255.531 813.38 255.531 813.666L256.719 814.26L256.631 814.788C256.36 814.788 256.121 814.88 255.916 815.063C255.718 815.239 255.619 815.521 255.619 815.91V818H254.64ZM262.985 818.11C262.552 818.11 262.149 818.07 261.775 817.989C261.408 817.901 261.096 817.798 260.84 817.681L261.126 816.889C261.28 816.948 261.456 817.01 261.654 817.076C261.852 817.142 262.064 817.197 262.292 817.241C262.526 817.278 262.765 817.296 263.007 817.296C263.395 817.296 263.718 817.223 263.975 817.076C264.231 816.929 264.36 816.717 264.36 816.438C264.36 816.269 264.312 816.126 264.217 816.009C264.129 815.884 263.989 815.771 263.799 815.668C263.608 815.565 263.362 815.466 263.062 815.371C262.6 815.224 262.207 815.07 261.885 814.909C261.569 814.74 261.327 814.542 261.159 814.315C260.997 814.08 260.917 813.791 260.917 813.446C260.917 813.138 260.997 812.867 261.159 812.632C261.327 812.39 261.584 812.203 261.929 812.071C262.281 811.932 262.728 811.862 263.271 811.862C263.623 811.862 263.953 811.895 264.261 811.961C264.576 812.02 264.822 812.104 264.998 812.214V813.039C264.873 812.98 264.715 812.922 264.525 812.863C264.341 812.804 264.14 812.757 263.92 812.72C263.7 812.683 263.472 812.665 263.238 812.665C262.746 812.665 262.398 812.742 262.193 812.896C261.995 813.043 261.896 813.211 261.896 813.402C261.896 813.563 261.94 813.699 262.028 813.809C262.123 813.919 262.281 814.025 262.501 814.128C262.728 814.231 263.032 814.348 263.414 814.48C263.766 814.597 264.088 814.733 264.382 814.887C264.675 815.041 264.906 815.235 265.075 815.47C265.251 815.697 265.339 815.991 265.339 816.35C265.339 816.658 265.262 816.948 265.108 817.219C264.961 817.483 264.715 817.699 264.371 817.868C264.026 818.029 263.564 818.11 262.985 818.11ZM262.26 811.015V810.531C262.407 810.502 262.557 810.461 262.711 810.41C262.865 810.351 262.993 810.278 263.096 810.19C263.199 810.095 263.25 809.981 263.25 809.849C263.25 809.761 263.224 809.688 263.173 809.629C263.114 809.563 263.026 809.53 262.909 809.53C262.836 809.53 262.762 809.545 262.689 809.574C262.608 809.603 262.539 809.629 262.48 809.651L262.26 809.046C262.407 808.929 262.572 808.852 262.755 808.815C262.931 808.778 263.074 808.76 263.184 808.76C263.477 808.76 263.708 808.841 263.877 809.002C264.038 809.163 264.119 809.369 264.119 809.618C264.119 809.823 264.068 810.003 263.965 810.157C263.855 810.304 263.73 810.421 263.591 810.509L263.481 810.245H265.67V811.015H262.26ZM268.367 818V813.721C268.367 813.362 268.282 813.098 268.114 812.929C267.952 812.76 267.677 812.676 267.289 812.676C267.025 812.676 266.775 812.713 266.541 812.786C266.313 812.852 266.093 812.947 265.881 813.072V812.192C266.027 812.119 266.236 812.045 266.508 811.972C266.779 811.899 267.102 811.862 267.476 811.862C267.857 811.862 268.187 811.917 268.466 812.027C268.744 812.137 268.961 812.32 269.115 812.577C269.269 812.826 269.346 813.16 269.346 813.578V818H268.367Z" fill="#1D3853"/>
<path d="M363 789C363 791.761 360.761 794 358 794C355.239 794 353 791.761 353 789C353 786.239 355.239 784 358 784C360.761 784 363 786.239 363 789Z" stroke="#1D3853" stroke-width="2" stroke-linecap="round"/>
<path d="M349.348 799.268C350.156 796.976 352.54 795.875 354.97 795.875H361.03C363.46 795.875 365.844 796.976 366.652 799.268C366.97 800.169 367.232 801.219 367.332 802.375C367.379 802.926 366.927 803.375 366.375 803.375H349.625C349.073 803.375 348.621 802.926 348.668 802.375C348.768 801.219 349.03 800.169 349.348 799.268Z" stroke="#1D3853" stroke-width="2" stroke-linecap="round"/>
<path d="M354.223 817.485C353.812 817.485 353.453 817.415 353.145 817.276C352.844 817.129 352.609 816.909 352.441 816.616C352.279 816.315 352.199 815.93 352.199 815.461V813.932H353.167V815.384C353.167 815.787 353.273 816.103 353.486 816.33C353.698 816.55 354.017 816.66 354.443 816.66C354.963 816.66 355.367 816.499 355.653 816.176C355.939 815.846 356.082 815.413 356.082 814.878V813.888C356.082 813.404 356.008 813.03 355.862 812.766C355.722 812.502 355.521 812.319 355.257 812.216C354.993 812.106 354.674 812.051 354.3 812.051C353.948 812.051 353.603 812.095 353.266 812.183C352.936 812.271 352.613 812.414 352.298 812.612V811.699C352.51 811.574 352.804 811.468 353.178 811.38C353.559 811.285 353.973 811.237 354.421 811.237C355.044 811.237 355.55 811.336 355.939 811.534C356.327 811.732 356.61 812.022 356.786 812.403C356.969 812.784 357.061 813.257 357.061 813.822V817.375H356.258L356.203 816.484H356.159C356.034 816.777 355.803 817.019 355.466 817.21C355.136 817.393 354.721 817.485 354.223 817.485ZM355.549 810.39C355.241 810.39 354.995 810.346 354.812 810.258C354.628 810.17 354.496 810.056 354.416 809.917C354.328 809.778 354.284 809.631 354.284 809.477C354.284 809.367 354.302 809.25 354.339 809.125C354.368 808.993 354.408 808.887 354.46 808.806L355.285 808.949C355.27 808.978 355.255 809.03 355.241 809.103C355.226 809.169 355.219 809.231 355.219 809.29C355.219 809.385 355.248 809.47 355.307 809.543C355.365 809.609 355.464 809.642 355.604 809.642H358.387V810.39H355.549ZM360.916 817.485C360.484 817.485 360.11 817.412 359.794 817.265C359.486 817.111 359.248 816.88 359.079 816.572C358.918 816.264 358.837 815.864 358.837 815.373V811.347H359.816V815.318C359.816 815.758 359.926 816.092 360.146 816.319C360.374 816.546 360.7 816.66 361.125 816.66C361.639 816.66 362.035 816.495 362.313 816.165C362.599 815.835 362.742 815.391 362.742 814.834V811.347H363.721V817.375H362.907L362.863 816.484H362.808C362.676 816.777 362.445 817.019 362.115 817.21C361.793 817.393 361.393 817.485 360.916 817.485Z" fill="#1D3853"/>
<rect width="412" height="52" fill="white"/>
<mask id="path-31-inside-2_60_434" fill="white">
<path d="M0 0H412V52H0V0Z"/>
</mask>
<path d="M412 51H0V53H412V51Z" fill="#DBE4E6" mask="url(#path-31-inside-2_60_434)"/>
<path d="M27.5 37.126C27.08 37.126 26.6413 37.0467 26.184 36.888C25.736 36.7293 25.3347 36.5007 24.98 36.202C24.8773 36.1273 24.8073 36.034 24.77 35.922C24.742 35.8007 24.742 35.6887 24.77 35.586C24.798 35.474 24.8493 35.3807 24.924 35.306C25.008 35.222 25.106 35.1753 25.218 35.166C25.33 35.1567 25.4513 35.1987 25.582 35.292C25.8993 35.544 26.2213 35.726 26.548 35.838C26.8747 35.95 27.2013 36.006 27.528 36.006C28.116 36.006 28.6153 35.8613 29.026 35.572C29.4367 35.2733 29.7493 34.8347 29.964 34.256C30.1787 33.668 30.286 32.9447 30.286 32.086V30.84H30.426C30.37 31.3533 30.216 31.8013 29.964 32.184C29.712 32.5573 29.3853 32.8467 28.984 33.052C28.592 33.2573 28.1487 33.36 27.654 33.36C27.0753 33.36 26.562 33.2247 26.114 32.954C25.6753 32.6833 25.3253 32.3147 25.064 31.848C24.812 31.372 24.686 30.8307 24.686 30.224C24.686 29.5987 24.8213 29.0433 25.092 28.558C25.3627 28.0727 25.736 27.6947 26.212 27.424C26.688 27.144 27.234 27.004 27.85 27.004C28.6433 27.004 29.3107 27.1953 29.852 27.578C30.4027 27.9513 30.8227 28.502 31.112 29.23C31.4013 29.9487 31.546 30.8167 31.546 31.834C31.546 32.6927 31.4527 33.4487 31.266 34.102C31.0887 34.7553 30.8227 35.306 30.468 35.754C30.1227 36.202 29.698 36.5427 29.194 36.776C28.6993 37.0093 28.1347 37.126 27.5 37.126ZM27.948 32.282C28.34 32.282 28.6853 32.1933 28.984 32.016C29.292 31.8293 29.53 31.5773 29.698 31.26C29.866 30.9427 29.95 30.5787 29.95 30.168C29.95 29.748 29.866 29.384 29.698 29.076C29.53 28.7587 29.292 28.5113 28.984 28.334C28.6853 28.1567 28.34 28.068 27.948 28.068C27.5467 28.068 27.1967 28.1567 26.898 28.334C26.5993 28.5113 26.3613 28.7587 26.184 29.076C26.016 29.384 25.932 29.748 25.932 30.168C25.932 30.5787 26.016 30.9427 26.184 31.26C26.3613 31.5773 26.5993 31.8293 26.898 32.016C27.1967 32.1933 27.5467 32.282 27.948 32.282ZM34.0325 37.056C33.7899 37.056 33.5892 36.9767 33.4305 36.818C33.2719 36.6593 33.1925 36.4587 33.1925 36.216C33.1925 35.9733 33.2719 35.7773 33.4305 35.628C33.5892 35.4787 33.7899 35.404 34.0325 35.404C34.2939 35.404 34.4945 35.4787 34.6345 35.628C34.7839 35.7773 34.8585 35.9733 34.8585 36.216C34.8585 36.4587 34.7839 36.6593 34.6345 36.818C34.4945 36.9767 34.2939 37.056 34.0325 37.056ZM34.0325 31.778C33.7899 31.778 33.5892 31.7033 33.4305 31.554C33.2719 31.3953 33.1925 31.1947 33.1925 30.952C33.1925 30.7093 33.2719 30.5133 33.4305 30.364C33.5892 30.2053 33.7899 30.126 34.0325 30.126C34.2939 30.126 34.4945 30.2053 34.6345 30.364C34.7839 30.5133 34.8585 30.7093 34.8585 30.952C34.8585 31.1947 34.7839 31.3953 34.6345 31.554C34.4945 31.7033 34.2939 31.778 34.0325 31.778ZM39.7361 37.126C39.1948 37.126 38.6534 37.0513 38.1121 36.902C37.5708 36.7527 37.0994 36.5287 36.6981 36.23C36.5674 36.1367 36.4788 36.0293 36.4321 35.908C36.3854 35.7867 36.3714 35.6747 36.3901 35.572C36.4181 35.46 36.4741 35.3667 36.5581 35.292C36.6421 35.2173 36.7448 35.1753 36.8661 35.166C36.9874 35.1473 37.1181 35.18 37.2581 35.264C37.6594 35.5253 38.0561 35.7167 38.4481 35.838C38.8494 35.95 39.2648 36.006 39.6941 36.006C40.1514 36.006 40.5388 35.9407 40.8561 35.81C41.1734 35.67 41.4114 35.4693 41.5701 35.208C41.7381 34.9373 41.8221 34.6153 41.8221 34.242C41.8221 33.682 41.6401 33.262 41.2761 32.982C40.9121 32.6927 40.3801 32.548 39.6801 32.548H38.7001C38.5041 32.548 38.3548 32.5013 38.2521 32.408C38.1494 32.3053 38.0981 32.17 38.0981 32.002C38.0981 31.8247 38.1494 31.6893 38.2521 31.596C38.3548 31.5027 38.5041 31.456 38.7001 31.456H39.5681C39.9788 31.456 40.3288 31.386 40.6181 31.246C40.9074 31.0967 41.1314 30.8913 41.2901 30.63C41.4581 30.3687 41.5421 30.0513 41.5421 29.678C41.5421 29.174 41.3788 28.7913 41.0521 28.53C40.7254 28.2593 40.2541 28.124 39.6381 28.124C39.2368 28.124 38.8588 28.1847 38.5041 28.306C38.1494 28.418 37.7901 28.6093 37.4261 28.88C37.3048 28.964 37.1834 29.006 37.0621 29.006C36.9408 28.9967 36.8381 28.9547 36.7541 28.88C36.6794 28.8053 36.6281 28.7167 36.6001 28.614C36.5721 28.502 36.5768 28.3853 36.6141 28.264C36.6514 28.1427 36.7354 28.0353 36.8661 27.942C37.2488 27.6433 37.6874 27.4147 38.1821 27.256C38.6861 27.088 39.2041 27.004 39.7361 27.004C40.3801 27.004 40.9308 27.1067 41.3881 27.312C41.8548 27.5173 42.2094 27.8113 42.4521 28.194C42.6948 28.5673 42.8161 29.02 42.8161 29.552C42.8161 29.9533 42.7414 30.322 42.5921 30.658C42.4428 30.9847 42.2281 31.2647 41.9481 31.498C41.6774 31.722 41.3461 31.8807 40.9541 31.974V31.82C41.6354 31.9413 42.1628 32.226 42.5361 32.674C42.9188 33.1127 43.1101 33.6633 43.1101 34.326C43.1101 34.8953 42.9701 35.3947 42.6901 35.824C42.4194 36.244 42.0321 36.566 41.5281 36.79C41.0241 37.014 40.4268 37.126 39.7361 37.126ZM48.2566 37.126C47.118 37.126 46.25 36.692 45.6526 35.824C45.0646 34.9467 44.7706 33.6913 44.7706 32.058C44.7706 30.9473 44.9013 30.0187 45.1626 29.272C45.4333 28.5253 45.8253 27.9607 46.3386 27.578C46.8613 27.1953 47.5006 27.004 48.2566 27.004C49.4046 27.004 50.2726 27.4333 50.8606 28.292C51.4486 29.1413 51.7426 30.392 51.7426 32.044C51.7426 33.136 51.6073 34.06 51.3366 34.816C51.0753 35.572 50.688 36.146 50.1746 36.538C49.6613 36.93 49.022 37.126 48.2566 37.126ZM48.2566 36.02C49.0033 36.02 49.5586 35.698 49.9226 35.054C50.2866 34.41 50.4686 33.4067 50.4686 32.044C50.4686 30.6813 50.2866 29.6873 49.9226 29.062C49.568 28.4273 49.0126 28.11 48.2566 28.11C47.51 28.11 46.9546 28.4273 46.5906 29.062C46.2266 29.6873 46.0446 30.6813 46.0446 32.044C46.0446 33.4067 46.2266 34.41 46.5906 35.054C46.9546 35.698 47.51 36.02 48.2566 36.02Z" fill="#1D1B20"/>
<path opacity="0.1" d="M350.5 26.4167C347.1 26.4167 344.125 27.9042 342 30.2417L350.5 40.5833L359 30.2417C356.875 27.9042 353.9 26.4167 350.5 26.4167Z" fill="#1D1B20"/>
<path d="M373.583 26.4167L359.417 40.5833H373.583V26.4167Z" fill="#1D1B20"/>
<path d="M385.5 26H382.5V27.5H381C380.448 27.5 380 28.0037 380 28.625V39.875C380 40.4963 380.448 41 381 41H387C387.552 41 388 40.4963 388 39.875V28.625C388 28.0037 387.552 27.5 387 27.5H385.5V26Z" fill="#1F1F1F" fill-opacity="0.3"/>
<path d="M380 34C380 34.5833 380 39.3667 380 39.95C380 40.5299 380.448 41 381 41H387C387.552 41 388 40.5299 388 39.95C388 39.3667 388 34.5833 388 34H380Z" fill="#1D1B20"/>
</g>
<defs>
<clipPath id="clip0_60_434">
<rect width="412" height="844" rx="16" fill="white"/>
</clipPath>
<clipPath id="clip1_60_434">
<rect width="24" height="24" fill="white" transform="translate(143.333 780)"/>
</clipPath>
</defs>
</svg>
